<?xml version="1.0" encoding="utf-8"?>
<!-- Generator: Adobe Illustrator 18.0.0, SVG Export Plug-In . SVG Version: 6.00 Build 0)  -->
<!DOCTYPE svg PUBLIC "-//W3C//DTD SVG 1.1//EN" "http://www.w3.org/Graphics/SVG/1.1/DTD/svg11.dtd">
<svg version="1.1" id="Layer_1" xmlns="http://www.w3.org/2000/svg" xmlns:xlink="http://www.w3.org/1999/xlink" x="0px" y="0px"
	 viewBox="0 0 429.8 678" enable-background="new 0 0 429.8 678" xml:space="preserve">
<g>
	<g>
		<rect x="34.5" y="172.5" fill="none" stroke="#C0C0C0" stroke-miterlimit="10" width="86.5" height="33"/>
		<g>
			<path fill="#C0C0C0" d="M50.3,192.8c0-0.5-0.2-0.9-0.6-1.3c-0.4-0.4-1.1-0.7-2.2-0.9c-1.2-0.3-2.2-0.6-2.8-1.1s-0.9-1.1-0.9-1.9
				c0-0.8,0.3-1.5,1-2c0.7-0.6,1.6-0.8,2.7-0.8c1.2,0,2.1,0.3,2.8,0.9c0.7,0.6,1,1.3,1,2.2l0,0.1h-1.1c0-0.6-0.2-1.1-0.7-1.5
				c-0.5-0.4-1.2-0.6-2-0.6c-0.8,0-1.5,0.2-1.9,0.6c-0.4,0.4-0.6,0.8-0.6,1.3c0,0.5,0.2,0.9,0.6,1.2c0.4,0.3,1.1,0.6,2.2,0.8
				c1.2,0.3,2.2,0.7,2.8,1.1c0.6,0.5,1,1.1,1,2c0,0.9-0.4,1.6-1.1,2.1c-0.7,0.5-1.7,0.8-2.8,0.8c-1.3,0-2.3-0.3-3-0.9
				c-0.7-0.6-1.1-1.3-1-2.2l0-0.1h1.1c0,0.8,0.4,1.3,0.9,1.7s1.3,0.5,2,0.5c0.8,0,1.5-0.2,2-0.6S50.3,193.3,50.3,192.8z"/>
			<path fill="#C0C0C0" d="M55.9,195.5h-1.2v-14.2h1.2V195.5z"/>
			<path fill="#C0C0C0" d="M63.8,193l0.3,1h0.1l0.3-1l4.3-11.7H70l-5.3,14.2h-1.1l-5.3-14.2h1.3L63.8,193z"/>
			<path fill="#C0C0C0" d="M95.6,195.2c-0.5,0.2-1.5,0.6-2.8,0.6c-2.9,0-4.8-2-4.8-4.9c0-3,2-5.1,5.2-5.1c1,0,2,0.3,2.4,0.5
				l-0.4,1.4c-0.4-0.2-1.1-0.5-2-0.5c-2.2,0-3.4,1.6-3.4,3.7c0,2.2,1.4,3.6,3.4,3.6c1,0,1.7-0.3,2.2-0.5L95.6,195.2z"/>
			<path fill="#C0C0C0" d="M99.4,182.1v13.5h-1.7v-13.5H99.4z"/>
			<path fill="#C0C0C0" d="M105.4,195.5l-4.4-13.5h1.9l2.1,6.6c0.6,1.8,1.1,3.5,1.4,5h0c0.4-1.6,0.9-3.3,1.5-5l2.3-6.7h1.9
				l-4.8,13.5H105.4z"/>
		</g>
		<g>
			<path fill="#C0C0BF" d="M73.9,188.8c0,3,2.4,5.4,5.4,5.4c3,0,5.4-2.4,5.4-5.4c0-3-2.4-5.4-5.4-5.4
				C76.3,183.5,73.9,185.8,73.9,188.8z M79.2,193.7c-2.7,0-4.8-2.2-4.8-4.8s2.2-4.8,4.8-4.8c2.7,0,4.8,2.2,4.8,4.8
				C84.1,191.5,81.9,193.7,79.2,193.7z M79.5,188.6v-3.5H79v3.5h-3.5v0.5H79v3.5h0.5v-3.5h3.5v-0.5H79.5z"/>
		</g>
	</g>
	<g>
		<g>
			<path fill="#C0C0C0" d="M185.2,76.7c0-0.5-0.2-0.9-0.6-1.3c-0.4-0.4-1.1-0.7-2.2-0.9c-1.2-0.3-2.2-0.6-2.8-1.1s-0.9-1.1-0.9-1.9
				c0-0.8,0.3-1.5,1-2c0.7-0.6,1.6-0.8,2.7-0.8c1.2,0,2.1,0.3,2.8,0.9c0.7,0.6,1,1.3,1,2.2l0,0.1h-1.1c0-0.6-0.2-1.1-0.7-1.5
				c-0.5-0.4-1.2-0.6-2-0.6c-0.8,0-1.5,0.2-1.9,0.6c-0.4,0.4-0.6,0.8-0.6,1.3c0,0.5,0.2,0.9,0.6,1.2c0.4,0.3,1.1,0.6,2.2,0.8
				c1.2,0.3,2.2,0.7,2.8,1.1c0.6,0.5,1,1.1,1,2c0,0.9-0.4,1.6-1.1,2.1c-0.7,0.5-1.7,0.8-2.8,0.8c-1.3,0-2.3-0.3-3-0.9
				c-0.7-0.6-1.1-1.3-1-2.2l0-0.1h1.1c0,0.8,0.4,1.3,0.9,1.7s1.3,0.5,2,0.5c0.8,0,1.5-0.2,2-0.6S185.2,77.3,185.2,76.7z"/>
			<path fill="#C0C0C0" d="M197.3,76c0-0.7-0.3-1.3-0.9-1.8c-0.6-0.5-1.6-0.9-2.9-1.3c-1.5-0.4-2.7-0.9-3.5-1.6
				c-0.8-0.6-1.2-1.5-1.2-2.5c0-1.1,0.4-2,1.3-2.7s2-1,3.4-1c1.4,0,2.6,0.4,3.5,1.2c0.9,0.8,1.3,1.8,1.3,3l0,0.1h-1.1
				c0-0.9-0.3-1.7-1-2.3c-0.7-0.6-1.6-0.9-2.6-0.9c-1.1,0-2,0.3-2.6,0.8S190,68,190,68.7c0,0.7,0.3,1.3,0.9,1.8
				c0.6,0.5,1.6,0.9,3,1.3c1.5,0.4,2.6,1,3.4,1.6s1.2,1.5,1.2,2.5c0,1.1-0.5,2-1.4,2.7c-0.9,0.7-2.1,1-3.5,1c-1.4,0-2.6-0.4-3.7-1.1
				c-1-0.7-1.5-1.8-1.5-3.1l0-0.1h1.1c0,1.1,0.4,1.9,1.2,2.5s1.8,0.8,2.8,0.8c1.1,0,2-0.2,2.7-0.7S197.3,76.8,197.3,76z"/>
			<path fill="#C0C0C0" d="M208.8,75.5h-6.2l-1.4,4h-1.2l5.2-14.2h1.1l5.2,14.2h-1.2L208.8,75.5z M202.9,74.4h5.5l-2.7-7.5h-0.1
				L202.9,74.4z"/>
			<path fill="#C0C0C0" d="M214.8,78.5h7.3v1h-8.5V65.2h1.2V78.5z"/>
			<path fill="#C0C0C0" d="M231.6,66.2h-4.8v13.2h-1.2V66.2h-5v-1h11V66.2z"/>
			<path fill="#C0C0C0" d="M256.9,78.7c0.7,0,1.4-0.2,2-0.7s0.9-1.1,0.9-1.8h1l0,0.1c0,1-0.4,1.8-1.2,2.5s-1.7,1-2.8,1
				c-1.4,0-2.5-0.5-3.3-1.5c-0.8-1-1.2-2.3-1.2-3.8V74c0-1.5,0.4-2.8,1.2-3.8c0.8-1,1.9-1.5,3.3-1.5c1.1,0,2.1,0.3,2.8,1
				c0.8,0.7,1.1,1.6,1.1,2.7l0,0.1h-1c0-0.8-0.3-1.5-0.8-2c-0.6-0.5-1.2-0.8-2-0.8c-1.1,0-1.9,0.4-2.5,1.2s-0.8,1.8-0.8,3.1v0.4
				c0,1.2,0.3,2.3,0.8,3.1C255,78.3,255.8,78.7,256.9,78.7z"/>
			<path fill="#C0C0C0" d="M271.6,76c0-0.7-0.3-1.3-0.9-1.8c-0.6-0.5-1.6-0.9-2.9-1.3c-1.5-0.4-2.7-0.9-3.5-1.6
				c-0.8-0.6-1.2-1.5-1.2-2.5c0-1.1,0.4-2,1.3-2.7s2-1,3.4-1c1.4,0,2.6,0.4,3.5,1.2c0.9,0.8,1.3,1.8,1.3,3l0,0.1h-1.1
				c0-0.9-0.3-1.7-1-2.3s-1.6-0.9-2.6-0.9c-1.1,0-2,0.3-2.6,0.8c-0.6,0.5-0.9,1.2-0.9,1.9c0,0.7,0.3,1.3,0.9,1.8
				c0.6,0.5,1.6,0.9,3,1.3c1.5,0.4,2.6,1,3.4,1.6s1.2,1.5,1.2,2.5c0,1.1-0.5,2-1.4,2.7c-0.9,0.7-2.1,1-3.5,1c-1.4,0-2.6-0.4-3.7-1.1
				c-1-0.7-1.5-1.8-1.5-3.1l0-0.1h1.1c0,1.1,0.4,1.9,1.2,2.5s1.8,0.8,2.8,0.8c1.1,0,2-0.2,2.7-0.7C271.3,77.4,271.6,76.8,271.6,76z"
				/>
			<path fill="#C0C0C0" d="M283.1,75.5h-6.2l-1.4,4h-1.2l5.2-14.2h1.1l5.2,14.2h-1.2L283.1,75.5z M277.2,74.4h5.5l-2.7-7.5H280
				L277.2,74.4z"/>
			<path fill="#C0C0C0" d="M289.1,78.5h7.3v1h-8.5V65.2h1.2V78.5z"/>
			<path fill="#C0C0C0" d="M305.9,66.2h-4.8v13.2h-1.2V66.2h-5v-1h11V66.2z"/>
		</g>
		<g>
			<path fill="#C0C0BF" d="M236.1,72.9c0,3,2.4,5.4,5.4,5.4c3,0,5.4-2.4,5.4-5.4c0-3-2.4-5.4-5.4-5.4
				C238.5,67.5,236.1,69.9,236.1,72.9z M241.4,77.7c-2.7,0-4.8-2.2-4.8-4.8s2.2-4.8,4.8-4.8c2.7,0,4.8,2.2,4.8,4.8
				C246.3,75.5,244.1,77.7,241.4,77.7z M241.7,72.6v-3.5h-0.5v3.5h-3.5v0.5h3.5v3.5h0.5v-3.5h3.5v-0.5H241.7z"/>
		</g>
		<rect x="168.8" y="56.4" fill="none" stroke="#C0C0C0" stroke-miterlimit="10" width="147" height="33"/>
	</g>
	<g>
		<g>
			<path fill="#C0C0C0" d="M225.5,193c0-0.5-0.2-0.9-0.6-1.3c-0.4-0.4-1.1-0.7-2.2-0.9c-1.2-0.3-2.2-0.6-2.8-1.1s-0.9-1.1-0.9-1.9
				c0-0.8,0.3-1.5,1-2s1.6-0.8,2.7-0.8c1.2,0,2.1,0.3,2.8,0.9c0.7,0.6,1,1.3,1,2.2l0,0.1h-1.1c0-0.6-0.2-1.1-0.7-1.5
				c-0.5-0.4-1.2-0.6-2-0.6c-0.8,0-1.5,0.2-1.9,0.6c-0.4,0.4-0.6,0.8-0.6,1.3c0,0.5,0.2,0.9,0.6,1.2c0.4,0.3,1.1,0.6,2.2,0.8
				c1.2,0.3,2.2,0.7,2.8,1.1c0.6,0.5,1,1.1,1,2c0,0.9-0.4,1.6-1.1,2.1c-0.7,0.5-1.7,0.8-2.8,0.8c-1.3,0-2.3-0.3-3-0.9
				c-0.7-0.6-1.1-1.3-1-2.2l0-0.1h1.1c0,0.8,0.4,1.3,0.9,1.7c0.6,0.3,1.3,0.5,2,0.5c0.8,0,1.5-0.2,2-0.6S225.5,193.5,225.5,193z"/>
			<path fill="#C0C0C0" d="M237,191.7h-6.2l-1.4,4h-1.2l5.2-14.2h1.1l5.2,14.2h-1.2L237,191.7z M231.2,190.7h5.5l-2.7-7.5h-0.1
				L231.2,190.7z"/>
			<path fill="#C0C0C0" d="M241.8,195.7v-14.2h4.3c1.7,0,3.2,0.6,4.3,1.7c1.1,1.2,1.7,2.6,1.7,4.5v1.8c0,1.8-0.6,3.3-1.7,4.5
				c-1.1,1.2-2.6,1.7-4.3,1.7H241.8z M243,182.4v12.2h3.2c1.4,0,2.6-0.5,3.5-1.5c0.9-1,1.4-2.2,1.4-3.7v-1.9c0-1.5-0.5-2.7-1.4-3.7
				s-2.1-1.5-3.5-1.5H243z"/>
			<path fill="#C0C0C0" d="M262.5,191.7h-6.2l-1.4,4h-1.2l5.2-14.2h1.1l5.2,14.2h-1.2L262.5,191.7z M256.7,190.7h5.5l-2.7-7.5h-0.1
				L256.7,190.7z"/>
			<path fill="#C0C0C0" d="M275.7,182.4h-4.8v13.2h-1.2v-13.2h-5v-1h11V182.4z"/>
			<path fill="#C0C0C0" d="M284.7,191.7h-6.2l-1.4,4h-1.2l5.2-14.2h1.1l5.2,14.2h-1.2L284.7,191.7z M278.8,190.7h5.5l-2.7-7.5h-0.1
				L278.8,190.7z"/>
			<path fill="#C0C0C0" d="M312.5,194.9c0.7,0,1.4-0.2,2-0.7s0.9-1.1,0.9-1.8h1l0,0.1c0,1-0.4,1.8-1.2,2.5s-1.7,1-2.8,1
				c-1.4,0-2.5-0.5-3.3-1.5c-0.8-1-1.2-2.3-1.2-3.8v-0.4c0-1.5,0.4-2.8,1.2-3.8c0.8-1,1.9-1.5,3.3-1.5c1.1,0,2.1,0.3,2.8,1
				c0.8,0.7,1.1,1.6,1.1,2.7l0,0.1h-1c0-0.8-0.3-1.5-0.8-2c-0.6-0.5-1.2-0.8-2-0.8c-1.1,0-1.9,0.4-2.5,1.2s-0.8,1.8-0.8,3.1v0.4
				c0,1.2,0.3,2.3,0.8,3.1C310.6,194.5,311.4,194.9,312.5,194.9z"/>
			<path fill="#C0C0C0" d="M326.7,191.7h-6.2l-1.4,4h-1.2l5.2-14.2h1.1l5.2,14.2h-1.2L326.7,191.7z M320.8,190.7h5.5l-2.7-7.5h-0.1
				L320.8,190.7z"/>
			<path fill="#C0C0C0" d="M331.5,195.7v-14.2h4.3c1.7,0,3.2,0.6,4.3,1.7c1.1,1.2,1.7,2.6,1.7,4.5v1.8c0,1.8-0.6,3.3-1.7,4.5
				c-1.1,1.2-2.6,1.7-4.3,1.7H331.5z M332.7,182.4v12.2h3.2c1.4,0,2.6-0.5,3.5-1.5c0.9-1,1.4-2.2,1.4-3.7v-1.9
				c0-1.5-0.5-2.7-1.4-3.7s-2.1-1.5-3.5-1.5H332.7z"/>
			<path fill="#C0C0C0" d="M352.2,191.7h-6.2l-1.4,4h-1.2l5.2-14.2h1.1l5.2,14.2h-1.2L352.2,191.7z M346.3,190.7h5.5l-2.7-7.5H349
				L346.3,190.7z"/>
			<path fill="#C0C0C0" d="M365.4,182.4h-4.8v13.2h-1.2v-13.2h-5v-1h11V182.4z"/>
			<path fill="#C0C0C0" d="M374.4,191.7h-6.2l-1.4,4h-1.2l5.2-14.2h1.1l5.2,14.2h-1.2L374.4,191.7z M368.5,190.7h5.5l-2.7-7.5h-0.1
				L368.5,190.7z"/>
		</g>
		<g>
			<path fill="#C0C0BF" d="M293,189c0,3,2.4,5.4,5.4,5.4c3,0,5.4-2.4,5.4-5.4c0-3-2.4-5.4-5.4-5.4C295.4,183.6,293,186,293,189z
				 M298.3,193.8c-2.7,0-4.8-2.2-4.8-4.8s2.2-4.8,4.8-4.8c2.7,0,4.8,2.2,4.8,4.8C303.2,191.6,301,193.8,298.3,193.8z M298.6,188.7
				v-3.5h-0.5v3.5h-3.5v0.5h3.5v3.5h0.5v-3.5h3.5v-0.5H298.6z"/>
		</g>
		<rect x="206.3" y="172.5" fill="none" stroke="#C0C0C0" stroke-miterlimit="10" width="184.5" height="33"/>
	</g>
	<g>
		<g>
			<path fill="#C0C0C0" d="M97.4,73.5v5.9h-1.2V65.2h4.9c1.5,0,2.6,0.4,3.5,1.1s1.2,1.8,1.2,3c0,1.3-0.4,2.3-1.2,3s-2,1.1-3.5,1.1
				H97.4z M97.4,72.6h3.7c1.2,0,2-0.3,2.6-0.9c0.6-0.6,0.9-1.3,0.9-2.2c0-0.9-0.3-1.7-0.9-2.3c-0.6-0.6-1.5-0.9-2.6-0.9h-3.7V72.6z"
				/>
			<path fill="#C0C0C0" d="M114.6,75.5h-6.2l-1.4,4h-1.2l5.2-14.2h1.1l5.2,14.2H116L114.6,75.5z M108.8,74.4h5.5l-2.7-7.5h-0.1
				L108.8,74.4z"/>
			<path fill="#C0C0C0" d="M127.5,76c0-0.7-0.3-1.3-0.9-1.8c-0.6-0.5-1.6-0.9-2.9-1.3c-1.5-0.4-2.7-0.9-3.5-1.6
				c-0.8-0.6-1.2-1.5-1.2-2.5c0-1.1,0.4-2,1.3-2.7s2-1,3.4-1c1.4,0,2.6,0.4,3.5,1.2c0.9,0.8,1.3,1.8,1.3,3l0,0.1h-1.1
				c0-0.9-0.3-1.7-1-2.3c-0.7-0.6-1.6-0.9-2.6-0.9c-1.1,0-2,0.3-2.6,0.8s-0.9,1.2-0.9,1.9c0,0.7,0.3,1.3,0.9,1.8
				c0.6,0.5,1.6,0.9,3,1.3c1.5,0.4,2.6,1,3.4,1.6c0.8,0.6,1.2,1.5,1.2,2.5c0,1.1-0.5,2-1.4,2.7c-0.9,0.7-2.1,1-3.5,1
				c-1.4,0-2.6-0.4-3.7-1.1c-1-0.7-1.5-1.8-1.5-3.1l0-0.1h1.1c0,1.1,0.4,1.9,1.2,2.5s1.8,0.8,2.8,0.8c1.1,0,2-0.2,2.7-0.7
				S127.5,76.8,127.5,76z"/>
			<path fill="#C0C0C0" d="M139.5,76c0-0.7-0.3-1.3-0.9-1.8c-0.6-0.5-1.6-0.9-2.9-1.3c-1.5-0.4-2.7-0.9-3.5-1.6
				c-0.8-0.6-1.2-1.5-1.2-2.5c0-1.1,0.4-2,1.3-2.7s2-1,3.4-1c1.4,0,2.6,0.4,3.5,1.2c0.9,0.8,1.3,1.8,1.3,3l0,0.1h-1.1
				c0-0.9-0.3-1.7-1-2.3c-0.7-0.6-1.6-0.9-2.6-0.9c-1.1,0-2,0.3-2.6,0.8s-0.9,1.2-0.9,1.9c0,0.7,0.3,1.3,0.9,1.8
				c0.6,0.5,1.6,0.9,3,1.3c1.5,0.4,2.6,1,3.4,1.6s1.2,1.5,1.2,2.5c0,1.1-0.5,2-1.4,2.7c-0.9,0.7-2.1,1-3.5,1c-1.4,0-2.6-0.4-3.7-1.1
				c-1-0.7-1.5-1.8-1.5-3.1l0-0.1h1.1c0,1.1,0.4,1.9,1.2,2.5s1.8,0.8,2.8,0.8c1.1,0,2-0.2,2.7-0.7S139.5,76.8,139.5,76z"/>
		</g>
		<g>
			<g>
				<polyline fill="none" stroke="#C0C0C0" stroke-miterlimit="10" points="155.2,83.4 155.2,89.4 149.2,89.4 				"/>
				
					<line fill="none" stroke="#C0C0C0" stroke-miterlimit="10" stroke-dasharray="12.0397,12.0397" x1="137.2" y1="89.4" x2="95" y2="89.4"/>
				<polyline fill="none" stroke="#C0C0C0" stroke-miterlimit="10" points="89,89.4 83,89.4 83,83.4 				"/>
				
					<line fill="none" stroke="#C0C0C0" stroke-miterlimit="10" stroke-dasharray="6.9932,6.9932" x1="83" y1="76.4" x2="83" y2="65.9"/>
				<polyline fill="none" stroke="#C0C0C0" stroke-miterlimit="10" points="83,62.4 83,56.4 89,56.4 				"/>
				
					<line fill="none" stroke="#C0C0C0" stroke-miterlimit="10" stroke-dasharray="12.0397,12.0397" x1="101" y1="56.4" x2="143.2" y2="56.4"/>
				<polyline fill="none" stroke="#C0C0C0" stroke-miterlimit="10" points="149.2,56.4 155.2,56.4 155.2,62.4 				"/>
				
					<line fill="none" stroke="#C0C0C0" stroke-miterlimit="10" stroke-dasharray="6.9932,6.9932" x1="155.2" y1="69.4" x2="155.2" y2="79.9"/>
			</g>
		</g>
	</g>
	<g>
		<g>
			<path fill="#C0C0C0" d="M149.8,188.8h-1.5v6.7h-1.2v-14.2h1.2v6.5h1.5l5.6-6.5h1.3l0,0l-5.9,6.8l6.5,7.3l0,0h-1.4L149.8,188.8z"
				/>
			<path fill="#C0C0C0" d="M166.9,188.6h-6.4v5.9h7.4v1h-8.5v-14.2h8.5v1h-7.3v5.3h6.4V188.6z"/>
			<path fill="#C0C0C0" d="M174.7,189.2l4.4-7.9h1.4l-5.2,9v5.2h-1.2v-5.2l-5.1-9h1.4L174.7,189.2z"/>
		</g>
		<g>
			<g>
				<polyline fill="none" stroke="#C0C0C0" stroke-miterlimit="10" points="194.8,199.4 194.8,205.4 188.8,205.4 				"/>
				
					<line fill="none" stroke="#C0C0C0" stroke-miterlimit="10" stroke-dasharray="9.7479,9.7479" x1="179.1" y1="205.4" x2="145" y2="205.4"/>
				<polyline fill="none" stroke="#C0C0C0" stroke-miterlimit="10" points="140.1,205.4 134.1,205.4 134.1,199.4 				"/>
				
					<line fill="none" stroke="#C0C0C0" stroke-miterlimit="10" stroke-dasharray="6.9932,6.9932" x1="134.1" y1="192.5" x2="134.1" y2="182"/>
				<polyline fill="none" stroke="#C0C0C0" stroke-miterlimit="10" points="134.1,178.5 134.1,172.5 140.1,172.5 				"/>
				
					<line fill="none" stroke="#C0C0C0" stroke-miterlimit="10" stroke-dasharray="9.7479,9.7479" x1="149.8" y1="172.5" x2="184" y2="172.5"/>
				<polyline fill="none" stroke="#C0C0C0" stroke-miterlimit="10" points="188.8,172.5 194.8,172.5 194.8,178.5 				"/>
				
					<line fill="none" stroke="#C0C0C0" stroke-miterlimit="10" stroke-dasharray="6.9932,6.9932" x1="194.8" y1="185.5" x2="194.8" y2="196"/>
			</g>
		</g>
	</g>
	<g>
		<g>
			<line fill="none" stroke="#C0C0C0" stroke-miterlimit="10" x1="127.1" y1="89.4" x2="160.1" y2="109.7"/>
			<g>
				<polygon fill="#C0C0C0" points="158.2,111.4 163.2,111.6 160.8,107.2 				"/>
			</g>
		</g>
	</g>
	<g>
		<g>
			<line fill="none" stroke="#C0C0C0" stroke-miterlimit="10" x1="203" y1="89.4" x2="169.9" y2="109.7"/>
			<g>
				<polygon fill="#C0C0C0" points="169.2,107.2 166.9,111.6 171.8,111.4 				"/>
			</g>
		</g>
	</g>
	<g>
		<g>
			<path fill="#C0C0C0" d="M130,131.1v5.9h-1.2v-14.2h4.9c1.5,0,2.6,0.4,3.5,1.1s1.2,1.8,1.2,3c0,1.3-0.4,2.3-1.2,3s-2,1.1-3.5,1.1
				H130z M130,130.1h3.7c1.2,0,2-0.3,2.6-0.9c0.6-0.6,0.9-1.3,0.9-2.2c0-0.9-0.3-1.7-0.9-2.3c-0.6-0.6-1.5-0.9-2.6-0.9H130V130.1z"
				/>
			<path fill="#C0C0C0" d="M141.2,137v-14.2h4.1c1.5,0,2.6,0.3,3.5,0.9s1.2,1.6,1.2,2.8c0,0.7-0.2,1.3-0.6,1.9
				c-0.4,0.5-0.9,0.9-1.6,1.1c0.9,0.1,1.6,0.5,2.2,1.2c0.6,0.7,0.9,1.5,0.9,2.4c0,1.3-0.4,2.2-1.2,2.9c-0.8,0.7-1.9,1-3.3,1H141.2z
				 M142.3,129.2h3.4c1,0,1.7-0.3,2.3-0.7s0.8-1.1,0.8-2c0-0.9-0.3-1.6-0.9-2s-1.5-0.7-2.6-0.7h-3V129.2z M142.3,130.2v5.9h4
				c1,0,1.9-0.3,2.5-0.8c0.6-0.5,0.9-1.2,0.9-2.2c0-0.9-0.3-1.5-0.9-2.1s-1.4-0.8-2.4-0.8h-0.2H142.3z"/>
			<path fill="#C0C0C0" d="M156.2,130.3h-1.5v6.7h-1.2v-14.2h1.2v6.5h1.5l5.6-6.5h1.3l0,0l-5.9,6.8l6.5,7.3l0,0h-1.4L156.2,130.3z"
				/>
			<path fill="#C0C0C0" d="M165.8,137v-14.2h4.3c1.7,0,3.2,0.6,4.3,1.7c1.1,1.2,1.7,2.6,1.7,4.5v1.8c0,1.8-0.6,3.3-1.7,4.5
				c-1.1,1.2-2.6,1.7-4.3,1.7H165.8z M167,123.8v12.2h3.2c1.4,0,2.6-0.5,3.5-1.5c0.9-1,1.4-2.2,1.4-3.7V129c0-1.5-0.5-2.7-1.4-3.7
				s-2.1-1.5-3.5-1.5H167z"/>
			<path fill="#C0C0C0" d="M186.9,130.4h-6.5v6.7h-1.2v-14.2h8.7v1h-7.5v5.6h6.5V130.4z"/>
			<path fill="#C0C0C0" d="M198.6,137h-8.6v-0.9l4.7-5.5c0.8-1,1.4-1.8,1.7-2.4c0.3-0.6,0.5-1.2,0.5-1.9c0-0.9-0.2-1.5-0.7-2
				c-0.5-0.5-1.2-0.7-2.1-0.7c-1,0-1.8,0.3-2.3,0.9c-0.5,0.6-0.8,1.4-0.8,2.3h-1.1l0-0.1c0-1.2,0.3-2.1,1.1-2.9s1.8-1.2,3.2-1.2
				c1.2,0,2.2,0.3,2.9,1c0.7,0.7,1.1,1.6,1.1,2.8c0,0.8-0.2,1.5-0.7,2.3c-0.5,0.8-1.1,1.7-2,2.8l-3.8,4.5l0,0h7.2V137z"/>
		</g>
		<path fill="none" stroke="#C0C0C0" stroke-miterlimit="10" d="M194.3,152h-59.6c-10.5,0-19.1-8.5-19.1-19.1v0
			c0-10.5,8.5-19.1,19.1-19.1h59.6c10.5,0,19.1,8.5,19.1,19.1v0C213.3,143.4,204.8,152,194.3,152z"/>
		<g>
			<path fill="#C0C0C0" d="M132.1,142.7h-0.4v-2.1h-2.6v2.1h-0.4v-4.6h0.4v2.2h2.6v-2.2h0.4V142.7z"/>
			<path fill="#C0C0C0" d="M135.5,142.1L135.5,142.1l1.7-4h0.5v4.6h-0.4v-3.8l0,0l-1.6,3.9h-0.3l-1.7-3.9l0,0v3.9h-0.4v-4.6h0.5
				L135.5,142.1z"/>
			<path fill="#C0C0C0" d="M141.3,141.4h-2l-0.5,1.3h-0.4l1.7-4.6h0.4l1.7,4.6h-0.4L141.3,141.4z M139.4,141.1h1.8l-0.9-2.4h0
				L139.4,141.1z"/>
			<path fill="#C0C0C0" d="M146,141.3L146,141.3c0,0.5-0.1,0.8-0.4,1.1c-0.3,0.3-0.7,0.4-1.2,0.4c-0.5,0-0.9-0.2-1.2-0.6
				c-0.3-0.4-0.5-0.8-0.5-1.4V140c0-0.6,0.2-1.1,0.5-1.4s0.7-0.6,1.2-0.6c0.5,0,0.9,0.1,1.2,0.4s0.4,0.6,0.4,1.1l0,0h-0.4
				c0-0.4-0.1-0.7-0.3-0.9c-0.2-0.2-0.5-0.3-0.9-0.3c-0.4,0-0.7,0.2-1,0.5c-0.2,0.3-0.4,0.7-0.4,1.2v0.8c0,0.5,0.1,0.9,0.4,1.2
				c0.2,0.3,0.6,0.5,1,0.5c0.4,0,0.7-0.1,0.9-0.3c0.2-0.2,0.3-0.5,0.3-0.9H146z"/>
			<path fill="#C0C0C0" d="M148.6,140.9h-1.9v-0.3h1.9V140.9z"/>
			<path fill="#C0C0C0" d="M152.3,141.6c0-0.2-0.1-0.4-0.3-0.6c-0.2-0.2-0.5-0.3-1-0.4c-0.5-0.1-0.9-0.3-1.1-0.5s-0.4-0.5-0.4-0.8
				c0-0.4,0.1-0.6,0.4-0.9c0.3-0.2,0.6-0.3,1.1-0.3c0.5,0,0.8,0.1,1.1,0.4c0.3,0.3,0.4,0.6,0.4,1l0,0h-0.4c0-0.3-0.1-0.6-0.3-0.8
				s-0.5-0.3-0.8-0.3c-0.4,0-0.6,0.1-0.8,0.3c-0.2,0.2-0.3,0.4-0.3,0.6c0,0.2,0.1,0.4,0.3,0.6s0.5,0.3,1,0.4
				c0.5,0.1,0.9,0.3,1.1,0.5s0.4,0.5,0.4,0.8c0,0.4-0.1,0.6-0.4,0.9c-0.3,0.2-0.7,0.3-1.1,0.3c-0.5,0-0.8-0.1-1.2-0.3
				c-0.3-0.2-0.5-0.6-0.5-1l0,0h0.3c0,0.4,0.1,0.6,0.4,0.8c0.3,0.2,0.6,0.3,0.9,0.3c0.4,0,0.6-0.1,0.9-0.2
				C152.1,142,152.3,141.8,152.3,141.6z"/>
			<path fill="#C0C0C0" d="M156.9,142.7h-0.4v-2.1h-2.6v2.1h-0.4v-4.6h0.4v2.2h2.6v-2.2h0.4V142.7z"/>
			<path fill="#C0C0C0" d="M160.5,141.4h-2l-0.5,1.3h-0.4l1.7-4.6h0.4l1.7,4.6H161L160.5,141.4z M158.6,141.1h1.8l-0.9-2.4h0
				L158.6,141.1z"/>
			<path fill="#C0C0C0" d="M164.8,142.7H162v-0.3l1.5-1.8c0.3-0.3,0.5-0.6,0.6-0.8c0.1-0.2,0.2-0.4,0.2-0.6c0-0.3-0.1-0.5-0.2-0.7
				c-0.1-0.2-0.4-0.2-0.7-0.2c-0.3,0-0.6,0.1-0.8,0.3c-0.2,0.2-0.3,0.4-0.3,0.7h-0.4l0,0c0-0.4,0.1-0.7,0.4-0.9
				c0.3-0.3,0.6-0.4,1-0.4c0.4,0,0.7,0.1,0.9,0.3c0.2,0.2,0.3,0.5,0.3,0.9c0,0.2-0.1,0.5-0.2,0.7c-0.1,0.2-0.4,0.5-0.7,0.9l-1.2,1.4
				l0,0h2.3V142.7z"/>
			<path fill="#C0C0C0" d="M165.7,140.6l0.3-2.5h2.2v0.3h-1.9l-0.2,1.6c0.1-0.1,0.2-0.2,0.4-0.2c0.1-0.1,0.3-0.1,0.6-0.1
				c0.4,0,0.7,0.1,0.9,0.4c0.2,0.3,0.4,0.6,0.4,1.1c0,0.5-0.1,0.8-0.3,1.1s-0.6,0.4-1,0.4c-0.4,0-0.7-0.1-0.9-0.3
				c-0.3-0.2-0.4-0.5-0.4-0.9l0,0h0.3c0,0.3,0.1,0.5,0.3,0.7c0.2,0.2,0.4,0.2,0.7,0.2c0.3,0,0.6-0.1,0.8-0.3
				c0.2-0.2,0.3-0.5,0.3-0.9c0-0.3-0.1-0.6-0.3-0.8c-0.2-0.2-0.4-0.3-0.7-0.3c-0.3,0-0.5,0-0.7,0.1s-0.3,0.2-0.3,0.4L165.7,140.6z"
				/>
			<path fill="#C0C0C0" d="M170.6,138c0.2,0,0.3,0,0.5,0.1s0.3,0.1,0.4,0.2l-0.1,0.3c-0.1-0.1-0.3-0.1-0.4-0.1c-0.1,0-0.3,0-0.5,0
				c-0.3,0-0.6,0.1-0.8,0.4c-0.2,0.3-0.3,0.6-0.3,1v0.6c0.1-0.2,0.3-0.3,0.5-0.4c0.2-0.1,0.4-0.2,0.7-0.2c0.4,0,0.7,0.1,0.9,0.4
				c0.2,0.3,0.3,0.6,0.3,1.1c0,0.4-0.1,0.8-0.4,1.1c-0.3,0.3-0.6,0.4-1,0.4c-0.4,0-0.8-0.2-1-0.5s-0.4-0.7-0.4-1.3v-1.2
				c0-0.5,0.1-0.9,0.4-1.2C169.8,138.2,170.2,138,170.6,138z M170.6,140.1c-0.2,0-0.5,0.1-0.7,0.2c-0.2,0.1-0.3,0.3-0.4,0.5v0.2
				c0,0.4,0.1,0.8,0.3,1c0.2,0.3,0.4,0.4,0.8,0.4c0.3,0,0.6-0.1,0.7-0.3c0.2-0.2,0.3-0.5,0.3-0.8c0-0.4-0.1-0.7-0.3-0.9
				C171.1,140.2,170.9,140.1,170.6,140.1z"/>
			<path fill="#C0C0C0" d="M179.3,141.1c0,0.5-0.1,0.8-0.4,1.2c-0.2,0.3-0.6,0.5-1,0.5c-0.2,0-0.3-0.1-0.4-0.2
				c-0.1-0.1-0.2-0.3-0.2-0.4c-0.1,0.2-0.2,0.4-0.4,0.5s-0.4,0.2-0.6,0.2c-0.3,0-0.5-0.1-0.6-0.4c-0.1-0.3-0.2-0.6-0.2-1
				c0-0.5,0.2-1,0.4-1.3c0.2-0.3,0.5-0.5,0.9-0.5c0.2,0,0.4,0,0.5,0.1s0.3,0.1,0.4,0.3l0,0h0l-0.2,1.8c0,0.3,0,0.5,0.1,0.6
				c0.1,0.1,0.2,0.2,0.3,0.2c0.3,0,0.5-0.1,0.7-0.4s0.3-0.6,0.3-1c0-0.8-0.1-1.4-0.5-1.9s-0.9-0.7-1.7-0.7c-0.7,0-1.2,0.2-1.7,0.7
				c-0.4,0.5-0.7,1.1-0.7,1.9c0,0.8,0.1,1.4,0.5,1.9c0.4,0.5,0.9,0.7,1.6,0.7c0.2,0,0.4,0,0.6-0.1c0.2,0,0.3-0.1,0.5-0.2l0.1,0.2
				c-0.1,0.1-0.3,0.2-0.5,0.2s-0.4,0.1-0.6,0.1c-0.8,0-1.4-0.3-1.8-0.8c-0.4-0.5-0.6-1.2-0.6-2.1c0-0.9,0.3-1.6,0.8-2.1
				c0.5-0.5,1.1-0.8,1.9-0.8c0.8,0,1.4,0.3,1.8,0.8S179.3,140.2,179.3,141.1z M175.9,141.4c0,0.3,0,0.6,0.1,0.8
				c0.1,0.2,0.2,0.3,0.4,0.3c0.2,0,0.3,0,0.5-0.1s0.3-0.3,0.4-0.5c0,0,0,0,0,0s0,0,0,0l0.1-1.7c-0.1,0-0.1-0.1-0.2-0.1
				c-0.1,0-0.2,0-0.3,0c-0.3,0-0.5,0.1-0.7,0.4S175.9,140.9,175.9,141.4z"/>
			<path fill="#C0C0C0" d="M183,140.2c0.3,0,0.6-0.1,0.8-0.2c0.2-0.2,0.3-0.4,0.3-0.6c0-0.3-0.1-0.5-0.2-0.7
				c-0.2-0.2-0.4-0.3-0.7-0.3c-0.3,0-0.5,0.1-0.7,0.3s-0.3,0.4-0.3,0.7h-0.4l0,0c0-0.4,0.1-0.7,0.4-0.9c0.3-0.2,0.6-0.4,1-0.4
				c0.4,0,0.7,0.1,1,0.3c0.2,0.2,0.4,0.5,0.4,0.9c0,0.2-0.1,0.4-0.2,0.6c-0.1,0.2-0.3,0.3-0.5,0.4c0.3,0.1,0.5,0.2,0.6,0.4
				s0.2,0.4,0.2,0.7c0,0.4-0.1,0.7-0.4,1c-0.3,0.2-0.6,0.3-1,0.3c-0.4,0-0.7-0.1-1-0.3c-0.3-0.2-0.4-0.5-0.4-0.9l0,0h0.4
				c0,0.3,0.1,0.5,0.3,0.7c0.2,0.2,0.5,0.3,0.8,0.3c0.3,0,0.6-0.1,0.7-0.3c0.2-0.2,0.3-0.4,0.3-0.7c0-0.3-0.1-0.6-0.3-0.7
				s-0.5-0.2-0.8-0.2h-0.4v-0.3H183z"/>
			<path fill="#C0C0C0" d="M188,141.1c0,0.5-0.1,0.9-0.4,1.2c-0.3,0.3-0.6,0.4-1,0.4s-0.8-0.2-1-0.5c-0.3-0.3-0.4-0.7-0.4-1.2v-1.3
				c0-0.5,0.1-0.9,0.4-1.2c0.3-0.3,0.6-0.5,1-0.5s0.8,0.2,1,0.5c0.3,0.3,0.4,0.7,0.4,1.2V141.1z M187.6,139.7c0-0.4-0.1-0.7-0.3-1
				c-0.2-0.2-0.4-0.4-0.8-0.4s-0.6,0.1-0.8,0.4c-0.2,0.2-0.3,0.6-0.3,1v1.5c0,0.4,0.1,0.7,0.3,1c0.2,0.2,0.4,0.4,0.8,0.4
				c0.3,0,0.6-0.1,0.8-0.4c0.2-0.2,0.3-0.6,0.3-1V139.7z"/>
			<path fill="#C0C0C0" d="M191.6,141.1c0,0.5-0.1,0.9-0.4,1.2c-0.3,0.3-0.6,0.4-1,0.4s-0.8-0.2-1-0.5c-0.3-0.3-0.4-0.7-0.4-1.2
				v-1.3c0-0.5,0.1-0.9,0.4-1.2c0.3-0.3,0.6-0.5,1-0.5s0.8,0.2,1,0.5c0.3,0.3,0.4,0.7,0.4,1.2V141.1z M191.2,139.7
				c0-0.4-0.1-0.7-0.3-1c-0.2-0.2-0.4-0.4-0.8-0.4s-0.6,0.1-0.8,0.4c-0.2,0.2-0.3,0.6-0.3,1v1.5c0,0.4,0.1,0.7,0.3,1
				c0.2,0.2,0.4,0.4,0.8,0.4c0.3,0,0.6-0.1,0.8-0.4c0.2-0.2,0.3-0.6,0.3-1V139.7z"/>
			<path fill="#C0C0C0" d="M195.2,141.1c0,0.5-0.1,0.9-0.4,1.2c-0.3,0.3-0.6,0.4-1,0.4s-0.8-0.2-1-0.5c-0.3-0.3-0.4-0.7-0.4-1.2
				v-1.3c0-0.5,0.1-0.9,0.4-1.2c0.3-0.3,0.6-0.5,1-0.5s0.8,0.2,1,0.5c0.3,0.3,0.4,0.7,0.4,1.2V141.1z M194.8,139.7
				c0-0.4-0.1-0.7-0.3-1c-0.2-0.2-0.4-0.4-0.8-0.4s-0.6,0.1-0.8,0.4c-0.2,0.2-0.3,0.6-0.3,1v1.5c0,0.4,0.1,0.7,0.3,1
				c0.2,0.2,0.4,0.4,0.8,0.4c0.3,0,0.6-0.1,0.8-0.4c0.2-0.2,0.3-0.6,0.3-1V139.7z"/>
			<path fill="#C0C0C0" d="M198.7,141.1c0,0.5-0.1,0.9-0.4,1.2c-0.3,0.3-0.6,0.4-1,0.4s-0.8-0.2-1-0.5c-0.3-0.3-0.4-0.7-0.4-1.2
				v-1.3c0-0.5,0.1-0.9,0.4-1.2c0.3-0.3,0.6-0.5,1-0.5s0.8,0.2,1,0.5c0.3,0.3,0.4,0.7,0.4,1.2V141.1z M198.4,139.7
				c0-0.4-0.1-0.7-0.3-1c-0.2-0.2-0.4-0.4-0.8-0.4s-0.6,0.1-0.8,0.4c-0.2,0.2-0.3,0.6-0.3,1v1.5c0,0.4,0.1,0.7,0.3,1
				c0.2,0.2,0.4,0.4,0.8,0.4c0.3,0,0.6-0.1,0.8-0.4c0.2-0.2,0.3-0.6,0.3-1V139.7z"/>
		</g>
	</g>
	<g>
		<g>
			<line fill="none" stroke="#C0C0C0" stroke-miterlimit="10" x1="164.5" y1="152" x2="164.5" y2="168.9"/>
			<g>
				<polygon fill="#C0C0C0" points="162,168.2 164.5,172.5 167,168.2 				"/>
			</g>
		</g>
	</g>
	<g>
		<g>
			<path fill="#C0C0C0" d="M112.8,247.9h-6.2l-1.4,4H104l5.2-14.2h1.1l5.2,14.2h-1.2L112.8,247.9z M107,246.9h5.5l-2.7-7.5h-0.1
				L107,246.9z"/>
			<path fill="#C0C0C0" d="M125.2,245h-6.4v5.9h7.4v1h-8.5v-14.2h8.5v1h-7.3v5.3h6.4V245z"/>
			<path fill="#C0C0C0" d="M136.7,248.4c0-0.7-0.3-1.3-0.9-1.8c-0.6-0.5-1.6-0.9-2.9-1.3c-1.5-0.4-2.7-0.9-3.5-1.6
				c-0.8-0.6-1.2-1.5-1.2-2.5c0-1.1,0.4-2,1.3-2.7s2-1,3.4-1c1.4,0,2.6,0.4,3.5,1.2c0.9,0.8,1.3,1.8,1.3,3l0,0.1h-1.1
				c0-0.9-0.3-1.7-1-2.3s-1.6-0.9-2.6-0.9c-1.1,0-2,0.3-2.6,0.8c-0.6,0.5-0.9,1.2-0.9,1.9c0,0.7,0.3,1.3,0.9,1.8
				c0.6,0.5,1.6,0.9,3,1.3c1.5,0.4,2.6,1,3.4,1.6s1.2,1.5,1.2,2.5c0,1.1-0.5,2-1.4,2.7c-0.9,0.7-2.1,1-3.5,1c-1.4,0-2.6-0.4-3.7-1.1
				c-1-0.7-1.5-1.8-1.5-3.1l0-0.1h1.1c0,1.1,0.4,1.9,1.2,2.5s1.8,0.8,2.8,0.8c1.1,0,2-0.2,2.7-0.7
				C136.3,249.8,136.7,249.2,136.7,248.4z"/>
			<path fill="#C0C0C0" d="M149.1,251.9h-8.6V251l4.7-5.5c0.8-1,1.4-1.8,1.7-2.4c0.3-0.6,0.5-1.2,0.5-1.9c0-0.9-0.2-1.5-0.7-2
				c-0.5-0.5-1.2-0.7-2.1-0.7c-1,0-1.8,0.3-2.3,0.9c-0.5,0.6-0.8,1.4-0.8,2.3h-1.1l0-0.1c0-1.2,0.3-2.1,1.1-2.9
				c0.8-0.8,1.8-1.2,3.2-1.2c1.2,0,2.2,0.3,2.9,1c0.7,0.7,1.1,1.6,1.1,2.8c0,0.8-0.2,1.5-0.7,2.3s-1.1,1.7-2,2.8l-3.8,4.5l0,0h7.2
				V251.9z"/>
			<path fill="#C0C0C0" d="M151.8,245.5l0.8-7.8h6.9v1.1h-5.9l-0.5,5.1c0.4-0.3,0.8-0.6,1.2-0.8c0.4-0.2,1-0.3,1.7-0.3
				c1.2,0,2.2,0.4,2.9,1.2c0.7,0.8,1.1,1.9,1.1,3.3c0,1.4-0.4,2.6-1.1,3.4c-0.7,0.9-1.8,1.3-3.2,1.3c-1.2,0-2.1-0.3-2.9-1
				c-0.8-0.7-1.2-1.6-1.1-2.9l0-0.1h1.1c0,1,0.3,1.7,0.8,2.2c0.5,0.5,1.3,0.8,2.2,0.8c1.1,0,1.9-0.3,2.4-1c0.5-0.6,0.8-1.6,0.8-2.8
				c0-1.1-0.3-1.9-0.8-2.5c-0.5-0.6-1.3-0.9-2.2-0.9c-0.9,0-1.6,0.1-2.1,0.4c-0.5,0.3-0.8,0.7-1,1.3L151.8,245.5z"/>
			<path fill="#C0C0C0" d="M167.2,237.5c0.5,0,1.1,0.1,1.6,0.2c0.5,0.1,1,0.3,1.4,0.5l-0.3,1c-0.4-0.2-0.8-0.4-1.2-0.5
				c-0.4-0.1-0.9-0.2-1.4-0.2c-1,0-1.8,0.4-2.5,1.2c-0.6,0.8-1,1.8-1,3.1v2c0.4-0.5,0.9-1,1.5-1.3s1.3-0.5,2-0.5
				c1.3,0,2.2,0.4,2.9,1.2c0.7,0.8,1.1,1.9,1.1,3.3c0,1.4-0.4,2.5-1.2,3.4c-0.8,0.9-1.8,1.3-3.1,1.3c-1.3,0-2.3-0.5-3.2-1.5
				s-1.2-2.3-1.2-3.9v-3.8c0-1.6,0.4-2.9,1.3-3.9S165.9,237.5,167.2,237.5z M167,243.8c-0.8,0-1.4,0.2-2,0.6s-1,0.9-1.2,1.6v0.7
				c0,1.3,0.3,2.4,0.9,3.1c0.6,0.8,1.4,1.2,2.3,1.2c1,0,1.7-0.3,2.3-1c0.6-0.7,0.8-1.6,0.8-2.6c0-1.1-0.3-2-0.8-2.7
				S168,243.8,167,243.8z"/>
			<path fill="#C0C0C0" d="M179.2,246.3h-5.8v-1h5.8V246.3z"/>
			<path fill="#C0C0C0" d="M192.5,250c-0.3,0.5-0.9,1-1.7,1.4c-0.8,0.4-1.9,0.7-3.2,0.7c-1.6,0-3-0.6-4-1.7c-1-1.1-1.6-2.6-1.6-4.4
				v-2.6c0-1.8,0.5-3.2,1.5-4.3c1-1.1,2.3-1.7,3.9-1.7c1.5,0,2.8,0.4,3.7,1.2c0.9,0.8,1.3,1.8,1.3,3.1l0,0.1h-1.1c0-1-0.3-1.8-1-2.4
				s-1.6-1-2.9-1c-1.3,0-2.3,0.5-3.1,1.4c-0.8,0.9-1.2,2.1-1.2,3.6v2.6c0,1.5,0.4,2.7,1.2,3.7c0.8,0.9,1.9,1.4,3.2,1.4
				c1,0,1.8-0.2,2.4-0.4c0.6-0.3,1.1-0.6,1.3-1V246h-3.8v-1h5V250z"/>
			<path fill="#C0C0C0" d="M205.9,247.4L205.9,247.4c0,1.5-0.4,2.6-1.3,3.4s-2.2,1.2-3.7,1.2c-1.6,0-2.9-0.6-3.8-1.7
				s-1.5-2.6-1.5-4.4v-2.3c0-1.8,0.5-3.3,1.5-4.4s2.2-1.7,3.8-1.7c1.5,0,2.8,0.4,3.7,1.2s1.4,1.9,1.4,3.4l0,0.1h-1.1
				c0-1.1-0.3-2-1-2.7c-0.7-0.6-1.7-1-2.9-1c-1.2,0-2.2,0.5-3,1.4c-0.8,1-1.1,2.2-1.1,3.7v2.3c0,1.5,0.4,2.8,1.1,3.7
				c0.8,1,1.7,1.4,3,1.4c1.2,0,2.2-0.3,2.9-0.9c0.7-0.6,1-1.5,1-2.7H205.9z"/>
			<path fill="#C0C0C0" d="M215.8,250.2L215.8,250.2l5.3-12.5h1.4v14.2h-1.2v-11.9l-0.1,0l-5.1,11.9h-0.8l-5.2-12.2l-0.1,0v12.2
				h-1.2v-14.2h1.6L215.8,250.2z"/>
		</g>
		<path fill="none" stroke="#C0C0C0" stroke-miterlimit="10" d="M219.8,261.7H109.1c-9.1,0-16.5-7.4-16.5-16.5v0
			c0-9.1,7.4-16.5,16.5-16.5h110.7c9.1,0,16.5,7.4,16.5,16.5v0C236.3,254.3,228.9,261.7,219.8,261.7z"/>
	</g>
	<g>
		<g>
			<line fill="none" stroke="#C0C0C0" stroke-miterlimit="10" x1="95.6" y1="205.4" x2="125.2" y2="224"/>
			<g>
				<polygon fill="#C0C0C0" points="123.2,225.7 128.2,225.9 125.9,221.5 				"/>
			</g>
		</g>
	</g>
	<g>
		<g>
			<line fill="none" stroke="#C0C0C0" stroke-miterlimit="10" x1="164.5" y1="205.4" x2="164.5" y2="222.3"/>
			<g>
				<polygon fill="#C0C0C0" points="162,221.6 164.5,225.9 167,221.6 				"/>
			</g>
		</g>
	</g>
	<g>
		<g>
			<line fill="none" stroke="#C0C0C0" stroke-miterlimit="10" x1="234.4" y1="205.4" x2="203" y2="224"/>
			<g>
				<polygon fill="#C0C0C0" points="202.3,221.5 199.9,225.9 204.9,225.8 				"/>
			</g>
		</g>
	</g>
	<g>
		<g>
			<path fill="#C0C0C0" d="M66.6,304.2L66.6,304.2c0,1.5-0.4,2.6-1.3,3.4s-2.2,1.2-3.7,1.2c-1.6,0-2.9-0.6-3.8-1.7s-1.5-2.6-1.5-4.4
				v-2.3c0-1.8,0.5-3.3,1.5-4.4s2.2-1.7,3.8-1.7c1.5,0,2.8,0.4,3.7,1.2s1.4,1.9,1.4,3.4l0,0.1h-1.1c0-1.1-0.3-2-1-2.7
				c-0.7-0.6-1.7-1-2.9-1c-1.2,0-2.2,0.5-3,1.4c-0.8,1-1.1,2.2-1.1,3.7v2.3c0,1.5,0.4,2.8,1.1,3.7c0.8,1,1.7,1.4,3,1.4
				c1.2,0,2.2-0.3,2.9-0.9c0.7-0.6,1-1.5,1-2.7H66.6z"/>
			<path fill="#C0C0C0" d="M71.1,308.6h-1.2v-14.2h1.2V308.6z"/>
			<path fill="#C0C0C0" d="M76.2,302.7v5.9H75v-14.2h4.9c1.5,0,2.6,0.4,3.5,1.1s1.2,1.8,1.2,3c0,1.3-0.4,2.3-1.2,3s-2,1.1-3.5,1.1
				H76.2z M76.2,301.7h3.7c1.2,0,2-0.3,2.6-0.9c0.6-0.6,0.9-1.3,0.9-2.2c0-0.9-0.3-1.7-0.9-2.3c-0.6-0.6-1.5-0.9-2.6-0.9h-3.7V301.7
				z"/>
			<path fill="#C0C0C0" d="M97.8,308.6h-1.2v-6.5h-8.1v6.5h-1.2v-14.2h1.2v6.7h8.1v-6.7h1.2V308.6z"/>
			<path fill="#C0C0C0" d="M108.9,301.8h-6.4v5.9h7.4v1h-8.5v-14.2h8.5v1h-7.3v5.3h6.4V301.8z"/>
			<path fill="#C0C0C0" d="M113.5,302.2v6.4h-1.2v-14.2h4.7c1.5,0,2.7,0.3,3.5,1s1.2,1.6,1.2,2.9c0,0.8-0.2,1.4-0.6,2
				c-0.4,0.6-1,1-1.8,1.3c0.9,0.2,1.5,0.6,1.9,1.2c0.4,0.6,0.6,1.3,0.6,2.1v1.3c0,0.4,0.1,0.8,0.2,1.2c0.1,0.4,0.3,0.6,0.5,0.9v0.2
				h-1.2c-0.2-0.2-0.4-0.6-0.5-1s-0.1-0.9-0.1-1.3V305c0-0.9-0.3-1.6-0.8-2.1c-0.6-0.5-1.3-0.8-2.4-0.8H113.5z M113.5,301.2h3.4
				c1.3,0,2.2-0.3,2.8-0.8c0.6-0.5,0.9-1.2,0.9-2.1c0-0.9-0.3-1.7-0.9-2.2c-0.6-0.5-1.5-0.8-2.7-0.8h-3.6V301.2z"/>
			<path fill="#C0C0C0" d="M134.3,295.4h-4.8v13.2h-1.2v-13.2h-5v-1h11V295.4z"/>
			<path fill="#C0C0C0" d="M144.2,301.8h-6.4v5.9h7.4v1h-8.5v-14.2h8.5v1h-7.3v5.3h6.4V301.8z"/>
			<path fill="#C0C0C0" d="M151.9,300.5l4-6.1h1.4l-4.7,7l4.9,7.2h-1.4l-4.2-6.3l-4.2,6.3h-1.4l4.9-7.2l-4.7-7h1.4L151.9,300.5z"/>
			<path fill="#C0C0C0" d="M169.5,295.4h-4.8v13.2h-1.2v-13.2h-5v-1h11V295.4z"/>
		</g>
		<rect x="44" y="285.5" fill="none" stroke="#C0C0C0" stroke-miterlimit="10" width="137.6" height="33"/>
	</g>
	<g>
		<g>
			<path fill="#C0C0C0" d="M230.1,295.4h-4.8v13.2h-1.2v-13.2h-5v-1h11V295.4z"/>
			<path fill="#C0C0C0" d="M239,304.7h-6.2l-1.4,4h-1.2l5.2-14.2h1.1l5.2,14.2h-1.2L239,304.7z M233.2,303.6h5.5l-2.7-7.5h-0.1
				L233.2,303.6z"/>
			<path fill="#C0C0C0" d="M253.8,306.7c-0.3,0.5-0.9,1-1.7,1.4c-0.8,0.4-1.9,0.7-3.2,0.7c-1.6,0-3-0.6-4-1.7
				c-1-1.1-1.6-2.6-1.6-4.4v-2.6c0-1.8,0.5-3.2,1.5-4.3c1-1.1,2.3-1.7,3.9-1.7c1.5,0,2.8,0.4,3.7,1.2c0.9,0.8,1.3,1.8,1.3,3.1l0,0.1
				h-1.1c0-1-0.3-1.8-1-2.4s-1.6-1-2.9-1c-1.3,0-2.3,0.5-3.1,1.4c-0.8,0.9-1.2,2.1-1.2,3.6v2.6c0,1.5,0.4,2.7,1.2,3.7
				c0.8,0.9,1.9,1.4,3.2,1.4c1,0,1.8-0.2,2.4-0.4c0.6-0.3,1.1-0.6,1.3-1v-3.6h-3.8v-1h5V306.7z"/>
		</g>
		<rect x="207.7" y="285.5" fill="none" stroke="#C0C0C0" stroke-miterlimit="10" width="62.7" height="33"/>
	</g>
	<g>
		<g>
			<line fill="none" stroke="#C0C0C0" stroke-miterlimit="10" x1="143.3" y1="261.7" x2="129.2" y2="280.3"/>
			<g>
				<polygon fill="#C0C0C0" points="127.6,278.2 127,283.1 131.6,281.2 				"/>
			</g>
		</g>
	</g>
	<g>
		<g>
			<line fill="none" stroke="#C0C0C0" stroke-miterlimit="10" x1="203" y1="261.7" x2="222.1" y2="280.6"/>
			<g>
				<polygon fill="#C0C0C0" points="219.8,281.9 224.6,283.1 223.3,278.3 				"/>
			</g>
		</g>
	</g>
	<g>
		<g>
			<path fill="#C0C0C0" d="M279.6,246v5.9h-1.2v-14.2h4.9c1.5,0,2.6,0.4,3.5,1.1s1.2,1.8,1.2,3c0,1.3-0.4,2.3-1.2,3s-2,1.1-3.5,1.1
				H279.6z M279.6,245h3.7c1.2,0,2-0.3,2.6-0.9c0.6-0.6,0.9-1.3,0.9-2.2c0-0.9-0.3-1.7-0.9-2.3c-0.6-0.6-1.5-0.9-2.6-0.9h-3.7V245z"
				/>
			<path fill="#C0C0C0" d="M291.9,250.9h7.3v1h-8.5v-14.2h1.2V250.9z"/>
			<path fill="#C0C0C0" d="M309.3,247.9h-6.2l-1.4,4h-1.2l5.2-14.2h1.1l5.2,14.2h-1.2L309.3,247.9z M303.5,246.9h5.5l-2.7-7.5h-0.1
				L303.5,246.9z"/>
			<path fill="#C0C0C0" d="M315.6,251.9h-1.2v-14.2h1.2V251.9z"/>
			<path fill="#C0C0C0" d="M330,251.9h-1.2l-8.1-12.2l-0.1,0v12.2h-1.2v-14.2h1.2l8.1,12.1l0.1,0v-12.1h1.2V251.9z"/>
			<path fill="#C0C0C0" d="M343,238.7h-4.8v13.2H337v-13.2h-5v-1h11V238.7z"/>
			<path fill="#C0C0C0" d="M352.9,245h-6.4v5.9h7.4v1h-8.5v-14.2h8.5v1h-7.3v5.3h6.4V245z"/>
			<path fill="#C0C0C0" d="M360.7,243.7l4-6.1h1.4l-4.7,7l4.9,7.2h-1.4l-4.2-6.3l-4.2,6.3h-1.4l4.9-7.2l-4.7-7h1.4L360.7,243.7z"/>
			<path fill="#C0C0C0" d="M378.3,238.7h-4.8v13.2h-1.2v-13.2h-5v-1h11V238.7z"/>
		</g>
		<g>
			<g>
				<polyline fill="none" stroke="#C0C0C0" stroke-miterlimit="10" points="391.3,255.7 391.3,261.7 385.3,261.7 				"/>
				
					<line fill="none" stroke="#C0C0C0" stroke-miterlimit="10" stroke-dasharray="12.8495,12.8495" x1="372.4" y1="261.7" x2="276" y2="261.7"/>
				<polyline fill="none" stroke="#C0C0C0" stroke-miterlimit="10" points="269.6,261.7 263.6,261.7 263.6,255.7 				"/>
				
					<line fill="none" stroke="#C0C0C0" stroke-miterlimit="10" stroke-dasharray="6.9932,6.9932" x1="263.6" y1="248.7" x2="263.6" y2="238.2"/>
				<polyline fill="none" stroke="#C0C0C0" stroke-miterlimit="10" points="263.6,234.7 263.6,228.7 269.6,228.7 				"/>
				
					<line fill="none" stroke="#C0C0C0" stroke-miterlimit="10" stroke-dasharray="12.8495,12.8495" x1="282.5" y1="228.7" x2="378.8" y2="228.7"/>
				<polyline fill="none" stroke="#C0C0C0" stroke-miterlimit="10" points="385.3,228.7 391.3,228.7 391.3,234.7 				"/>
				
					<line fill="none" stroke="#C0C0C0" stroke-miterlimit="10" stroke-dasharray="6.9932,6.9932" x1="391.3" y1="241.7" x2="391.3" y2="252.2"/>
			</g>
		</g>
	</g>
	<g>
		<g>
			<line fill="none" stroke="#C0C0C0" stroke-miterlimit="10" x1="263.6" y1="245.2" x2="242.6" y2="245.2"/>
			<g>
				<polygon fill="#C0C0C0" points="243.3,242.7 239,245.2 243.3,247.7 				"/>
			</g>
		</g>
	</g>
</g>
<g>
	<g>
		<rect x="45.7" y="516.9" fill="none" stroke="#C0C0C0" stroke-miterlimit="10" width="86.5" height="33"/>
		<g>
			<path fill="#C0C0C0" d="M61.4,537.3c0-0.5-0.2-0.9-0.6-1.3c-0.4-0.4-1.1-0.7-2.2-0.9c-1.2-0.3-2.2-0.6-2.8-1.1s-0.9-1.1-0.9-1.9
				c0-0.8,0.3-1.5,1-2c0.7-0.6,1.6-0.8,2.7-0.8c1.2,0,2.1,0.3,2.8,0.9c0.7,0.6,1,1.3,1,2.2l0,0.1h-1.1c0-0.6-0.2-1.1-0.7-1.5
				c-0.5-0.4-1.2-0.6-2-0.6c-0.8,0-1.5,0.2-1.9,0.6c-0.4,0.4-0.6,0.8-0.6,1.3c0,0.5,0.2,0.9,0.6,1.2c0.4,0.3,1.1,0.6,2.2,0.8
				c1.2,0.3,2.2,0.7,2.8,1.1c0.6,0.5,1,1.1,1,2c0,0.9-0.4,1.6-1.1,2.1c-0.7,0.5-1.7,0.8-2.8,0.8c-1.3,0-2.3-0.3-3-0.9
				c-0.7-0.6-1.1-1.3-1-2.2l0-0.1h1.1c0,0.8,0.4,1.3,0.9,1.7s1.3,0.5,2,0.5c0.8,0,1.5-0.2,2-0.6S61.4,537.8,61.4,537.3z"/>
			<path fill="#C0C0C0" d="M67,540h-1.2v-14.2H67V540z"/>
			<path fill="#C0C0C0" d="M75,537.5l0.3,1h0.1l0.3-1l4.3-11.7h1.3L75.8,540h-1.1l-5.3-14.2h1.3L75,537.5z"/>
			<path fill="#C0C0C0" d="M106.7,539.6c-0.5,0.2-1.5,0.6-2.8,0.6c-2.9,0-4.8-2-4.8-4.9c0-3,2-5.1,5.2-5.1c1,0,2,0.3,2.4,0.5
				l-0.4,1.4c-0.4-0.2-1.1-0.5-2-0.5c-2.2,0-3.4,1.6-3.4,3.7c0,2.2,1.4,3.6,3.4,3.6c1,0,1.7-0.3,2.2-0.5L106.7,539.6z"/>
			<path fill="#C0C0C0" d="M110.6,526.5V540h-1.7v-13.5H110.6z"/>
			<path fill="#C0C0C0" d="M116.6,540l-4.4-13.5h1.9l2.1,6.6c0.6,1.8,1.1,3.5,1.4,5h0c0.4-1.6,0.9-3.3,1.5-5l2.3-6.7h1.9l-4.8,13.5
				H116.6z"/>
		</g>
		<g>
			<path fill="#C0C0BF" d="M85,533.3c0,3,2.4,5.4,5.4,5.4c3,0,5.4-2.4,5.4-5.4s-2.4-5.4-5.4-5.4C87.4,527.9,85,530.3,85,533.3z
				 M90.4,538.1c-2.7,0-4.8-2.2-4.8-4.8s2.2-4.8,4.8-4.8c2.7,0,4.8,2.2,4.8,4.8C95.2,535.9,93.1,538.1,90.4,538.1z M90.6,533v-3.5
				h-0.5v3.5h-3.5v0.5h3.5v3.5h0.5v-3.5h3.5V533H90.6z"/>
		</g>
	</g>
	<g>
		<g>
			<path fill="#C0C0C0" d="M196.3,421.2c0-0.5-0.2-0.9-0.6-1.3c-0.4-0.4-1.1-0.7-2.2-0.9c-1.2-0.3-2.2-0.6-2.8-1.1s-0.9-1.1-0.9-1.9
				c0-0.8,0.3-1.5,1-2c0.7-0.6,1.6-0.8,2.7-0.8c1.2,0,2.1,0.3,2.8,0.9c0.7,0.6,1,1.3,1,2.2l0,0.1h-1.1c0-0.6-0.2-1.1-0.7-1.5
				c-0.5-0.4-1.2-0.6-2-0.6c-0.8,0-1.5,0.2-1.9,0.6c-0.4,0.4-0.6,0.8-0.6,1.3c0,0.5,0.2,0.9,0.6,1.2c0.4,0.3,1.1,0.6,2.2,0.8
				c1.2,0.3,2.2,0.7,2.8,1.1c0.6,0.5,1,1.1,1,2c0,0.9-0.4,1.6-1.1,2.1c-0.7,0.5-1.7,0.8-2.8,0.8c-1.3,0-2.3-0.3-3-0.9
				c-0.7-0.6-1.1-1.3-1-2.2l0-0.1h1.1c0,0.8,0.4,1.3,0.9,1.7s1.3,0.5,2,0.5c0.8,0,1.5-0.2,2-0.6S196.3,421.7,196.3,421.2z"/>
			<path fill="#C0C0C0" d="M208.4,420.4c0-0.7-0.3-1.3-0.9-1.8c-0.6-0.5-1.6-0.9-2.9-1.3c-1.5-0.4-2.7-0.9-3.5-1.6
				c-0.8-0.6-1.2-1.5-1.2-2.5c0-1.1,0.4-2,1.3-2.7s2-1,3.4-1c1.4,0,2.6,0.4,3.5,1.2c0.9,0.8,1.3,1.8,1.3,3l0,0.1h-1.1
				c0-0.9-0.3-1.7-1-2.3c-0.7-0.6-1.6-0.9-2.6-0.9c-1.1,0-2,0.3-2.6,0.8s-0.9,1.2-0.9,1.9c0,0.7,0.3,1.3,0.9,1.8
				c0.6,0.5,1.6,0.9,3,1.3c1.5,0.4,2.6,1,3.4,1.6s1.2,1.5,1.2,2.5c0,1.1-0.5,2-1.4,2.7c-0.9,0.7-2.1,1-3.5,1c-1.4,0-2.6-0.4-3.7-1.1
				c-1-0.7-1.5-1.8-1.5-3.1l0-0.1h1.1c0,1.1,0.4,1.9,1.2,2.5s1.8,0.8,2.8,0.8c1.1,0,2-0.2,2.7-0.7S208.4,421.2,208.4,420.4z"/>
			<path fill="#C0C0C0" d="M219.9,419.9h-6.2l-1.4,4H211l5.2-14.2h1.1l5.2,14.2h-1.2L219.9,419.9z M214.1,418.9h5.5l-2.7-7.5h-0.1
				L214.1,418.9z"/>
			<path fill="#C0C0C0" d="M225.9,422.9h7.3v1h-8.5v-14.2h1.2V422.9z"/>
			<path fill="#C0C0C0" d="M242.7,410.7h-4.8v13.2h-1.2v-13.2h-5v-1h11V410.7z"/>
			<path fill="#C0C0C0" d="M268.1,423.1c0.7,0,1.4-0.2,2-0.7s0.9-1.1,0.9-1.8h1l0,0.1c0,1-0.4,1.8-1.2,2.5s-1.7,1-2.8,1
				c-1.4,0-2.5-0.5-3.3-1.5c-0.8-1-1.2-2.3-1.2-3.8v-0.4c0-1.5,0.4-2.8,1.2-3.8c0.8-1,1.9-1.5,3.3-1.5c1.1,0,2.1,0.3,2.8,1
				c0.8,0.7,1.1,1.6,1.1,2.7l0,0.1h-1c0-0.8-0.3-1.5-0.8-2c-0.6-0.5-1.2-0.8-2-0.8c-1.1,0-1.9,0.4-2.5,1.2s-0.8,1.8-0.8,3.1v0.4
				c0,1.2,0.3,2.3,0.8,3.1C266.1,422.7,266.9,423.1,268.1,423.1z"/>
			<path fill="#C0C0C0" d="M282.8,420.4c0-0.7-0.3-1.3-0.9-1.8c-0.6-0.5-1.6-0.9-2.9-1.3c-1.5-0.4-2.7-0.9-3.5-1.6
				c-0.8-0.6-1.2-1.5-1.2-2.5c0-1.1,0.4-2,1.3-2.7s2-1,3.4-1c1.4,0,2.6,0.4,3.5,1.2c0.9,0.8,1.3,1.8,1.3,3l0,0.1h-1.1
				c0-0.9-0.3-1.7-1-2.3s-1.6-0.9-2.6-0.9c-1.1,0-2,0.3-2.6,0.8c-0.6,0.5-0.9,1.2-0.9,1.9c0,0.7,0.3,1.3,0.9,1.8
				c0.6,0.5,1.6,0.9,3,1.3c1.5,0.4,2.6,1,3.4,1.6s1.2,1.5,1.2,2.5c0,1.1-0.5,2-1.4,2.7c-0.9,0.7-2.1,1-3.5,1c-1.4,0-2.6-0.4-3.7-1.1
				c-1-0.7-1.5-1.8-1.5-3.1l0-0.1h1.1c0,1.1,0.4,1.9,1.2,2.5s1.8,0.8,2.8,0.8c1.1,0,2-0.2,2.7-0.7
				C282.4,421.9,282.8,421.2,282.8,420.4z"/>
			<path fill="#C0C0C0" d="M294.2,419.9H288l-1.4,4h-1.2l5.2-14.2h1.1l5.2,14.2h-1.2L294.2,419.9z M288.4,418.9h5.5l-2.7-7.5h-0.1
				L288.4,418.9z"/>
			<path fill="#C0C0C0" d="M300.2,422.9h7.3v1h-8.5v-14.2h1.2V422.9z"/>
			<path fill="#C0C0C0" d="M317.1,410.7h-4.8v13.2h-1.2v-13.2h-5v-1h11V410.7z"/>
		</g>
		<g>
			<path fill="#C0C0BF" d="M247.2,417.3c0,3,2.4,5.4,5.4,5.4c3,0,5.4-2.4,5.4-5.4c0-3-2.4-5.4-5.4-5.4
				C249.6,412,247.2,414.3,247.2,417.3z M252.6,422.2c-2.7,0-4.8-2.2-4.8-4.8s2.2-4.8,4.8-4.8c2.7,0,4.8,2.2,4.8,4.8
				C257.4,420,255.3,422.2,252.6,422.2z M252.8,417.1v-3.5h-0.5v3.5h-3.5v0.5h3.5v3.5h0.5v-3.5h3.5v-0.5H252.8z"/>
		</g>
		<rect x="179.9" y="400.8" fill="none" stroke="#C0C0C0" stroke-miterlimit="10" width="147" height="33"/>
	</g>
	<g>
		<g>
			<path fill="#C0C0C0" d="M236.6,537.4c0-0.5-0.2-0.9-0.6-1.3c-0.4-0.4-1.1-0.7-2.2-0.9c-1.2-0.3-2.2-0.6-2.8-1.1s-0.9-1.1-0.9-1.9
				c0-0.8,0.3-1.5,1-2s1.6-0.8,2.7-0.8c1.2,0,2.1,0.3,2.8,0.9c0.7,0.6,1,1.3,1,2.2l0,0.1h-1.1c0-0.6-0.2-1.1-0.7-1.5
				c-0.5-0.4-1.2-0.6-2-0.6c-0.8,0-1.5,0.2-1.9,0.6c-0.4,0.4-0.6,0.8-0.6,1.3c0,0.5,0.2,0.9,0.6,1.2c0.4,0.3,1.1,0.6,2.2,0.8
				c1.2,0.3,2.2,0.7,2.8,1.1c0.6,0.5,1,1.1,1,2c0,0.9-0.4,1.6-1.1,2.1c-0.7,0.5-1.7,0.8-2.8,0.8c-1.3,0-2.3-0.3-3-0.9
				c-0.7-0.6-1.1-1.3-1-2.2l0-0.1h1.1c0,0.8,0.4,1.3,0.9,1.7c0.6,0.3,1.3,0.5,2,0.5c0.8,0,1.5-0.2,2-0.6S236.6,537.9,236.6,537.4z"
				/>
			<path fill="#C0C0C0" d="M248.2,536.1h-6.2l-1.4,4h-1.2l5.2-14.2h1.1l5.2,14.2h-1.2L248.2,536.1z M242.3,535.1h5.5l-2.7-7.5H245
				L242.3,535.1z"/>
			<path fill="#C0C0C0" d="M253,540.1v-14.2h4.3c1.7,0,3.2,0.6,4.3,1.7c1.1,1.2,1.7,2.6,1.7,4.5v1.8c0,1.8-0.6,3.3-1.7,4.5
				c-1.1,1.2-2.6,1.7-4.3,1.7H253z M254.1,526.9v12.2h3.2c1.4,0,2.6-0.5,3.5-1.5c0.9-1,1.4-2.2,1.4-3.7v-1.9c0-1.5-0.5-2.7-1.4-3.7
				s-2.1-1.5-3.5-1.5H254.1z"/>
			<path fill="#C0C0C0" d="M273.7,536.1h-6.2l-1.4,4h-1.2l5.2-14.2h1.1l5.2,14.2h-1.2L273.7,536.1z M267.8,535.1h5.5l-2.7-7.5h-0.1
				L267.8,535.1z"/>
			<path fill="#C0C0C0" d="M286.9,526.9H282v13.2h-1.2v-13.2h-5v-1h11V526.9z"/>
			<path fill="#C0C0C0" d="M295.8,536.1h-6.2l-1.4,4h-1.2l5.2-14.2h1.1l5.2,14.2h-1.2L295.8,536.1z M290,535.1h5.5l-2.7-7.5h-0.1
				L290,535.1z"/>
			<path fill="#C0C0C0" d="M323.7,539.3c0.7,0,1.4-0.2,2-0.7s0.9-1.1,0.9-1.8h1l0,0.1c0,1-0.4,1.8-1.2,2.5s-1.7,1-2.8,1
				c-1.4,0-2.5-0.5-3.3-1.5c-0.8-1-1.2-2.3-1.2-3.8v-0.4c0-1.5,0.4-2.8,1.2-3.8c0.8-1,1.9-1.5,3.3-1.5c1.1,0,2.1,0.3,2.8,1
				c0.8,0.7,1.1,1.6,1.1,2.7l0,0.1h-1c0-0.8-0.3-1.5-0.8-2c-0.6-0.5-1.2-0.8-2-0.8c-1.1,0-1.9,0.4-2.5,1.2s-0.8,1.8-0.8,3.1v0.4
				c0,1.2,0.3,2.3,0.8,3.1C321.7,538.9,322.6,539.3,323.7,539.3z"/>
			<path fill="#C0C0C0" d="M337.8,536.1h-6.2l-1.4,4h-1.2l5.2-14.2h1.1l5.2,14.2h-1.2L337.8,536.1z M331.9,535.1h5.5l-2.7-7.5h-0.1
				L331.9,535.1z"/>
			<path fill="#C0C0C0" d="M342.6,540.1v-14.2h4.3c1.7,0,3.2,0.6,4.3,1.7c1.1,1.2,1.7,2.6,1.7,4.5v1.8c0,1.8-0.6,3.3-1.7,4.5
				c-1.1,1.2-2.6,1.7-4.3,1.7H342.6z M343.8,526.9v12.2h3.2c1.4,0,2.6-0.5,3.5-1.5c0.9-1,1.4-2.2,1.4-3.7v-1.9
				c0-1.5-0.5-2.7-1.4-3.7s-2.1-1.5-3.5-1.5H343.8z"/>
			<path fill="#C0C0C0" d="M363.3,536.1h-6.2l-1.4,4h-1.2l5.2-14.2h1.1l5.2,14.2h-1.2L363.3,536.1z M357.4,535.1h5.5l-2.7-7.5h-0.1
				L357.4,535.1z"/>
			<path fill="#C0C0C0" d="M376.5,526.9h-4.8v13.2h-1.2v-13.2h-5v-1h11V526.9z"/>
			<path fill="#C0C0C0" d="M385.5,536.1h-6.2l-1.4,4h-1.2l5.2-14.2h1.1l5.2,14.2h-1.2L385.5,536.1z M379.6,535.1h5.5l-2.7-7.5h-0.1
				L379.6,535.1z"/>
		</g>
		<g>
			<path fill="#C0C0BF" d="M304.1,533.4c0,3,2.4,5.4,5.4,5.4c3,0,5.4-2.4,5.4-5.4s-2.4-5.4-5.4-5.4
				C306.5,528,304.1,530.4,304.1,533.4z M309.5,538.2c-2.7,0-4.8-2.2-4.8-4.8s2.2-4.8,4.8-4.8c2.7,0,4.8,2.2,4.8,4.8
				C314.3,536,312.2,538.2,309.5,538.2z M309.7,533.1v-3.5h-0.5v3.5h-3.5v0.5h3.5v3.5h0.5v-3.5h3.5v-0.5H309.7z"/>
		</g>
		<rect x="217.5" y="516.9" fill="none" stroke="#C0C0C0" stroke-miterlimit="10" width="184.5" height="33"/>
	</g>
	<g>
		<g>
			<path fill="#C0C0C0" d="M108.5,418v5.9h-1.2v-14.2h4.9c1.5,0,2.6,0.4,3.5,1.1s1.2,1.8,1.2,3c0,1.3-0.4,2.3-1.2,3s-2,1.1-3.5,1.1
				H108.5z M108.5,417h3.7c1.2,0,2-0.3,2.6-0.9c0.6-0.6,0.9-1.3,0.9-2.2c0-0.9-0.3-1.7-0.9-2.3c-0.6-0.6-1.5-0.9-2.6-0.9h-3.7V417z"
				/>
			<path fill="#C0C0C0" d="M125.8,419.9h-6.2l-1.4,4h-1.2l5.2-14.2h1.1l5.2,14.2h-1.2L125.8,419.9z M119.9,418.9h5.5l-2.7-7.5h-0.1
				L119.9,418.9z"/>
			<path fill="#C0C0C0" d="M138.6,420.4c0-0.7-0.3-1.3-0.9-1.8c-0.6-0.5-1.6-0.9-2.9-1.3c-1.5-0.4-2.7-0.9-3.5-1.6
				c-0.8-0.6-1.2-1.5-1.2-2.5c0-1.1,0.4-2,1.3-2.7s2-1,3.4-1c1.4,0,2.6,0.4,3.5,1.2c0.9,0.8,1.3,1.8,1.3,3l0,0.1h-1.1
				c0-0.9-0.3-1.7-1-2.3c-0.7-0.6-1.6-0.9-2.6-0.9c-1.1,0-2,0.3-2.6,0.8s-0.9,1.2-0.9,1.9c0,0.7,0.3,1.3,0.9,1.8
				c0.6,0.5,1.6,0.9,3,1.3c1.5,0.4,2.6,1,3.4,1.6s1.2,1.5,1.2,2.5c0,1.1-0.5,2-1.4,2.7c-0.9,0.7-2.1,1-3.5,1c-1.4,0-2.6-0.4-3.7-1.1
				c-1-0.7-1.5-1.8-1.5-3.1l0-0.1h1.1c0,1.1,0.4,1.9,1.2,2.5s1.8,0.8,2.8,0.8c1.1,0,2-0.2,2.7-0.7S138.6,421.2,138.6,420.4z"/>
			<path fill="#C0C0C0" d="M150.7,420.4c0-0.7-0.3-1.3-0.9-1.8c-0.6-0.5-1.6-0.9-2.9-1.3c-1.5-0.4-2.7-0.9-3.5-1.6
				c-0.8-0.6-1.2-1.5-1.2-2.5c0-1.1,0.4-2,1.3-2.7s2-1,3.4-1c1.4,0,2.6,0.4,3.5,1.2c0.9,0.8,1.3,1.8,1.3,3l0,0.1h-1.1
				c0-0.9-0.3-1.7-1-2.3c-0.7-0.6-1.6-0.9-2.6-0.9c-1.1,0-2,0.3-2.6,0.8s-0.9,1.2-0.9,1.9c0,0.7,0.3,1.3,0.9,1.8
				c0.6,0.5,1.6,0.9,3,1.3c1.5,0.4,2.6,1,3.4,1.6s1.2,1.5,1.2,2.5c0,1.1-0.5,2-1.4,2.7c-0.9,0.7-2.1,1-3.5,1c-1.4,0-2.6-0.4-3.7-1.1
				c-1-0.7-1.5-1.8-1.5-3.1l0-0.1h1.1c0,1.1,0.4,1.9,1.2,2.5s1.8,0.8,2.8,0.8c1.1,0,2-0.2,2.7-0.7S150.7,421.2,150.7,420.4z"/>
		</g>
		<g>
			<g>
				<polyline fill="none" stroke="#C0C0C0" stroke-miterlimit="10" points="166.3,427.8 166.3,433.8 160.3,433.8 				"/>
				
					<line fill="none" stroke="#C0C0C0" stroke-miterlimit="10" stroke-dasharray="12.0397,12.0397" x1="148.3" y1="433.8" x2="106.1" y2="433.8"/>
				<polyline fill="none" stroke="#C0C0C0" stroke-miterlimit="10" points="100.1,433.8 94.1,433.8 94.1,427.8 				"/>
				
					<line fill="none" stroke="#C0C0C0" stroke-miterlimit="10" stroke-dasharray="6.9932,6.9932" x1="94.1" y1="420.8" x2="94.1" y2="410.3"/>
				<polyline fill="none" stroke="#C0C0C0" stroke-miterlimit="10" points="94.1,406.8 94.1,400.8 100.1,400.8 				"/>
				
					<line fill="none" stroke="#C0C0C0" stroke-miterlimit="10" stroke-dasharray="12.0397,12.0397" x1="112.2" y1="400.8" x2="154.3" y2="400.8"/>
				<polyline fill="none" stroke="#C0C0C0" stroke-miterlimit="10" points="160.3,400.8 166.3,400.8 166.3,406.8 				"/>
				
					<line fill="none" stroke="#C0C0C0" stroke-miterlimit="10" stroke-dasharray="6.9932,6.9932" x1="166.3" y1="413.8" x2="166.3" y2="424.3"/>
			</g>
		</g>
	</g>
	<g>
		<g>
			<path fill="#C0C0C0" d="M160.9,533.2h-1.5v6.7h-1.2v-14.2h1.2v6.5h1.5l5.6-6.5h1.3l0,0l-5.9,6.8l6.5,7.3l0,0H167L160.9,533.2z"/>
			<path fill="#C0C0C0" d="M178.1,533.1h-6.4v5.9h7.4v1h-8.5v-14.2h8.5v1h-7.3v5.3h6.4V533.1z"/>
			<path fill="#C0C0C0" d="M185.8,533.7l4.4-7.9h1.4l-5.2,9v5.2h-1.2v-5.2l-5.1-9h1.4L185.8,533.7z"/>
		</g>
		<g>
			<g>
				<polyline fill="none" stroke="#C0C0C0" stroke-miterlimit="10" points="206,543.9 206,549.9 200,549.9 				"/>
				
					<line fill="none" stroke="#C0C0C0" stroke-miterlimit="10" stroke-dasharray="9.7479,9.7479" x1="190.2" y1="549.9" x2="156.1" y2="549.9"/>
				<polyline fill="none" stroke="#C0C0C0" stroke-miterlimit="10" points="151.2,549.9 145.2,549.9 145.2,543.9 				"/>
				
					<line fill="none" stroke="#C0C0C0" stroke-miterlimit="10" stroke-dasharray="6.9932,6.9932" x1="145.2" y1="536.9" x2="145.2" y2="526.4"/>
				<polyline fill="none" stroke="#C0C0C0" stroke-miterlimit="10" points="145.2,522.9 145.2,516.9 151.2,516.9 				"/>
				
					<line fill="none" stroke="#C0C0C0" stroke-miterlimit="10" stroke-dasharray="9.7479,9.7479" x1="161" y1="516.9" x2="195.1" y2="516.9"/>
				<polyline fill="none" stroke="#C0C0C0" stroke-miterlimit="10" points="200,516.9 206,516.9 206,522.9 				"/>
				
					<line fill="none" stroke="#C0C0C0" stroke-miterlimit="10" stroke-dasharray="6.9932,6.9932" x1="206" y1="529.9" x2="206" y2="540.4"/>
			</g>
		</g>
	</g>
	<g>
		<g>
			<line fill="none" stroke="#C0C0C0" stroke-miterlimit="10" x1="138.2" y1="433.8" x2="171.3" y2="454.1"/>
			<g>
				<polygon fill="#C0C0C0" points="169.3,455.9 174.3,456 172,451.6 				"/>
			</g>
		</g>
	</g>
	<g>
		<g>
			<line fill="none" stroke="#C0C0C0" stroke-miterlimit="10" x1="214.1" y1="433.8" x2="181" y2="454.1"/>
			<g>
				<polygon fill="#C0C0C0" points="180.4,451.6 178,456 183,455.9 				"/>
			</g>
		</g>
	</g>
	<g>
		<g>
			<path fill="#C0C0C0" d="M141.1,475.6v5.9H140v-14.2h4.9c1.5,0,2.6,0.4,3.5,1.1s1.2,1.8,1.2,3c0,1.3-0.4,2.3-1.2,3s-2,1.1-3.5,1.1
				H141.1z M141.1,474.6h3.7c1.2,0,2-0.3,2.6-0.9c0.6-0.6,0.9-1.3,0.9-2.2c0-0.9-0.3-1.7-0.9-2.3c-0.6-0.6-1.5-0.9-2.6-0.9h-3.7
				V474.6z"/>
			<path fill="#C0C0C0" d="M152.3,481.5v-14.2h4.1c1.5,0,2.6,0.3,3.5,0.9s1.2,1.6,1.2,2.8c0,0.7-0.2,1.3-0.6,1.9
				c-0.4,0.5-0.9,0.9-1.6,1.1c0.9,0.1,1.6,0.5,2.2,1.2c0.6,0.7,0.9,1.5,0.9,2.4c0,1.3-0.4,2.2-1.2,2.9c-0.8,0.7-1.9,1-3.3,1H152.3z
				 M153.5,473.7h3.4c1,0,1.7-0.3,2.3-0.7s0.8-1.1,0.8-2c0-0.9-0.3-1.6-0.9-2s-1.5-0.7-2.6-0.7h-3V473.7z M153.5,474.6v5.9h4
				c1,0,1.9-0.3,2.5-0.8c0.6-0.5,0.9-1.2,0.9-2.2c0-0.9-0.3-1.5-0.9-2.1s-1.4-0.8-2.4-0.8h-0.2H153.5z"/>
			<path fill="#C0C0C0" d="M167.3,474.7h-1.5v6.7h-1.2v-14.2h1.2v6.5h1.5l5.6-6.5h1.3l0,0l-5.9,6.8l6.5,7.3l0,0h-1.4L167.3,474.7z"
				/>
			<path fill="#C0C0C0" d="M176.9,481.5v-14.2h4.3c1.7,0,3.2,0.6,4.3,1.7c1.1,1.2,1.7,2.6,1.7,4.5v1.8c0,1.8-0.6,3.3-1.7,4.5
				c-1.1,1.2-2.6,1.7-4.3,1.7H176.9z M178.1,468.3v12.2h3.2c1.4,0,2.6-0.5,3.5-1.5c0.9-1,1.4-2.2,1.4-3.7v-1.9
				c0-1.5-0.5-2.7-1.4-3.7s-2.1-1.5-3.5-1.5H178.1z"/>
			<path fill="#C0C0C0" d="M198.1,474.8h-6.5v6.7h-1.2v-14.2h8.7v1h-7.5v5.6h6.5V474.8z"/>
			<path fill="#C0C0C0" d="M209.7,481.5h-8.6v-0.9l4.7-5.5c0.8-1,1.4-1.8,1.7-2.4s0.5-1.2,0.5-1.9c0-0.9-0.2-1.5-0.7-2
				c-0.5-0.5-1.2-0.7-2.1-0.7c-1,0-1.8,0.3-2.3,0.9c-0.5,0.6-0.8,1.4-0.8,2.3h-1.1l0-0.1c0-1.2,0.3-2.1,1.1-2.9s1.8-1.2,3.2-1.2
				c1.2,0,2.2,0.3,2.9,1c0.7,0.7,1.1,1.6,1.1,2.8c0,0.8-0.2,1.5-0.7,2.3s-1.1,1.7-2,2.8l-3.8,4.5l0,0h7.2V481.5z"/>
		</g>
		<path fill="none" stroke="#C0C0C0" stroke-miterlimit="10" d="M205.4,496.4h-59.6c-10.5,0-19.1-8.5-19.1-19.1v0
			c0-10.5,8.5-19.1,19.1-19.1h59.6c10.5,0,19.1,8.5,19.1,19.1v0C224.4,487.9,215.9,496.4,205.4,496.4z"/>
		<g>
			<path fill="#C0C0C0" d="M143.3,487.1h-0.4V485h-2.6v2.1h-0.4v-4.6h0.4v2.2h2.6v-2.2h0.4V487.1z"/>
			<path fill="#C0C0C0" d="M146.6,486.6L146.6,486.6l1.7-4h0.5v4.6h-0.4v-3.8l0,0l-1.6,3.9h-0.3l-1.7-3.9l0,0v3.9h-0.4v-4.6h0.5
				L146.6,486.6z"/>
			<path fill="#C0C0C0" d="M152.4,485.8h-2l-0.5,1.3h-0.4l1.7-4.6h0.4l1.7,4.6h-0.4L152.4,485.8z M150.6,485.5h1.8l-0.9-2.4h0
				L150.6,485.5z"/>
			<path fill="#C0C0C0" d="M157.1,485.7L157.1,485.7c0,0.5-0.1,0.8-0.4,1.1c-0.3,0.3-0.7,0.4-1.2,0.4c-0.5,0-0.9-0.2-1.2-0.6
				s-0.5-0.8-0.5-1.4v-0.7c0-0.6,0.2-1.1,0.5-1.4s0.7-0.6,1.2-0.6c0.5,0,0.9,0.1,1.2,0.4c0.3,0.3,0.4,0.6,0.4,1.1l0,0h-0.4
				c0-0.4-0.1-0.7-0.3-0.9c-0.2-0.2-0.5-0.3-0.9-0.3c-0.4,0-0.7,0.2-1,0.5s-0.4,0.7-0.4,1.2v0.8c0,0.5,0.1,0.9,0.4,1.2
				s0.6,0.5,1,0.5c0.4,0,0.7-0.1,0.9-0.3c0.2-0.2,0.3-0.5,0.3-0.9H157.1z"/>
			<path fill="#C0C0C0" d="M159.8,485.3h-1.9V485h1.9V485.3z"/>
			<path fill="#C0C0C0" d="M163.4,486c0-0.2-0.1-0.4-0.3-0.6c-0.2-0.2-0.5-0.3-1-0.4c-0.5-0.1-0.9-0.3-1.1-0.5s-0.4-0.5-0.4-0.8
				c0-0.3,0.1-0.6,0.4-0.9s0.6-0.3,1.1-0.3c0.5,0,0.8,0.1,1.1,0.4s0.4,0.6,0.4,1l0,0h-0.4c0-0.3-0.1-0.6-0.3-0.8s-0.5-0.3-0.8-0.3
				c-0.4,0-0.6,0.1-0.8,0.3c-0.2,0.2-0.3,0.4-0.3,0.6c0,0.2,0.1,0.4,0.3,0.6c0.2,0.1,0.5,0.3,1,0.4c0.5,0.1,0.9,0.3,1.1,0.5
				c0.3,0.2,0.4,0.5,0.4,0.8c0,0.4-0.1,0.6-0.4,0.9s-0.7,0.3-1.1,0.3c-0.5,0-0.8-0.1-1.2-0.3c-0.3-0.2-0.5-0.6-0.5-1l0,0h0.3
				c0,0.4,0.1,0.6,0.4,0.8c0.3,0.2,0.6,0.3,0.9,0.3c0.4,0,0.6-0.1,0.9-0.2C163.3,486.5,163.4,486.3,163.4,486z"/>
			<path fill="#C0C0C0" d="M168.1,487.1h-0.4V485h-2.6v2.1h-0.4v-4.6h0.4v2.2h2.6v-2.2h0.4V487.1z"/>
			<path fill="#C0C0C0" d="M171.7,485.8h-2l-0.5,1.3h-0.4l1.7-4.6h0.4l1.7,4.6h-0.4L171.7,485.8z M169.8,485.5h1.8l-0.9-2.4h0
				L169.8,485.5z"/>
			<path fill="#C0C0C0" d="M175.9,487.1h-2.8v-0.3l1.5-1.8c0.3-0.3,0.5-0.6,0.6-0.8c0.1-0.2,0.2-0.4,0.2-0.6c0-0.3-0.1-0.5-0.2-0.7
				c-0.1-0.2-0.4-0.2-0.7-0.2c-0.3,0-0.6,0.1-0.8,0.3c-0.2,0.2-0.3,0.4-0.3,0.7h-0.4l0,0c0-0.4,0.1-0.7,0.4-0.9
				c0.3-0.3,0.6-0.4,1-0.4c0.4,0,0.7,0.1,0.9,0.3c0.2,0.2,0.3,0.5,0.3,0.9c0,0.2-0.1,0.5-0.2,0.7s-0.4,0.5-0.7,0.9l-1.2,1.4l0,0h2.3
				V487.1z"/>
			<path fill="#C0C0C0" d="M176.8,485.1l0.3-2.5h2.2v0.3h-1.9l-0.2,1.6c0.1-0.1,0.2-0.2,0.4-0.2c0.1-0.1,0.3-0.1,0.6-0.1
				c0.4,0,0.7,0.1,0.9,0.4c0.2,0.3,0.4,0.6,0.4,1.1c0,0.5-0.1,0.8-0.3,1.1c-0.2,0.3-0.6,0.4-1,0.4c-0.4,0-0.7-0.1-0.9-0.3
				c-0.3-0.2-0.4-0.5-0.4-0.9l0,0h0.3c0,0.3,0.1,0.5,0.3,0.7c0.2,0.2,0.4,0.2,0.7,0.2c0.3,0,0.6-0.1,0.8-0.3
				c0.2-0.2,0.3-0.5,0.3-0.9c0-0.3-0.1-0.6-0.3-0.8c-0.2-0.2-0.4-0.3-0.7-0.3c-0.3,0-0.5,0-0.7,0.1c-0.2,0.1-0.3,0.2-0.3,0.4
				L176.8,485.1z"/>
			<path fill="#C0C0C0" d="M181.8,482.5c0.2,0,0.3,0,0.5,0.1c0.2,0,0.3,0.1,0.4,0.2l-0.1,0.3c-0.1-0.1-0.3-0.1-0.4-0.1
				c-0.1,0-0.3,0-0.5,0c-0.3,0-0.6,0.1-0.8,0.4c-0.2,0.3-0.3,0.6-0.3,1v0.6c0.1-0.2,0.3-0.3,0.5-0.4c0.2-0.1,0.4-0.2,0.7-0.2
				c0.4,0,0.7,0.1,0.9,0.4c0.2,0.3,0.3,0.6,0.3,1.1c0,0.4-0.1,0.8-0.4,1.1c-0.3,0.3-0.6,0.4-1,0.4c-0.4,0-0.8-0.2-1-0.5
				s-0.4-0.7-0.4-1.3v-1.2c0-0.5,0.1-0.9,0.4-1.2S181.3,482.5,181.8,482.5z M181.7,484.5c-0.2,0-0.5,0.1-0.7,0.2s-0.3,0.3-0.4,0.5
				v0.2c0,0.4,0.1,0.8,0.3,1s0.4,0.4,0.8,0.4c0.3,0,0.6-0.1,0.7-0.3c0.2-0.2,0.3-0.5,0.3-0.8c0-0.4-0.1-0.7-0.3-0.9
				C182.3,484.6,182,484.5,181.7,484.5z"/>
			<path fill="#C0C0C0" d="M190.4,485.5c0,0.5-0.1,0.8-0.4,1.2c-0.2,0.3-0.6,0.5-1,0.5c-0.2,0-0.3-0.1-0.4-0.2
				c-0.1-0.1-0.2-0.3-0.2-0.4c-0.1,0.2-0.2,0.4-0.4,0.5s-0.4,0.2-0.6,0.2c-0.3,0-0.5-0.1-0.6-0.4s-0.2-0.6-0.2-1
				c0-0.5,0.2-1,0.4-1.3c0.2-0.3,0.5-0.5,0.9-0.5c0.2,0,0.4,0,0.5,0.1s0.3,0.1,0.4,0.3l0,0h0l-0.2,1.8c0,0.3,0,0.5,0.1,0.6
				c0.1,0.1,0.2,0.2,0.3,0.2c0.3,0,0.5-0.1,0.7-0.4c0.2-0.3,0.3-0.6,0.3-1c0-0.8-0.1-1.4-0.5-1.9s-0.9-0.7-1.7-0.7
				c-0.7,0-1.2,0.2-1.7,0.7s-0.7,1.1-0.7,1.9c0,0.8,0.1,1.4,0.5,1.9s0.9,0.7,1.6,0.7c0.2,0,0.4,0,0.6-0.1c0.2,0,0.3-0.1,0.5-0.2
				l0.1,0.2c-0.1,0.1-0.3,0.2-0.5,0.2c-0.2,0-0.4,0.1-0.6,0.1c-0.8,0-1.4-0.3-1.8-0.8c-0.4-0.5-0.6-1.2-0.6-2.1
				c0-0.9,0.3-1.6,0.8-2.1c0.5-0.5,1.1-0.8,1.9-0.8c0.8,0,1.4,0.3,1.8,0.8C190.3,483.9,190.5,484.6,190.4,485.5z M187,485.8
				c0,0.3,0,0.6,0.1,0.8c0.1,0.2,0.2,0.3,0.4,0.3c0.2,0,0.3,0,0.5-0.1c0.1-0.1,0.3-0.3,0.4-0.5c0,0,0,0,0,0c0,0,0,0,0,0l0.1-1.7
				c-0.1,0-0.1-0.1-0.2-0.1c-0.1,0-0.2,0-0.3,0c-0.3,0-0.5,0.1-0.7,0.4C187.2,485,187.1,485.3,187,485.8z"/>
			<path fill="#C0C0C0" d="M194.1,484.6c0.3,0,0.6-0.1,0.8-0.2c0.2-0.2,0.3-0.4,0.3-0.6c0-0.3-0.1-0.5-0.2-0.7
				c-0.2-0.2-0.4-0.3-0.7-0.3c-0.3,0-0.5,0.1-0.7,0.3c-0.2,0.2-0.3,0.4-0.3,0.7h-0.4l0,0c0-0.4,0.1-0.7,0.4-0.9
				c0.3-0.2,0.6-0.4,1-0.4c0.4,0,0.7,0.1,1,0.3c0.2,0.2,0.4,0.5,0.4,0.9c0,0.2-0.1,0.4-0.2,0.6c-0.1,0.2-0.3,0.3-0.5,0.4
				c0.3,0.1,0.5,0.2,0.6,0.4c0.1,0.2,0.2,0.4,0.2,0.7c0,0.4-0.1,0.7-0.4,1c-0.3,0.2-0.6,0.3-1,0.3c-0.4,0-0.7-0.1-1-0.3
				c-0.3-0.2-0.4-0.5-0.4-0.9l0,0h0.4c0,0.3,0.1,0.5,0.3,0.7c0.2,0.2,0.5,0.3,0.8,0.3c0.3,0,0.6-0.1,0.7-0.3
				c0.2-0.2,0.3-0.4,0.3-0.7c0-0.3-0.1-0.6-0.3-0.7s-0.5-0.2-0.8-0.2h-0.4v-0.3H194.1z"/>
			<path fill="#C0C0C0" d="M199.2,485.5c0,0.5-0.1,0.9-0.4,1.2c-0.3,0.3-0.6,0.4-1,0.4s-0.8-0.2-1-0.5s-0.4-0.7-0.4-1.2v-1.3
				c0-0.5,0.1-0.9,0.4-1.2c0.3-0.3,0.6-0.5,1-0.5s0.8,0.2,1,0.5c0.3,0.3,0.4,0.7,0.4,1.2V485.5z M198.8,484.1c0-0.4-0.1-0.7-0.3-1
				c-0.2-0.2-0.4-0.4-0.8-0.4s-0.6,0.1-0.8,0.4c-0.2,0.2-0.3,0.6-0.3,1v1.5c0,0.4,0.1,0.7,0.3,1c0.2,0.2,0.4,0.4,0.8,0.4
				c0.3,0,0.6-0.1,0.8-0.4c0.2-0.2,0.3-0.6,0.3-1V484.1z"/>
			<path fill="#C0C0C0" d="M202.7,485.5c0,0.5-0.1,0.9-0.4,1.2c-0.3,0.3-0.6,0.4-1,0.4s-0.8-0.2-1-0.5s-0.4-0.7-0.4-1.2v-1.3
				c0-0.5,0.1-0.9,0.4-1.2c0.3-0.3,0.6-0.5,1-0.5s0.8,0.2,1,0.5c0.3,0.3,0.4,0.7,0.4,1.2V485.5z M202.3,484.1c0-0.4-0.1-0.7-0.3-1
				c-0.2-0.2-0.4-0.4-0.8-0.4s-0.6,0.1-0.8,0.4c-0.2,0.2-0.3,0.6-0.3,1v1.5c0,0.4,0.1,0.7,0.3,1c0.2,0.2,0.4,0.4,0.8,0.4
				c0.3,0,0.6-0.1,0.8-0.4c0.2-0.2,0.3-0.6,0.3-1V484.1z"/>
			<path fill="#C0C0C0" d="M206.3,485.5c0,0.5-0.1,0.9-0.4,1.2c-0.3,0.3-0.6,0.4-1,0.4s-0.8-0.2-1-0.5s-0.4-0.7-0.4-1.2v-1.3
				c0-0.5,0.1-0.9,0.4-1.2c0.3-0.3,0.6-0.5,1-0.5s0.8,0.2,1,0.5c0.3,0.3,0.4,0.7,0.4,1.2V485.5z M205.9,484.1c0-0.4-0.1-0.7-0.3-1
				c-0.2-0.2-0.4-0.4-0.8-0.4s-0.6,0.1-0.8,0.4c-0.2,0.2-0.3,0.6-0.3,1v1.5c0,0.4,0.1,0.7,0.3,1c0.2,0.2,0.4,0.4,0.8,0.4
				c0.3,0,0.6-0.1,0.8-0.4c0.2-0.2,0.3-0.6,0.3-1V484.1z"/>
			<path fill="#C0C0C0" d="M209.9,485.5c0,0.5-0.1,0.9-0.4,1.2c-0.3,0.3-0.6,0.4-1,0.4s-0.8-0.2-1-0.5s-0.4-0.7-0.4-1.2v-1.3
				c0-0.5,0.1-0.9,0.4-1.2c0.3-0.3,0.6-0.5,1-0.5s0.8,0.2,1,0.5c0.3,0.3,0.4,0.7,0.4,1.2V485.5z M209.5,484.1c0-0.4-0.1-0.7-0.3-1
				c-0.2-0.2-0.4-0.4-0.8-0.4s-0.6,0.1-0.8,0.4c-0.2,0.2-0.3,0.6-0.3,1v1.5c0,0.4,0.1,0.7,0.3,1c0.2,0.2,0.4,0.4,0.8,0.4
				c0.3,0,0.6-0.1,0.8-0.4c0.2-0.2,0.3-0.6,0.3-1V484.1z"/>
		</g>
	</g>
	<g>
		<g>
			<line fill="none" stroke="#C0C0C0" stroke-miterlimit="10" x1="175.6" y1="496.4" x2="175.6" y2="513.3"/>
			<g>
				<polygon fill="#C0C0C0" points="173.1,512.6 175.6,516.9 178.1,512.6 				"/>
			</g>
		</g>
	</g>
	<g>
		<g>
			<path fill="#C0C0C0" d="M124,592.3h-6.2l-1.4,4h-1.2l5.2-14.2h1.1l5.2,14.2h-1.2L124,592.3z M118.1,591.3h5.5l-2.7-7.5h-0.1
				L118.1,591.3z"/>
			<path fill="#C0C0C0" d="M136.3,589.4H130v5.9h7.4v1h-8.5v-14.2h8.5v1H130v5.3h6.4V589.4z"/>
			<path fill="#C0C0C0" d="M147.8,592.9c0-0.7-0.3-1.3-0.9-1.8c-0.6-0.5-1.6-0.9-2.9-1.3c-1.5-0.4-2.7-0.9-3.5-1.6
				c-0.8-0.6-1.2-1.5-1.2-2.5c0-1.1,0.4-2,1.3-2.7s2-1,3.4-1c1.4,0,2.6,0.4,3.5,1.2c0.9,0.8,1.3,1.8,1.3,3l0,0.1h-1.1
				c0-0.9-0.3-1.7-1-2.3s-1.6-0.9-2.6-0.9c-1.1,0-2,0.3-2.6,0.8c-0.6,0.5-0.9,1.2-0.9,1.9c0,0.7,0.3,1.3,0.9,1.8
				c0.6,0.5,1.6,0.9,3,1.3c1.5,0.4,2.6,1,3.4,1.6s1.2,1.5,1.2,2.5c0,1.1-0.5,2-1.4,2.7c-0.9,0.7-2.1,1-3.5,1c-1.4,0-2.6-0.4-3.7-1.1
				c-1-0.7-1.5-1.8-1.5-3.1l0-0.1h1.1c0,1.1,0.4,1.9,1.2,2.5s1.8,0.8,2.8,0.8c1.1,0,2-0.2,2.7-0.7
				C147.5,594.3,147.8,593.6,147.8,592.9z"/>
			<path fill="#C0C0C0" d="M160.2,596.3h-8.6v-0.9l4.7-5.5c0.8-1,1.4-1.8,1.7-2.4c0.3-0.6,0.5-1.2,0.5-1.9c0-0.9-0.2-1.5-0.7-2
				c-0.5-0.5-1.2-0.7-2.1-0.7c-1,0-1.8,0.3-2.3,0.9c-0.5,0.6-0.8,1.4-0.8,2.3h-1.1l0-0.1c0-1.2,0.3-2.1,1.1-2.9
				c0.8-0.8,1.8-1.2,3.2-1.2c1.2,0,2.2,0.3,2.9,1c0.7,0.7,1.1,1.6,1.1,2.8c0,0.8-0.2,1.5-0.7,2.3s-1.1,1.7-2,2.8l-3.8,4.5l0,0h7.2
				V596.3z"/>
			<path fill="#C0C0C0" d="M163,589.9l0.8-7.8h6.9v1.1h-5.9l-0.5,5.1c0.4-0.3,0.8-0.6,1.2-0.8c0.4-0.2,1-0.3,1.7-0.3
				c1.2,0,2.2,0.4,2.9,1.2c0.7,0.8,1.1,1.9,1.1,3.3c0,1.4-0.4,2.6-1.1,3.4c-0.7,0.9-1.8,1.3-3.2,1.3c-1.2,0-2.1-0.3-2.9-1
				c-0.8-0.7-1.2-1.6-1.1-2.9l0-0.1h1.1c0,1,0.3,1.7,0.8,2.2c0.5,0.5,1.3,0.8,2.2,0.8c1.1,0,1.9-0.3,2.4-1c0.5-0.6,0.8-1.6,0.8-2.8
				c0-1.1-0.3-1.9-0.8-2.5c-0.5-0.6-1.3-0.9-2.2-0.9c-0.9,0-1.6,0.1-2.1,0.4c-0.5,0.3-0.8,0.7-1,1.3L163,589.9z"/>
			<path fill="#C0C0C0" d="M178.3,581.9c0.5,0,1.1,0.1,1.6,0.2c0.5,0.1,1,0.3,1.4,0.5l-0.3,1c-0.4-0.2-0.8-0.4-1.2-0.5
				c-0.4-0.1-0.9-0.2-1.4-0.2c-1,0-1.8,0.4-2.5,1.2c-0.6,0.8-1,1.8-1,3.1v2c0.4-0.5,0.9-1,1.5-1.3s1.3-0.5,2-0.5
				c1.3,0,2.2,0.4,2.9,1.2c0.7,0.8,1.1,1.9,1.1,3.3c0,1.4-0.4,2.5-1.2,3.4c-0.8,0.9-1.8,1.3-3.1,1.3c-1.3,0-2.3-0.5-3.2-1.5
				s-1.2-2.3-1.2-3.9v-3.8c0-1.6,0.4-2.9,1.3-3.9S177,581.9,178.3,581.9z M178.1,588.3c-0.8,0-1.4,0.2-2,0.6s-1,0.9-1.2,1.6v0.7
				c0,1.3,0.3,2.4,0.9,3.1c0.6,0.8,1.4,1.2,2.3,1.2c1,0,1.7-0.3,2.3-1c0.6-0.7,0.8-1.6,0.8-2.6c0-1.1-0.3-2-0.8-2.7
				S179.2,588.3,178.1,588.3z"/>
			<path fill="#C0C0C0" d="M190.3,590.7h-5.8v-1h5.8V590.7z"/>
			<path fill="#C0C0C0" d="M203.6,594.4c-0.3,0.5-0.9,1-1.7,1.4c-0.8,0.4-1.9,0.7-3.2,0.7c-1.6,0-3-0.6-4-1.7
				c-1-1.1-1.6-2.6-1.6-4.4v-2.6c0-1.8,0.5-3.2,1.5-4.3c1-1.1,2.3-1.7,3.9-1.7c1.5,0,2.8,0.4,3.7,1.2c0.9,0.8,1.3,1.8,1.3,3.1l0,0.1
				h-1.1c0-1-0.3-1.8-1-2.4s-1.6-1-2.9-1c-1.3,0-2.3,0.5-3.1,1.4c-0.8,0.9-1.2,2.1-1.2,3.6v2.6c0,1.5,0.4,2.7,1.2,3.7
				c0.8,0.9,1.9,1.4,3.2,1.4c1,0,1.8-0.2,2.4-0.4c0.6-0.3,1.1-0.6,1.3-1v-3.6h-3.8v-1h5V594.4z"/>
			<path fill="#C0C0C0" d="M217,591.9L217,591.9c0,1.5-0.4,2.6-1.3,3.4s-2.2,1.2-3.7,1.2c-1.6,0-2.9-0.6-3.8-1.7s-1.5-2.6-1.5-4.4
				v-2.3c0-1.8,0.5-3.3,1.5-4.4s2.2-1.7,3.8-1.7c1.5,0,2.8,0.4,3.7,1.2s1.4,1.9,1.4,3.4l0,0.1h-1.1c0-1.1-0.3-2-1-2.7
				c-0.7-0.6-1.7-1-2.9-1c-1.2,0-2.2,0.5-3,1.4c-0.8,1-1.1,2.2-1.1,3.7v2.3c0,1.5,0.4,2.8,1.1,3.7c0.8,1,1.7,1.4,3,1.4
				c1.2,0,2.2-0.3,2.9-0.9c0.7-0.6,1-1.5,1-2.7H217z"/>
			<path fill="#C0C0C0" d="M226.9,594.6L226.9,594.6l5.3-12.5h1.4v14.2h-1.2v-11.9l-0.1,0l-5.1,11.9h-0.8l-5.2-12.2l-0.1,0v12.2
				h-1.2v-14.2h1.6L226.9,594.6z"/>
		</g>
		<path fill="none" stroke="#C0C0C0" stroke-miterlimit="10" d="M230.9,606.1H120.3c-9.1,0-16.5-7.4-16.5-16.5v0
			c0-9.1,7.4-16.5,16.5-16.5h110.7c9.1,0,16.5,7.4,16.5,16.5v0C247.4,598.7,240,606.1,230.9,606.1z"/>
	</g>
	<g>
		<g>
			<line fill="none" stroke="#C0C0C0" stroke-miterlimit="10" x1="106.7" y1="549.9" x2="136.3" y2="568.4"/>
			<g>
				<polygon fill="#C0C0C0" points="134.3,570.1 139.3,570.3 137,565.9 				"/>
			</g>
		</g>
	</g>
	<g>
		<g>
			<line fill="none" stroke="#C0C0C0" stroke-miterlimit="10" x1="175.6" y1="549.9" x2="175.6" y2="566.7"/>
			<g>
				<polygon fill="#C0C0C0" points="173.1,566 175.6,570.3 178.1,566 				"/>
			</g>
		</g>
	</g>
	<g>
		<g>
			<line fill="none" stroke="#C0C0C0" stroke-miterlimit="10" x1="245.5" y1="549.9" x2="214.1" y2="568.5"/>
			<g>
				<polygon fill="#C0C0C0" points="213.5,566 211,570.3 216,570.3 				"/>
			</g>
		</g>
	</g>
	<g>
		<g>
			<path fill="#C0C0C0" d="M297.3,591.9L297.3,591.9c0,1.5-0.4,2.6-1.3,3.4s-2.2,1.2-3.7,1.2c-1.6,0-2.9-0.6-3.8-1.7
				s-1.5-2.6-1.5-4.4v-2.3c0-1.8,0.5-3.3,1.5-4.4s2.2-1.7,3.8-1.7c1.5,0,2.8,0.4,3.7,1.2s1.4,1.9,1.4,3.4l0,0.1h-1.1
				c0-1.1-0.3-2-1-2.7c-0.7-0.6-1.7-1-2.9-1c-1.2,0-2.2,0.5-3,1.4c-0.8,1-1.1,2.2-1.1,3.7v2.3c0,1.5,0.4,2.8,1.1,3.7
				c0.8,1,1.7,1.4,3,1.4c1.2,0,2.2-0.3,2.9-0.9c0.7-0.6,1-1.5,1-2.7H297.3z"/>
			<path fill="#C0C0C0" d="M301.8,596.3h-1.2v-14.2h1.2V596.3z"/>
			<path fill="#C0C0C0" d="M306.9,590.4v5.9h-1.2v-14.2h4.9c1.5,0,2.6,0.4,3.5,1.1s1.2,1.8,1.2,3c0,1.3-0.4,2.3-1.2,3
				s-2,1.1-3.5,1.1H306.9z M306.9,589.4h3.7c1.2,0,2-0.3,2.6-0.9c0.6-0.6,0.9-1.3,0.9-2.2c0-0.9-0.3-1.7-0.9-2.3
				c-0.6-0.6-1.5-0.9-2.6-0.9h-3.7V589.4z"/>
			<path fill="#C0C0C0" d="M328.5,596.3h-1.2v-6.5h-8.1v6.5h-1.2v-14.2h1.2v6.7h8.1v-6.7h1.2V596.3z"/>
			<path fill="#C0C0C0" d="M339.7,589.4h-6.4v5.9h7.4v1h-8.5v-14.2h8.5v1h-7.3v5.3h6.4V589.4z"/>
			<path fill="#C0C0C0" d="M344.3,589.9v6.4h-1.2v-14.2h4.7c1.5,0,2.7,0.3,3.5,1s1.2,1.6,1.2,2.9c0,0.8-0.2,1.4-0.6,2
				c-0.4,0.6-1,1-1.8,1.3c0.9,0.2,1.5,0.6,1.9,1.2c0.4,0.6,0.6,1.3,0.6,2.1v1.3c0,0.4,0.1,0.8,0.2,1.2c0.1,0.4,0.3,0.6,0.5,0.9v0.2
				H352c-0.2-0.2-0.4-0.6-0.5-1s-0.1-0.9-0.1-1.3v-1.3c0-0.9-0.3-1.6-0.8-2.1c-0.6-0.5-1.3-0.8-2.4-0.8H344.3z M344.3,588.9h3.4
				c1.3,0,2.2-0.3,2.8-0.8c0.6-0.5,0.9-1.2,0.9-2.1c0-0.9-0.3-1.7-0.9-2.2c-0.6-0.5-1.5-0.8-2.7-0.8h-3.6V588.9z"/>
			<path fill="#C0C0C0" d="M365,583.1h-4.8v13.2H359v-13.2h-5v-1h11V583.1z"/>
			<path fill="#C0C0C0" d="M374.9,589.4h-6.4v5.9h7.4v1h-8.5v-14.2h8.5v1h-7.3v5.3h6.4V589.4z"/>
			<path fill="#C0C0C0" d="M382.7,588.2l4-6.1h1.4l-4.7,7l4.9,7.2h-1.4l-4.2-6.3l-4.2,6.3h-1.4l4.9-7.2l-4.7-7h1.4L382.7,588.2z"/>
			<path fill="#C0C0C0" d="M400.3,583.1h-4.8v13.2h-1.2v-13.2h-5v-1h11V583.1z"/>
		</g>
		<rect x="274.8" y="573.1" fill="none" stroke="#C0C0C0" stroke-miterlimit="10" width="137.6" height="33"/>
	</g>
	<g>
		<g>
			<path fill="#C0C0C0" d="M35.9,583.1h-4.8v13.2h-1.2v-13.2h-5v-1h11V583.1z"/>
			<path fill="#C0C0C0" d="M44.8,592.3h-6.2l-1.4,4H36l5.2-14.2h1.1l5.2,14.2h-1.2L44.8,592.3z M39,591.3h5.5l-2.7-7.5h-0.1
				L39,591.3z"/>
			<path fill="#C0C0C0" d="M59.7,594.4c-0.3,0.5-0.9,1-1.7,1.4c-0.8,0.4-1.9,0.7-3.2,0.7c-1.6,0-3-0.6-4-1.7c-1-1.1-1.6-2.6-1.6-4.4
				v-2.6c0-1.8,0.5-3.2,1.5-4.3c1-1.1,2.3-1.7,3.9-1.7c1.5,0,2.8,0.4,3.7,1.2c0.9,0.8,1.3,1.8,1.3,3.1l0,0.1h-1.1c0-1-0.3-1.8-1-2.4
				s-1.6-1-2.9-1c-1.3,0-2.3,0.5-3.1,1.4c-0.8,0.9-1.2,2.1-1.2,3.6v2.6c0,1.5,0.4,2.7,1.2,3.7c0.8,0.9,1.9,1.4,3.2,1.4
				c1,0,1.8-0.2,2.4-0.4c0.6-0.3,1.1-0.6,1.3-1v-3.6h-3.8v-1h5V594.4z"/>
		</g>
		<rect x="13.5" y="573.1" fill="none" stroke="#C0C0C0" stroke-miterlimit="10" width="62.7" height="33"/>
	</g>
	<g>
		<g>
			<line fill="none" stroke="#C0C0C0" stroke-miterlimit="10" x1="175.6" y1="606.1" x2="175.6" y2="624"/>
			<g>
				<polygon fill="#C0C0C0" points="173.1,623.2 175.6,627.6 178.1,623.2 				"/>
			</g>
		</g>
	</g>
	<g>
		<g>
			<path fill="#C0C0C0" d="M126.7,647.2v5.9h-1.2v-14.2h4.9c1.5,0,2.6,0.4,3.5,1.1s1.2,1.8,1.2,3c0,1.3-0.4,2.3-1.2,3
				s-2,1.1-3.5,1.1H126.7z M126.7,646.2h3.7c1.2,0,2-0.3,2.6-0.9c0.6-0.6,0.9-1.3,0.9-2.2c0-0.9-0.3-1.7-0.9-2.3
				c-0.6-0.6-1.5-0.9-2.6-0.9h-3.7V646.2z"/>
			<path fill="#C0C0C0" d="M139,652.1h7.3v1h-8.5v-14.2h1.2V652.1z"/>
			<path fill="#C0C0C0" d="M156.5,649.1h-6.2l-1.4,4h-1.2l5.2-14.2h1.1l5.2,14.2h-1.2L156.5,649.1z M150.6,648.1h5.5l-2.7-7.5h-0.1
				L150.6,648.1z"/>
			<path fill="#C0C0C0" d="M162.8,653.1h-1.2v-14.2h1.2V653.1z"/>
			<path fill="#C0C0C0" d="M177.2,653.1H176l-8.1-12.2l-0.1,0v12.2h-1.2v-14.2h1.2L176,651l0.1,0v-12.1h1.2V653.1z"/>
			<path fill="#C0C0C0" d="M190.2,639.9h-4.8v13.2h-1.2v-13.2h-5v-1h11V639.9z"/>
			<path fill="#C0C0C0" d="M200,646.2h-6.4v5.9h7.4v1h-8.5v-14.2h8.5v1h-7.3v5.3h6.4V646.2z"/>
			<path fill="#C0C0C0" d="M207.8,644.9l4-6.1h1.4l-4.7,7l4.9,7.2H212l-4.2-6.3l-4.2,6.3h-1.4l4.9-7.2l-4.7-7h1.4L207.8,644.9z"/>
			<path fill="#C0C0C0" d="M225.4,639.9h-4.8v13.2h-1.2v-13.2h-5v-1h11V639.9z"/>
		</g>
		<g>
			<g>
				<polyline fill="none" stroke="#C0C0C0" stroke-miterlimit="10" points="238.4,656.9 238.4,662.9 232.4,662.9 				"/>
				
					<line fill="none" stroke="#C0C0C0" stroke-miterlimit="10" stroke-dasharray="12.8495,12.8495" x1="219.6" y1="662.9" x2="123.2" y2="662.9"/>
				<polyline fill="none" stroke="#C0C0C0" stroke-miterlimit="10" points="116.8,662.9 110.8,662.9 110.8,656.9 				"/>
				
					<line fill="none" stroke="#C0C0C0" stroke-miterlimit="10" stroke-dasharray="6.9932,6.9932" x1="110.8" y1="649.9" x2="110.8" y2="639.4"/>
				<polyline fill="none" stroke="#C0C0C0" stroke-miterlimit="10" points="110.8,635.9 110.8,629.9 116.8,629.9 				"/>
				
					<line fill="none" stroke="#C0C0C0" stroke-miterlimit="10" stroke-dasharray="12.8495,12.8495" x1="129.6" y1="629.9" x2="226" y2="629.9"/>
				<polyline fill="none" stroke="#C0C0C0" stroke-miterlimit="10" points="232.4,629.9 238.4,629.9 238.4,635.9 				"/>
				
					<line fill="none" stroke="#C0C0C0" stroke-miterlimit="10" stroke-dasharray="6.9932,6.9932" x1="238.4" y1="642.9" x2="238.4" y2="653.4"/>
			</g>
		</g>
	</g>
	<g>
		<g>
			<line fill="none" stroke="#C0C0C0" stroke-miterlimit="10" x1="274.8" y1="589.6" x2="253.7" y2="589.6"/>
			<g>
				<polygon fill="#C0C0C0" points="254.5,587.1 250.1,589.6 254.5,592.1 				"/>
			</g>
		</g>
	</g>
	<g>
		<g>
			<line fill="none" stroke="#C0C0C0" stroke-miterlimit="10" x1="76.2" y1="589.6" x2="97.2" y2="589.6"/>
			<g>
				<polygon fill="#C0C0C0" points="96.5,592.1 100.8,589.6 96.5,587.1 				"/>
			</g>
		</g>
	</g>
</g>
<g>
	<path fill="#C0C0C0" d="M133.6,28.7h-7.9V36h8.8v2.2h-11.4V18H134v2.2h-8.3v6.4h7.9V28.7z"/>
	<path fill="#C0C0C0" d="M137.9,38.2V18h2.8l6.5,10.2c1.5,2.4,2.7,4.5,3.6,6.6l0.1,0c-0.2-2.7-0.3-5.2-0.3-8.3V18h2.5v20.2h-2.6
		L144,28c-1.4-2.2-2.8-4.6-3.8-6.7l-0.1,0c0.1,2.5,0.2,5,0.2,8.3v8.6H137.9z"/>
	<path fill="#C0C0C0" d="M171.7,37.5c-1,0.5-2.9,1-5.3,1c-5.7,0-10-3.6-10-10.2c0-6.3,4.3-10.6,10.6-10.6c2.5,0,4.1,0.5,4.8,0.9
		l-0.6,2.1c-1-0.5-2.4-0.8-4.1-0.8c-4.7,0-7.9,3-7.9,8.3c0,4.9,2.8,8.1,7.8,8.1c1.6,0,3.2-0.3,4.3-0.8L171.7,37.5z"/>
	<path fill="#C0C0C0" d="M175,18.3c1.3-0.3,3.2-0.4,5-0.4c2.8,0,4.6,0.5,5.8,1.6c1,0.9,1.6,2.3,1.6,3.8c0,2.7-1.7,4.4-3.8,5.2v0.1
		c1.6,0.5,2.5,2,3,4.1c0.7,2.8,1.1,4.8,1.6,5.5h-2.7c-0.3-0.6-0.8-2.3-1.3-4.8c-0.6-2.8-1.7-3.8-4-3.9h-2.5v8.8H175V18.3z
		 M177.6,27.5h2.7c2.8,0,4.6-1.5,4.6-3.8c0-2.6-1.9-3.7-4.6-3.8c-1.3,0-2.2,0.1-2.6,0.2V27.5z"/>
	<path fill="#C0C0C0" d="M195.3,38.2v-8.6L188.9,18h3l2.8,5.6c0.8,1.5,1.4,2.8,2,4.2h0.1c0.6-1.3,1.3-2.6,2-4.2l2.9-5.6h3l-6.8,11.6
		v8.6H195.3z"/>
	<path fill="#C0C0C0" d="M206.8,18.2c1.3-0.2,2.9-0.4,5-0.4c2.6,0,4.5,0.6,5.7,1.7c1.1,1,1.8,2.4,1.8,4.2c0,1.8-0.5,3.3-1.6,4.3
		c-1.4,1.5-3.6,2.2-6.2,2.2c-0.8,0-1.5,0-2.1-0.2v8.1h-2.6V18.2z M209.4,28c0.6,0.2,1.3,0.2,2.2,0.2c3.1,0,5.1-1.5,5.1-4.3
		c0-2.7-1.9-4-4.8-4c-1.1,0-2,0.1-2.5,0.2V28z"/>
	<path fill="#C0C0C0" d="M226.6,20.2h-6.1V18h15v2.2h-6.2v18h-2.6V20.2z"/>
	<path fill="#C0C0C0" d="M240.3,18v20.2h-2.6V18H240.3z"/>
	<path fill="#C0C0C0" d="M262.1,27.9c0,7-4.2,10.6-9.4,10.6c-5.3,0-9.1-4.1-9.1-10.3c0-6.4,4-10.6,9.4-10.6
		C258.5,17.7,262.1,21.9,262.1,27.9z M246.4,28.2c0,4.3,2.3,8.2,6.4,8.2c4.1,0,6.5-3.8,6.5-8.4c0-4-2.1-8.2-6.4-8.2
		C248.6,19.8,246.4,23.8,246.4,28.2z"/>
	<path fill="#C0C0C0" d="M265.5,38.2V18h2.8l6.5,10.2c1.5,2.4,2.7,4.5,3.6,6.6l0.1,0c-0.2-2.7-0.3-5.2-0.3-8.3V18h2.5v20.2H278
		L271.6,28c-1.4-2.2-2.8-4.6-3.8-6.7l-0.1,0c0.2,2.5,0.2,5,0.2,8.3v8.6H265.5z"/>
</g>
<g>
	<path fill="#C0C0C0" d="M132,363.3c1.6-0.2,3.5-0.4,5.5-0.4c3.7,0,6.4,0.9,8.2,2.5c1.8,1.6,2.8,4,2.8,7.3c0,3.3-1,6-2.9,7.9
		c-1.9,1.9-5,2.9-8.9,2.9c-1.9,0-3.4-0.1-4.7-0.2V363.3z M134.6,381.1c0.7,0.1,1.6,0.2,2.6,0.2c5.6,0,8.6-3.1,8.6-8.6
		c0-4.8-2.7-7.8-8.2-7.8c-1.3,0-2.4,0.1-3.1,0.3V381.1z"/>
	<path fill="#C0C0C0" d="M162.4,373.7h-7.9v7.3h8.8v2.2H152V363h10.9v2.2h-8.3v6.4h7.9V373.7z"/>
	<path fill="#C0C0C0" d="M180.9,382.5c-1,0.5-2.9,1-5.3,1c-5.7,0-10-3.6-10-10.2c0-6.3,4.3-10.6,10.6-10.6c2.5,0,4.1,0.5,4.8,0.9
		l-0.6,2.1c-1-0.5-2.4-0.8-4.1-0.8c-4.7,0-7.9,3-7.9,8.3c0,4.9,2.8,8.1,7.8,8.1c1.6,0,3.2-0.3,4.3-0.8L180.9,382.5z"/>
	<path fill="#C0C0C0" d="M184.1,363.3c1.3-0.3,3.2-0.4,5-0.4c2.8,0,4.6,0.5,5.8,1.6c1,0.9,1.6,2.3,1.6,3.8c0,2.7-1.7,4.4-3.8,5.2
		v0.1c1.6,0.5,2.5,2,3,4.1c0.7,2.8,1.1,4.8,1.6,5.5h-2.7c-0.3-0.6-0.8-2.3-1.3-4.8c-0.6-2.8-1.7-3.8-4-3.9h-2.5v8.8h-2.6V363.3z
		 M186.7,372.5h2.7c2.8,0,4.6-1.5,4.6-3.8c0-2.6-1.9-3.7-4.6-3.8c-1.3,0-2.2,0.1-2.6,0.2V372.5z"/>
	<path fill="#C0C0C0" d="M204.4,383.2v-8.6L198,363h3l2.8,5.6c0.8,1.5,1.4,2.8,2,4.2h0.1c0.6-1.3,1.3-2.6,2-4.2l2.9-5.6h3l-6.8,11.6
		v8.6H204.4z"/>
	<path fill="#C0C0C0" d="M215.9,363.2c1.3-0.2,2.9-0.4,5-0.4c2.6,0,4.5,0.6,5.7,1.7c1.1,1,1.8,2.4,1.8,4.2c0,1.8-0.5,3.3-1.6,4.3
		c-1.4,1.5-3.6,2.2-6.2,2.2c-0.8,0-1.5,0-2.1-0.2v8.1h-2.6V363.2z M218.5,373c0.6,0.2,1.3,0.2,2.2,0.2c3.1,0,5.1-1.5,5.1-4.3
		c0-2.7-1.9-4-4.8-4c-1.1,0-2,0.1-2.5,0.2V373z"/>
	<path fill="#C0C0C0" d="M235.7,365.2h-6.1V363h15v2.2h-6.2v18h-2.6V365.2z"/>
	<path fill="#C0C0C0" d="M249.4,363v20.2h-2.6V363H249.4z"/>
	<path fill="#C0C0C0" d="M271.2,372.9c0,7-4.2,10.6-9.4,10.6c-5.3,0-9.1-4.1-9.1-10.3c0-6.4,4-10.6,9.4-10.6
		C267.7,362.7,271.2,366.9,271.2,372.9z M255.5,373.2c0,4.3,2.3,8.2,6.4,8.2c4.1,0,6.5-3.8,6.5-8.4c0-4-2.1-8.2-6.4-8.2
		C257.7,364.8,255.5,368.8,255.5,373.2z"/>
	<path fill="#C0C0C0" d="M274.6,383.2V363h2.8l6.5,10.2c1.5,2.4,2.7,4.5,3.6,6.6l0.1,0c-0.2-2.7-0.3-5.2-0.3-8.3V363h2.5v20.2h-2.6
		l-6.4-10.3c-1.4-2.2-2.8-4.6-3.8-6.7l-0.1,0c0.2,2.5,0.2,5,0.2,8.3v8.6H274.6z"/>
</g>
<g>
</g>
<g>
</g>
<g>
</g>
<g>
</g>
<g>
</g>
<g>
</g>
<g>
</g>
</svg>
