<?xml version="1.0" encoding="utf-8"?>
<!-- Generator: Adobe Illustrator 18.0.0, SVG Export Plug-In . SVG Version: 6.00 Build 0)  -->
<!DOCTYPE svg PUBLIC "-//W3C//DTD SVG 1.1//EN" "http://www.w3.org/Graphics/SVG/1.1/DTD/svg11.dtd">
<svg version="1.1" id="Layer_1" xmlns="http://www.w3.org/2000/svg" xmlns:xlink="http://www.w3.org/1999/xlink" x="0px" y="0px"
	 viewBox="0 0 880 277" enable-background="new 0 0 880 277" xml:space="preserve">
<g>
	<path fill="#C0C0C0" d="M397.6,188.7v6.4h5.9v-7.4h1v8.5h-14.2v-8.5h1v7.3h5.3v-6.4H397.6z"/>
	<path fill="#C0C0C0" d="M404.5,174.7v1.2l-12.2,8.1l0,0.1h12.2v1.2h-14.2V184l12.1-8.1l0-0.1h-12.1v-1.2H404.5z"/>
	<path fill="#C0C0C0" d="M400.1,161.3L400.1,161.3c1.5,0,2.6,0.4,3.4,1.3c0.8,0.9,1.2,2.2,1.2,3.7c0,1.6-0.6,2.9-1.7,3.8
		c-1.1,1-2.6,1.5-4.4,1.5h-2.3c-1.8,0-3.3-0.5-4.4-1.5c-1.1-1-1.7-2.2-1.7-3.8c0-1.5,0.4-2.8,1.2-3.7c0.8-0.9,1.9-1.4,3.4-1.4l0.1,0
		v1.1c-1.1,0-2,0.4-2.7,1c-0.6,0.7-1,1.7-1,2.9c0,1.2,0.5,2.2,1.4,3s2.2,1.1,3.7,1.1h2.3c1.5,0,2.8-0.4,3.7-1.1c1-0.8,1.4-1.7,1.4-3
		c0-1.2-0.3-2.2-0.9-2.9c-0.6-0.7-1.5-1-2.7-1V161.3z"/>
	<path fill="#C0C0C0" d="M398.1,157.1h6.4v1.2h-14.2v-4.7c0-1.5,0.3-2.7,1-3.5s1.6-1.2,2.9-1.2c0.8,0,1.4,0.2,2,0.6
		c0.6,0.4,1,1,1.3,1.8c0.2-0.9,0.6-1.5,1.2-1.9c0.6-0.4,1.3-0.6,2.1-0.6h1.3c0.4,0,0.8-0.1,1.2-0.2s0.6-0.3,0.9-0.5h0.2v1.2
		c-0.2,0.2-0.6,0.4-1,0.5s-0.9,0.1-1.3,0.1h-1.3c-0.9,0-1.6,0.3-2.1,0.8c-0.5,0.6-0.8,1.3-0.8,2.4V157.1z M397.1,157.1v-3.4
		c0-1.3-0.3-2.2-0.8-2.8c-0.5-0.6-1.2-0.9-2.1-0.9c-0.9,0-1.7,0.3-2.2,0.9c-0.5,0.6-0.8,1.5-0.8,2.7v3.6H397.1z"/>
	<path fill="#C0C0C0" d="M398.2,141.4l-7.9-4.4v-1.4l9,5.2h5.2v1.2h-5.2l-9,5.1v-1.4L398.2,141.4z"/>
	<path fill="#C0C0C0" d="M398.6,132.3h5.9v1.2h-14.2v-4.9c0-1.5,0.4-2.6,1.1-3.5s1.8-1.2,3-1.2c1.3,0,2.3,0.4,3,1.2s1.1,2,1.1,3.5
		V132.3z M397.6,132.3v-3.7c0-1.2-0.3-2-0.9-2.6c-0.6-0.6-1.3-0.9-2.2-0.9c-0.9,0-1.7,0.3-2.3,0.9c-0.6,0.6-0.9,1.5-0.9,2.6v3.7
		H397.6z"/>
	<path fill="#C0C0C0" d="M391.3,111.5v4.8h13.2v1.2h-13.2v5h-1v-11H391.3z"/>
	<path fill="#C0C0C0" d="M404.5,107.7v1.2h-14.2v-1.2H404.5z"/>
	<path fill="#C0C0C0" d="M398.6,93.3c1.8,0,3.3,0.5,4.5,1.5c1.1,1,1.7,2.4,1.7,4c0,1.7-0.6,3-1.7,4s-2.6,1.5-4.5,1.5h-2.3
		c-1.8,0-3.3-0.5-4.5-1.5s-1.7-2.3-1.7-4c0-1.7,0.6-3,1.7-4.1c1.1-1,2.6-1.5,4.5-1.5H398.6z M396.2,94.5c-1.5,0-2.8,0.4-3.7,1.2
		c-0.9,0.8-1.4,1.9-1.4,3.2c0,1.4,0.5,2.4,1.4,3.2c0.9,0.8,2.2,1.1,3.7,1.1h2.3c1.5,0,2.8-0.4,3.7-1.1c0.9-0.8,1.4-1.8,1.4-3.2
		c0-1.4-0.5-2.5-1.4-3.2c-0.9-0.8-2.2-1.2-3.7-1.2H396.2z"/>
	<path fill="#C0C0C0" d="M404.5,79.8V81l-12.2,8.1l0,0.1h12.2v1.2h-14.2v-1.2l12.1-8.1l0-0.1h-12.1v-1.2H404.5z"/>
</g>
<g>
	<g>
		<line fill="none" stroke="#C0C0C0" stroke-miterlimit="10" x1="416" y1="7" x2="416" y2="261.9"/>
		<g>
			<polygon fill="#C0C0C0" points="411,260.4 416,269 421,260.4 			"/>
		</g>
	</g>
</g>
<g>
	<g>
		<rect x="7.9" y="123.1" fill="none" stroke="#C0C0C0" stroke-miterlimit="10" width="86.5" height="33"/>
		<g>
			<path fill="#C0C0C0" d="M23.6,143.4c0-0.5-0.2-0.9-0.6-1.3c-0.4-0.4-1.1-0.7-2.2-0.9c-1.2-0.3-2.2-0.6-2.8-1.1s-0.9-1.1-0.9-1.9
				c0-0.8,0.3-1.5,1-2c0.7-0.6,1.6-0.8,2.7-0.8c1.2,0,2.1,0.3,2.8,0.9c0.7,0.6,1,1.3,1,2.2l0,0.1h-1.1c0-0.6-0.2-1.1-0.7-1.5
				c-0.5-0.4-1.2-0.6-2-0.6c-0.8,0-1.5,0.2-1.9,0.6c-0.4,0.4-0.6,0.8-0.6,1.3c0,0.5,0.2,0.9,0.6,1.2c0.4,0.3,1.1,0.6,2.2,0.8
				c1.2,0.3,2.2,0.7,2.8,1.1c0.6,0.5,1,1.1,1,2c0,0.9-0.4,1.6-1.1,2.1c-0.7,0.5-1.7,0.8-2.8,0.8c-1.3,0-2.3-0.3-3-0.9
				c-0.7-0.6-1.1-1.3-1-2.2l0-0.1h1.1c0,0.8,0.4,1.3,0.9,1.7s1.3,0.5,2,0.5c0.8,0,1.5-0.2,2-0.6S23.6,144,23.6,143.4z"/>
			<path fill="#C0C0C0" d="M29.2,146.1h-1.2v-14.2h1.2V146.1z"/>
			<path fill="#C0C0C0" d="M37.2,143.6l0.3,1h0.1l0.3-1l4.3-11.7h1.3L38,146.1h-1.1l-5.3-14.2h1.3L37.2,143.6z"/>
			<path fill="#C0C0C0" d="M68.9,145.8c-0.5,0.2-1.5,0.6-2.8,0.6c-2.9,0-4.8-2-4.8-4.9c0-3,2-5.1,5.2-5.1c1,0,2,0.3,2.4,0.5
				l-0.4,1.4c-0.4-0.2-1.1-0.5-2-0.5c-2.2,0-3.4,1.6-3.4,3.7c0,2.2,1.4,3.6,3.4,3.6c1,0,1.7-0.3,2.2-0.5L68.9,145.8z"/>
			<path fill="#C0C0C0" d="M72.8,132.7v13.5H71v-13.5H72.8z"/>
			<path fill="#C0C0C0" d="M78.8,146.1l-4.4-13.5h1.9l2.1,6.6c0.6,1.8,1.1,3.5,1.4,5h0c0.4-1.6,0.9-3.3,1.5-5l2.3-6.7h1.9l-4.8,13.5
				H78.8z"/>
		</g>
		<g>
			<path fill="#C0C0BF" d="M47.2,139.4c0,3,2.4,5.4,5.4,5.4c3,0,5.4-2.4,5.4-5.4c0-3-2.4-5.4-5.4-5.4
				C49.6,134.1,47.2,136.4,47.2,139.4z M52.5,144.3c-2.7,0-4.8-2.2-4.8-4.8s2.2-4.8,4.8-4.8c2.7,0,4.8,2.2,4.8,4.8
				C57.4,142.1,55.2,144.3,52.5,144.3z M52.8,139.2v-3.5h-0.5v3.5h-3.5v0.5h3.5v3.5h0.5v-3.5h3.5v-0.5H52.8z"/>
		</g>
	</g>
	<g>
		<g>
			<path fill="#C0C0C0" d="M158.5,27.4c0-0.5-0.2-0.9-0.6-1.3c-0.4-0.4-1.1-0.7-2.2-0.9c-1.2-0.3-2.2-0.6-2.8-1.1S152,23,152,22.2
				c0-0.8,0.3-1.5,1-2c0.7-0.6,1.6-0.8,2.7-0.8c1.2,0,2.1,0.3,2.8,0.9c0.7,0.6,1,1.3,1,2.2l0,0.1h-1.1c0-0.6-0.2-1.1-0.7-1.5
				c-0.5-0.4-1.2-0.6-2-0.6c-0.8,0-1.5,0.2-1.9,0.6c-0.4,0.4-0.6,0.8-0.6,1.3c0,0.5,0.2,0.9,0.6,1.2c0.4,0.3,1.1,0.6,2.2,0.8
				c1.2,0.3,2.2,0.7,2.8,1.1c0.6,0.5,1,1.1,1,2c0,0.9-0.4,1.6-1.1,2.1c-0.7,0.5-1.7,0.8-2.8,0.8c-1.3,0-2.3-0.3-3-0.9
				c-0.7-0.6-1.1-1.3-1-2.2l0-0.1h1.1c0,0.8,0.4,1.3,0.9,1.7s1.3,0.5,2,0.5c0.8,0,1.5-0.2,2-0.6S158.5,27.9,158.5,27.4z"/>
			<path fill="#C0C0C0" d="M170.6,26.6c0-0.7-0.3-1.3-0.9-1.8c-0.6-0.5-1.6-0.9-2.9-1.3c-1.5-0.4-2.7-0.9-3.5-1.6
				c-0.8-0.6-1.2-1.5-1.2-2.5c0-1.1,0.4-2,1.3-2.7s2-1,3.4-1c1.4,0,2.6,0.4,3.5,1.2c0.9,0.8,1.3,1.8,1.3,3l0,0.1h-1.1
				c0-0.9-0.3-1.7-1-2.3c-0.7-0.6-1.6-0.9-2.6-0.9c-1.1,0-2,0.3-2.6,0.8s-0.9,1.2-0.9,1.9c0,0.7,0.3,1.3,0.9,1.8
				c0.6,0.5,1.6,0.9,3,1.3c1.5,0.4,2.6,1,3.4,1.6s1.2,1.5,1.2,2.5c0,1.1-0.5,2-1.4,2.7c-0.9,0.7-2.1,1-3.5,1c-1.4,0-2.6-0.4-3.7-1.1
				c-1-0.7-1.5-1.8-1.5-3.1l0-0.1h1.1c0,1.1,0.4,1.9,1.2,2.5s1.8,0.8,2.8,0.8c1.1,0,2-0.2,2.7-0.7S170.6,27.4,170.6,26.6z"/>
			<path fill="#C0C0C0" d="M182.1,26.1h-6.2l-1.4,4h-1.2l5.2-14.2h1.1l5.2,14.2h-1.2L182.1,26.1z M176.3,25.1h5.5l-2.7-7.5H179
				L176.3,25.1z"/>
			<path fill="#C0C0C0" d="M188.1,29.1h7.3v1h-8.5V15.8h1.2V29.1z"/>
			<path fill="#C0C0C0" d="M204.9,16.8h-4.8v13.2h-1.2V16.8h-5v-1h11V16.8z"/>
			<path fill="#C0C0C0" d="M230.2,29.3c0.7,0,1.4-0.2,2-0.7s0.9-1.1,0.9-1.8h1l0,0.1c0,1-0.4,1.8-1.2,2.5s-1.7,1-2.8,1
				c-1.4,0-2.5-0.5-3.3-1.5c-0.8-1-1.2-2.3-1.2-3.8v-0.4c0-1.5,0.4-2.8,1.2-3.8c0.8-1,1.9-1.5,3.3-1.5c1.1,0,2.1,0.3,2.8,1
				c0.8,0.7,1.1,1.6,1.1,2.7l0,0.1h-1c0-0.8-0.3-1.5-0.8-2c-0.6-0.5-1.2-0.8-2-0.8c-1.1,0-1.9,0.4-2.5,1.2s-0.8,1.8-0.8,3.1V25
				c0,1.2,0.3,2.3,0.8,3.1C228.3,28.9,229.1,29.3,230.2,29.3z"/>
			<path fill="#C0C0C0" d="M244.9,26.6c0-0.7-0.3-1.3-0.9-1.8c-0.6-0.5-1.6-0.9-2.9-1.3c-1.5-0.4-2.7-0.9-3.5-1.6
				c-0.8-0.6-1.2-1.5-1.2-2.5c0-1.1,0.4-2,1.3-2.7s2-1,3.4-1c1.4,0,2.6,0.4,3.5,1.2c0.9,0.8,1.3,1.8,1.3,3l0,0.1h-1.1
				c0-0.9-0.3-1.7-1-2.3s-1.6-0.9-2.6-0.9c-1.1,0-2,0.3-2.6,0.8c-0.6,0.5-0.9,1.2-0.9,1.9c0,0.7,0.3,1.3,0.9,1.8
				c0.6,0.5,1.6,0.9,3,1.3c1.5,0.4,2.6,1,3.4,1.6s1.2,1.5,1.2,2.5c0,1.1-0.5,2-1.4,2.7c-0.9,0.7-2.1,1-3.5,1c-1.4,0-2.6-0.4-3.7-1.1
				c-1-0.7-1.5-1.8-1.5-3.1l0-0.1h1.1c0,1.1,0.4,1.9,1.2,2.5s1.8,0.8,2.8,0.8c1.1,0,2-0.2,2.7-0.7C244.6,28,244.9,27.4,244.9,26.6z"
				/>
			<path fill="#C0C0C0" d="M256.4,26.1h-6.2l-1.4,4h-1.2l5.2-14.2h1.1l5.2,14.2h-1.2L256.4,26.1z M250.6,25.1h5.5l-2.7-7.5h-0.1
				L250.6,25.1z"/>
			<path fill="#C0C0C0" d="M262.4,29.1h7.3v1h-8.5V15.8h1.2V29.1z"/>
			<path fill="#C0C0C0" d="M279.2,16.8h-4.8v13.2h-1.2V16.8h-5v-1h11V16.8z"/>
		</g>
		<g>
			<path fill="#C0C0BF" d="M209.4,23.5c0,3,2.4,5.4,5.4,5.4c3,0,5.4-2.4,5.4-5.4c0-3-2.4-5.4-5.4-5.4
				C211.8,18.1,209.4,20.5,209.4,23.5z M214.8,28.3c-2.7,0-4.8-2.2-4.8-4.8s2.2-4.8,4.8-4.8c2.7,0,4.8,2.2,4.8,4.8
				C219.6,26.1,217.5,28.3,214.8,28.3z M215,23.2v-3.5h-0.5v3.5H211v0.5h3.5v3.5h0.5v-3.5h3.5v-0.5H215z"/>
		</g>
		<rect x="142.1" y="7" fill="none" stroke="#C0C0C0" stroke-miterlimit="10" width="147" height="33"/>
	</g>
	<g>
		<g>
			<path fill="#C0C0C0" d="M198.8,143.6c0-0.5-0.2-0.9-0.6-1.3c-0.4-0.4-1.1-0.7-2.2-0.9c-1.2-0.3-2.2-0.6-2.8-1.1s-0.9-1.1-0.9-1.9
				c0-0.8,0.3-1.5,1-2s1.6-0.8,2.7-0.8c1.2,0,2.1,0.3,2.8,0.9c0.7,0.6,1,1.3,1,2.2l0,0.1h-1.1c0-0.6-0.2-1.1-0.7-1.5
				c-0.5-0.4-1.2-0.6-2-0.6c-0.8,0-1.5,0.2-1.9,0.6c-0.4,0.4-0.6,0.8-0.6,1.3c0,0.5,0.2,0.9,0.6,1.2c0.4,0.3,1.1,0.6,2.2,0.8
				c1.2,0.3,2.2,0.7,2.8,1.1c0.6,0.5,1,1.1,1,2c0,0.9-0.4,1.6-1.1,2.1c-0.7,0.5-1.7,0.8-2.8,0.8c-1.3,0-2.3-0.3-3-0.9
				c-0.7-0.6-1.1-1.3-1-2.2l0-0.1h1.1c0,0.8,0.4,1.3,0.9,1.7c0.6,0.3,1.3,0.5,2,0.5c0.8,0,1.5-0.2,2-0.6S198.8,144.1,198.8,143.6z"
				/>
			<path fill="#C0C0C0" d="M210.3,142.3h-6.2l-1.4,4h-1.2l5.2-14.2h1.1l5.2,14.2h-1.2L210.3,142.3z M204.5,141.3h5.5l-2.7-7.5h-0.1
				L204.5,141.3z"/>
			<path fill="#C0C0C0" d="M215.2,146.3v-14.2h4.3c1.7,0,3.2,0.6,4.3,1.7c1.1,1.2,1.7,2.6,1.7,4.5v1.8c0,1.8-0.6,3.3-1.7,4.5
				c-1.1,1.2-2.6,1.7-4.3,1.7H215.2z M216.3,133.1v12.2h3.2c1.4,0,2.6-0.5,3.5-1.5c0.9-1,1.4-2.2,1.4-3.7v-1.9
				c0-1.5-0.5-2.7-1.4-3.7s-2.1-1.5-3.5-1.5H216.3z"/>
			<path fill="#C0C0C0" d="M235.8,142.3h-6.2l-1.4,4H227l5.2-14.2h1.1l5.2,14.2h-1.2L235.8,142.3z M230,141.3h5.5l-2.7-7.5h-0.1
				L230,141.3z"/>
			<path fill="#C0C0C0" d="M249.1,133.1h-4.8v13.2h-1.2v-13.2h-5v-1h11V133.1z"/>
			<path fill="#C0C0C0" d="M258,142.3h-6.2l-1.4,4h-1.2l5.2-14.2h1.1l5.2,14.2h-1.2L258,142.3z M252.2,141.3h5.5l-2.7-7.5h-0.1
				L252.2,141.3z"/>
			<path fill="#C0C0C0" d="M285.9,145.5c0.7,0,1.4-0.2,2-0.7s0.9-1.1,0.9-1.8h1l0,0.1c0,1-0.4,1.8-1.2,2.5s-1.7,1-2.8,1
				c-1.4,0-2.5-0.5-3.3-1.5c-0.8-1-1.2-2.3-1.2-3.8v-0.4c0-1.5,0.4-2.8,1.2-3.8c0.8-1,1.9-1.5,3.3-1.5c1.1,0,2.1,0.3,2.8,1
				c0.8,0.7,1.1,1.6,1.1,2.7l0,0.1h-1c0-0.8-0.3-1.5-0.8-2c-0.6-0.5-1.2-0.8-2-0.8c-1.1,0-1.9,0.4-2.5,1.2c-0.5,0.8-0.8,1.8-0.8,3.1
				v0.4c0,1.2,0.3,2.3,0.8,3.1C283.9,145.1,284.8,145.5,285.9,145.5z"/>
			<path fill="#C0C0C0" d="M300,142.3h-6.2l-1.4,4h-1.2l5.2-14.2h1.1l5.2,14.2h-1.2L300,142.3z M294.1,141.3h5.5l-2.7-7.5h-0.1
				L294.1,141.3z"/>
			<path fill="#C0C0C0" d="M304.8,146.3v-14.2h4.3c1.7,0,3.2,0.6,4.3,1.7c1.1,1.2,1.7,2.6,1.7,4.5v1.8c0,1.8-0.6,3.3-1.7,4.5
				c-1.1,1.2-2.6,1.7-4.3,1.7H304.8z M306,133.1v12.2h3.2c1.4,0,2.6-0.5,3.5-1.5c0.9-1,1.4-2.2,1.4-3.7v-1.9c0-1.5-0.5-2.7-1.4-3.7
				s-2.1-1.5-3.5-1.5H306z"/>
			<path fill="#C0C0C0" d="M325.5,142.3h-6.2l-1.4,4h-1.2l5.2-14.2h1.1l5.2,14.2h-1.2L325.5,142.3z M319.6,141.3h5.5l-2.7-7.5h-0.1
				L319.6,141.3z"/>
			<path fill="#C0C0C0" d="M338.7,133.1h-4.8v13.2h-1.2v-13.2h-5v-1h11V133.1z"/>
			<path fill="#C0C0C0" d="M347.7,142.3h-6.2l-1.4,4h-1.2l5.2-14.2h1.1l5.2,14.2h-1.2L347.7,142.3z M341.8,141.3h5.5l-2.7-7.5h-0.1
				L341.8,141.3z"/>
		</g>
		<g>
			<path fill="#C0C0BF" d="M266.3,139.6c0,3,2.4,5.4,5.4,5.4c3,0,5.4-2.4,5.4-5.4c0-3-2.4-5.4-5.4-5.4
				C268.7,134.2,266.3,136.6,266.3,139.6z M271.7,144.4c-2.7,0-4.8-2.2-4.8-4.8s2.2-4.8,4.8-4.8c2.7,0,4.8,2.2,4.8,4.8
				C276.5,142.2,274.4,144.4,271.7,144.4z M271.9,139.3v-3.5h-0.5v3.5h-3.5v0.5h3.5v3.5h0.5v-3.5h3.5v-0.5H271.9z"/>
		</g>
		<rect x="179.7" y="123.1" fill="none" stroke="#C0C0C0" stroke-miterlimit="10" width="184.5" height="33"/>
	</g>
	<g>
		<g>
			<path fill="#C0C0C0" d="M70.7,24.2v5.9h-1.2V15.8h4.9c1.5,0,2.6,0.4,3.5,1.1s1.2,1.8,1.2,3c0,1.3-0.4,2.3-1.2,3s-2,1.1-3.5,1.1
				H70.7z M70.7,23.2h3.7c1.2,0,2-0.3,2.6-0.9c0.6-0.6,0.9-1.3,0.9-2.2c0-0.9-0.3-1.7-0.9-2.3c-0.6-0.6-1.5-0.9-2.6-0.9h-3.7V23.2z"
				/>
			<path fill="#C0C0C0" d="M88,26.1h-6.2l-1.4,4h-1.2l5.2-14.2h1.1l5.2,14.2h-1.2L88,26.1z M82.1,25.1h5.5l-2.7-7.5h-0.1L82.1,25.1z
				"/>
			<path fill="#C0C0C0" d="M100.8,26.6c0-0.7-0.3-1.3-0.9-1.8c-0.6-0.5-1.6-0.9-2.9-1.3c-1.5-0.4-2.7-0.9-3.5-1.6
				c-0.8-0.6-1.2-1.5-1.2-2.5c0-1.1,0.4-2,1.3-2.7s2-1,3.4-1c1.4,0,2.6,0.4,3.5,1.2c0.9,0.8,1.3,1.8,1.3,3l0,0.1h-1.1
				c0-0.9-0.3-1.7-1-2.3c-0.7-0.6-1.6-0.9-2.6-0.9c-1.1,0-2,0.3-2.6,0.8s-0.9,1.2-0.9,1.9c0,0.7,0.3,1.3,0.9,1.8
				c0.6,0.5,1.6,0.9,3,1.3c1.5,0.4,2.6,1,3.4,1.6s1.2,1.5,1.2,2.5c0,1.1-0.5,2-1.4,2.7c-0.9,0.7-2.1,1-3.5,1c-1.4,0-2.6-0.4-3.7-1.1
				c-1-0.7-1.5-1.8-1.5-3.1l0-0.1H93c0,1.1,0.4,1.9,1.2,2.5s1.8,0.8,2.8,0.8c1.1,0,2-0.2,2.7-0.7S100.8,27.4,100.8,26.6z"/>
			<path fill="#C0C0C0" d="M112.8,26.6c0-0.7-0.3-1.3-0.9-1.8c-0.6-0.5-1.6-0.9-2.9-1.3c-1.5-0.4-2.7-0.9-3.5-1.6
				c-0.8-0.6-1.2-1.5-1.2-2.5c0-1.1,0.4-2,1.3-2.7s2-1,3.4-1c1.4,0,2.6,0.4,3.5,1.2c0.9,0.8,1.3,1.8,1.3,3l0,0.1h-1.1
				c0-0.9-0.3-1.7-1-2.3c-0.7-0.6-1.6-0.9-2.6-0.9c-1.1,0-2,0.3-2.6,0.8s-0.9,1.2-0.9,1.9c0,0.7,0.3,1.3,0.9,1.8
				c0.6,0.5,1.6,0.9,3,1.3c1.5,0.4,2.6,1,3.4,1.6s1.2,1.5,1.2,2.5c0,1.1-0.5,2-1.4,2.7c-0.9,0.7-2.1,1-3.5,1c-1.4,0-2.6-0.4-3.7-1.1
				c-1-0.7-1.5-1.8-1.5-3.1l0-0.1h1.1c0,1.1,0.4,1.9,1.2,2.5s1.8,0.8,2.8,0.8c1.1,0,2-0.2,2.7-0.7S112.8,27.4,112.8,26.6z"/>
		</g>
		<g>
			<g>
				<polyline fill="none" stroke="#C0C0C0" stroke-miterlimit="10" points="128.5,34 128.5,40 122.5,40 				"/>
				
					<line fill="none" stroke="#C0C0C0" stroke-miterlimit="10" stroke-dasharray="12.0397,12.0397" x1="110.5" y1="40" x2="68.3" y2="40"/>
				<polyline fill="none" stroke="#C0C0C0" stroke-miterlimit="10" points="62.3,40 56.3,40 56.3,34 				"/>
				
					<line fill="none" stroke="#C0C0C0" stroke-miterlimit="10" stroke-dasharray="6.9932,6.9932" x1="56.3" y1="27" x2="56.3" y2="16.5"/>
				<polyline fill="none" stroke="#C0C0C0" stroke-miterlimit="10" points="56.3,13 56.3,7 62.3,7 				"/>
				
					<line fill="none" stroke="#C0C0C0" stroke-miterlimit="10" stroke-dasharray="12.0397,12.0397" x1="74.4" y1="7" x2="116.5" y2="7"/>
				<polyline fill="none" stroke="#C0C0C0" stroke-miterlimit="10" points="122.5,7 128.5,7 128.5,13 				"/>
				
					<line fill="none" stroke="#C0C0C0" stroke-miterlimit="10" stroke-dasharray="6.9932,6.9932" x1="128.5" y1="20" x2="128.5" y2="30.5"/>
			</g>
		</g>
	</g>
	<g>
		<g>
			<path fill="#C0C0C0" d="M123.1,139.4h-1.5v6.7h-1.2v-14.2h1.2v6.5h1.5l5.6-6.5h1.3l0,0l-5.9,6.8l6.5,7.3l0,0h-1.4L123.1,139.4z"
				/>
			<path fill="#C0C0C0" d="M140.3,139.3h-6.4v5.9h7.4v1h-8.5v-14.2h8.5v1h-7.3v5.3h6.4V139.3z"/>
			<path fill="#C0C0C0" d="M148,139.8l4.4-7.9h1.4l-5.2,9v5.2h-1.2v-5.2l-5.1-9h1.4L148,139.8z"/>
		</g>
		<g>
			<g>
				<polyline fill="none" stroke="#C0C0C0" stroke-miterlimit="10" points="168.2,150.1 168.2,156.1 162.2,156.1 				"/>
				
					<line fill="none" stroke="#C0C0C0" stroke-miterlimit="10" stroke-dasharray="9.7479,9.7479" x1="152.4" y1="156.1" x2="118.3" y2="156.1"/>
				<polyline fill="none" stroke="#C0C0C0" stroke-miterlimit="10" points="113.4,156.1 107.4,156.1 107.4,150.1 				"/>
				
					<line fill="none" stroke="#C0C0C0" stroke-miterlimit="10" stroke-dasharray="6.9932,6.9932" x1="107.4" y1="143.1" x2="107.4" y2="132.6"/>
				<polyline fill="none" stroke="#C0C0C0" stroke-miterlimit="10" points="107.4,129.1 107.4,123.1 113.4,123.1 				"/>
				
					<line fill="none" stroke="#C0C0C0" stroke-miterlimit="10" stroke-dasharray="9.7479,9.7479" x1="123.2" y1="123.1" x2="157.3" y2="123.1"/>
				<polyline fill="none" stroke="#C0C0C0" stroke-miterlimit="10" points="162.2,123.1 168.2,123.1 168.2,129.1 				"/>
				
					<line fill="none" stroke="#C0C0C0" stroke-miterlimit="10" stroke-dasharray="6.9932,6.9932" x1="168.2" y1="136.1" x2="168.2" y2="146.6"/>
			</g>
		</g>
	</g>
	<g>
		<g>
			<line fill="none" stroke="#C0C0C0" stroke-miterlimit="10" x1="100.4" y1="40" x2="133.5" y2="60.3"/>
			<g>
				<polygon fill="#C0C0C0" points="131.5,62 136.5,62.2 134.1,57.8 				"/>
			</g>
		</g>
	</g>
	<g>
		<g>
			<line fill="none" stroke="#C0C0C0" stroke-miterlimit="10" x1="176.3" y1="40" x2="143.2" y2="60.3"/>
			<g>
				<polygon fill="#C0C0C0" points="142.6,57.8 140.2,62.2 145.2,62 				"/>
			</g>
		</g>
	</g>
	<g>
		<g>
			<path fill="#C0C0C0" d="M103.3,81.8v5.9h-1.2V73.4h4.9c1.5,0,2.6,0.4,3.5,1.1s1.2,1.8,1.2,3c0,1.3-0.4,2.3-1.2,3s-2,1.1-3.5,1.1
				H103.3z M103.3,80.8h3.7c1.2,0,2-0.3,2.6-0.9c0.6-0.6,0.9-1.3,0.9-2.2c0-0.9-0.3-1.7-0.9-2.3c-0.6-0.6-1.5-0.9-2.6-0.9h-3.7V80.8
				z"/>
			<path fill="#C0C0C0" d="M114.5,87.7V73.4h4.1c1.5,0,2.6,0.3,3.5,0.9s1.2,1.6,1.2,2.8c0,0.7-0.2,1.3-0.6,1.9
				c-0.4,0.5-0.9,0.9-1.6,1.1c0.9,0.1,1.6,0.5,2.2,1.2c0.6,0.7,0.9,1.5,0.9,2.4c0,1.3-0.4,2.2-1.2,2.9c-0.8,0.7-1.9,1-3.3,1H114.5z
				 M115.7,79.8h3.4c1,0,1.7-0.3,2.3-0.7s0.8-1.1,0.8-2c0-0.9-0.3-1.6-0.9-2s-1.5-0.7-2.6-0.7h-3V79.8z M115.7,80.8v5.9h4
				c1,0,1.9-0.3,2.5-0.8c0.6-0.5,0.9-1.2,0.9-2.2c0-0.9-0.3-1.5-0.9-2.1s-1.4-0.8-2.4-0.8h-0.2H115.7z"/>
			<path fill="#C0C0C0" d="M129.5,80.9H128v6.7h-1.2V73.4h1.2v6.5h1.5l5.6-6.5h1.3l0,0l-5.9,6.8l6.5,7.3l0,0h-1.4L129.5,80.9z"/>
			<path fill="#C0C0C0" d="M139.1,87.7V73.4h4.3c1.7,0,3.2,0.6,4.3,1.7c1.1,1.2,1.7,2.6,1.7,4.5v1.8c0,1.8-0.6,3.3-1.7,4.5
				c-1.1,1.2-2.6,1.7-4.3,1.7H139.1z M140.3,74.4v12.2h3.2c1.4,0,2.6-0.5,3.5-1.5c0.9-1,1.4-2.2,1.4-3.7v-1.9c0-1.5-0.5-2.7-1.4-3.7
				s-2.1-1.5-3.5-1.5H140.3z"/>
			<path fill="#C0C0C0" d="M160.3,81h-6.5v6.7h-1.2V73.4h8.7v1h-7.5V80h6.5V81z"/>
			<path fill="#C0C0C0" d="M171.9,87.7h-8.6v-0.9l4.7-5.5c0.8-1,1.4-1.8,1.7-2.4s0.5-1.2,0.5-1.9c0-0.9-0.2-1.5-0.7-2
				c-0.5-0.5-1.2-0.7-2.1-0.7c-1,0-1.8,0.3-2.3,0.9c-0.5,0.6-0.8,1.4-0.8,2.3h-1.1l0-0.1c0-1.2,0.3-2.1,1.1-2.9s1.8-1.2,3.2-1.2
				c1.2,0,2.2,0.3,2.9,1c0.7,0.7,1.1,1.6,1.1,2.8c0,0.8-0.2,1.5-0.7,2.3s-1.1,1.7-2,2.8l-3.8,4.5l0,0h7.2V87.7z"/>
		</g>
		<path fill="none" stroke="#C0C0C0" stroke-miterlimit="10" d="M167.6,102.6H108c-10.5,0-19.1-8.5-19.1-19.1v0
			c0-10.5,8.5-19.1,19.1-19.1h59.6c10.5,0,19.1,8.5,19.1,19.1v0C186.6,94.1,178.1,102.6,167.6,102.6z"/>
		<g>
			<path fill="#C0C0C0" d="M105.5,93.3h-0.4v-2.1h-2.6v2.1h-0.4v-4.6h0.4v2.2h2.6v-2.2h0.4V93.3z"/>
			<path fill="#C0C0C0" d="M108.8,92.7L108.8,92.7l1.7-4h0.5v4.6h-0.4v-3.8l0,0l-1.6,3.9h-0.3l-1.7-3.9l0,0v3.9h-0.4v-4.6h0.5
				L108.8,92.7z"/>
			<path fill="#C0C0C0" d="M114.6,92h-2l-0.5,1.3h-0.4l1.7-4.6h0.4l1.7,4.6h-0.4L114.6,92z M112.7,91.7h1.8l-0.9-2.4h0L112.7,91.7z"
				/>
			<path fill="#C0C0C0" d="M119.3,91.9L119.3,91.9c0,0.5-0.1,0.8-0.4,1.1c-0.3,0.3-0.7,0.4-1.2,0.4c-0.5,0-0.9-0.2-1.2-0.6
				c-0.3-0.4-0.5-0.8-0.5-1.4v-0.7c0-0.6,0.2-1.1,0.5-1.4s0.7-0.6,1.2-0.6c0.5,0,0.9,0.1,1.2,0.4s0.4,0.6,0.4,1.1l0,0H119
				c0-0.4-0.1-0.7-0.3-0.9c-0.2-0.2-0.5-0.3-0.9-0.3c-0.4,0-0.7,0.2-1,0.5c-0.2,0.3-0.4,0.7-0.4,1.2v0.8c0,0.5,0.1,0.9,0.4,1.2
				c0.2,0.3,0.6,0.5,1,0.5c0.4,0,0.7-0.1,0.9-0.3c0.2-0.2,0.3-0.5,0.3-0.9H119.3z"/>
			<path fill="#C0C0C0" d="M122,91.5h-1.9v-0.3h1.9V91.5z"/>
			<path fill="#C0C0C0" d="M125.6,92.2c0-0.2-0.1-0.4-0.3-0.6c-0.2-0.2-0.5-0.3-1-0.4c-0.5-0.1-0.9-0.3-1.1-0.5s-0.4-0.5-0.4-0.8
				c0-0.4,0.1-0.6,0.4-0.9c0.3-0.2,0.6-0.3,1.1-0.3c0.5,0,0.8,0.1,1.1,0.4c0.3,0.3,0.4,0.6,0.4,1l0,0h-0.4c0-0.3-0.1-0.6-0.3-0.8
				s-0.5-0.3-0.8-0.3c-0.4,0-0.6,0.1-0.8,0.3c-0.2,0.2-0.3,0.4-0.3,0.6c0,0.2,0.1,0.4,0.3,0.6s0.5,0.3,1,0.4
				c0.5,0.1,0.9,0.3,1.1,0.5s0.4,0.5,0.4,0.8c0,0.4-0.1,0.6-0.4,0.9c-0.3,0.2-0.7,0.3-1.1,0.3c-0.5,0-0.8-0.1-1.2-0.3
				c-0.3-0.2-0.5-0.6-0.5-1l0,0h0.3c0,0.4,0.1,0.6,0.4,0.8c0.3,0.2,0.6,0.3,0.9,0.3c0.4,0,0.6-0.1,0.9-0.2
				C125.5,92.6,125.6,92.4,125.6,92.2z"/>
			<path fill="#C0C0C0" d="M130.2,93.3h-0.4v-2.1h-2.6v2.1h-0.4v-4.6h0.4v2.2h2.6v-2.2h0.4V93.3z"/>
			<path fill="#C0C0C0" d="M133.9,92h-2l-0.5,1.3H131l1.7-4.6h0.4l1.7,4.6h-0.4L133.9,92z M132,91.7h1.8l-0.9-2.4h0L132,91.7z"/>
			<path fill="#C0C0C0" d="M138.1,93.3h-2.8V93l1.5-1.8c0.3-0.3,0.5-0.6,0.6-0.8c0.1-0.2,0.2-0.4,0.2-0.6c0-0.3-0.1-0.5-0.2-0.7
				c-0.1-0.2-0.4-0.2-0.7-0.2c-0.3,0-0.6,0.1-0.8,0.3c-0.2,0.2-0.3,0.4-0.3,0.7h-0.4l0,0c0-0.4,0.1-0.7,0.4-0.9
				c0.3-0.3,0.6-0.4,1-0.4c0.4,0,0.7,0.1,0.9,0.3c0.2,0.2,0.3,0.5,0.3,0.9c0,0.2-0.1,0.5-0.2,0.7c-0.1,0.2-0.4,0.5-0.7,0.9l-1.2,1.4
				l0,0h2.3V93.3z"/>
			<path fill="#C0C0C0" d="M139,91.2l0.3-2.5h2.2v0.3h-1.9l-0.2,1.6c0.1-0.1,0.2-0.2,0.4-0.2c0.1-0.1,0.3-0.1,0.6-0.1
				c0.4,0,0.7,0.1,0.9,0.4c0.2,0.3,0.4,0.6,0.4,1.1c0,0.5-0.1,0.8-0.3,1.1s-0.6,0.4-1,0.4c-0.4,0-0.7-0.1-0.9-0.3
				c-0.3-0.2-0.4-0.5-0.4-0.9l0,0h0.3c0,0.3,0.1,0.5,0.3,0.7c0.2,0.2,0.4,0.2,0.7,0.2c0.3,0,0.6-0.1,0.8-0.3
				c0.2-0.2,0.3-0.5,0.3-0.9c0-0.3-0.1-0.6-0.3-0.8c-0.2-0.2-0.4-0.3-0.7-0.3c-0.3,0-0.5,0-0.7,0.1s-0.3,0.2-0.3,0.4L139,91.2z"/>
			<path fill="#C0C0C0" d="M143.9,88.6c0.2,0,0.3,0,0.5,0.1s0.3,0.1,0.4,0.2l-0.1,0.3c-0.1-0.1-0.3-0.1-0.4-0.1c-0.1,0-0.3,0-0.5,0
				c-0.3,0-0.6,0.1-0.8,0.4c-0.2,0.3-0.3,0.6-0.3,1V91c0.1-0.2,0.3-0.3,0.5-0.4c0.2-0.1,0.4-0.2,0.7-0.2c0.4,0,0.7,0.1,0.9,0.4
				c0.2,0.3,0.3,0.6,0.3,1.1c0,0.4-0.1,0.8-0.4,1.1c-0.3,0.3-0.6,0.4-1,0.4c-0.4,0-0.8-0.2-1-0.5s-0.4-0.7-0.4-1.3v-1.2
				c0-0.5,0.1-0.9,0.4-1.2C143.2,88.8,143.5,88.6,143.9,88.6z M143.9,90.7c-0.2,0-0.5,0.1-0.7,0.2c-0.2,0.1-0.3,0.3-0.4,0.5v0.2
				c0,0.4,0.1,0.8,0.3,1c0.2,0.3,0.4,0.4,0.8,0.4c0.3,0,0.6-0.1,0.7-0.3c0.2-0.2,0.3-0.5,0.3-0.8c0-0.4-0.1-0.7-0.3-0.9
				C144.5,90.8,144.2,90.7,143.9,90.7z"/>
			<path fill="#C0C0C0" d="M152.6,91.7c0,0.5-0.1,0.8-0.4,1.2c-0.2,0.3-0.6,0.5-1,0.5c-0.2,0-0.3-0.1-0.4-0.2
				c-0.1-0.1-0.2-0.3-0.2-0.4c-0.1,0.2-0.2,0.4-0.4,0.5s-0.4,0.2-0.6,0.2c-0.3,0-0.5-0.1-0.6-0.4c-0.1-0.3-0.2-0.6-0.2-1
				c0-0.5,0.2-1,0.4-1.3c0.2-0.3,0.5-0.5,0.9-0.5c0.2,0,0.4,0,0.5,0.1s0.3,0.1,0.4,0.3l0,0h0l-0.2,1.8c0,0.3,0,0.5,0.1,0.6
				c0.1,0.1,0.2,0.2,0.3,0.2c0.3,0,0.5-0.1,0.7-0.4s0.3-0.6,0.3-1c0-0.8-0.1-1.4-0.5-1.9s-0.9-0.7-1.7-0.7c-0.7,0-1.2,0.2-1.7,0.7
				c-0.4,0.5-0.7,1.1-0.7,1.9c0,0.8,0.1,1.4,0.5,1.9c0.4,0.5,0.9,0.7,1.6,0.7c0.2,0,0.4,0,0.6-0.1c0.2,0,0.3-0.1,0.5-0.2l0.1,0.2
				c-0.1,0.1-0.3,0.2-0.5,0.2s-0.4,0.1-0.6,0.1c-0.8,0-1.4-0.3-1.8-0.8c-0.4-0.5-0.6-1.2-0.6-2.1c0-0.9,0.3-1.6,0.8-2.1
				c0.5-0.5,1.1-0.8,1.9-0.8c0.8,0,1.4,0.3,1.8,0.8S152.7,90.8,152.6,91.7z M149.2,92c0,0.3,0,0.6,0.1,0.8c0.1,0.2,0.2,0.3,0.4,0.3
				c0.2,0,0.3,0,0.5-0.1s0.3-0.3,0.4-0.5c0,0,0,0,0,0s0,0,0,0l0.1-1.7c-0.1,0-0.1-0.1-0.2-0.1c-0.1,0-0.2,0-0.3,0
				c-0.3,0-0.5,0.1-0.7,0.4S149.3,91.5,149.2,92z"/>
			<path fill="#C0C0C0" d="M156.3,90.8c0.3,0,0.6-0.1,0.8-0.2c0.2-0.2,0.3-0.4,0.3-0.6c0-0.3-0.1-0.5-0.2-0.7
				c-0.2-0.2-0.4-0.3-0.7-0.3c-0.3,0-0.5,0.1-0.7,0.3s-0.3,0.4-0.3,0.7H155l0,0c0-0.4,0.1-0.7,0.4-0.9c0.3-0.2,0.6-0.4,1-0.4
				c0.4,0,0.7,0.1,1,0.3c0.2,0.2,0.4,0.5,0.4,0.9c0,0.2-0.1,0.4-0.2,0.6c-0.1,0.2-0.3,0.3-0.5,0.4c0.3,0.1,0.5,0.2,0.6,0.4
				s0.2,0.4,0.2,0.7c0,0.4-0.1,0.7-0.4,1c-0.3,0.2-0.6,0.3-1,0.3c-0.4,0-0.7-0.1-1-0.3c-0.3-0.2-0.4-0.5-0.4-0.9l0,0h0.4
				c0,0.3,0.1,0.5,0.3,0.7c0.2,0.2,0.5,0.3,0.8,0.3c0.3,0,0.6-0.1,0.7-0.3c0.2-0.2,0.3-0.4,0.3-0.7c0-0.3-0.1-0.6-0.3-0.7
				s-0.5-0.2-0.8-0.2h-0.4v-0.3H156.3z"/>
			<path fill="#C0C0C0" d="M161.3,91.7c0,0.5-0.1,0.9-0.4,1.2c-0.3,0.3-0.6,0.4-1,0.4s-0.8-0.2-1-0.5c-0.3-0.3-0.4-0.7-0.4-1.2v-1.3
				c0-0.5,0.1-0.9,0.4-1.2c0.3-0.3,0.6-0.5,1-0.5s0.8,0.2,1,0.5c0.3,0.3,0.4,0.7,0.4,1.2V91.7z M161,90.3c0-0.4-0.1-0.7-0.3-1
				c-0.2-0.2-0.4-0.4-0.8-0.4s-0.6,0.1-0.8,0.4c-0.2,0.2-0.3,0.6-0.3,1v1.5c0,0.4,0.1,0.7,0.3,1c0.2,0.2,0.4,0.4,0.8,0.4
				c0.3,0,0.6-0.1,0.8-0.4c0.2-0.2,0.3-0.6,0.3-1V90.3z"/>
			<path fill="#C0C0C0" d="M164.9,91.7c0,0.5-0.1,0.9-0.4,1.2c-0.3,0.3-0.6,0.4-1,0.4s-0.8-0.2-1-0.5c-0.3-0.3-0.4-0.7-0.4-1.2v-1.3
				c0-0.5,0.1-0.9,0.4-1.2c0.3-0.3,0.6-0.5,1-0.5s0.8,0.2,1,0.5c0.3,0.3,0.4,0.7,0.4,1.2V91.7z M164.5,90.3c0-0.4-0.1-0.7-0.3-1
				c-0.2-0.2-0.4-0.4-0.8-0.4s-0.6,0.1-0.8,0.4c-0.2,0.2-0.3,0.6-0.3,1v1.5c0,0.4,0.1,0.7,0.3,1c0.2,0.2,0.4,0.4,0.8,0.4
				c0.3,0,0.6-0.1,0.8-0.4c0.2-0.2,0.3-0.6,0.3-1V90.3z"/>
			<path fill="#C0C0C0" d="M168.5,91.7c0,0.5-0.1,0.9-0.4,1.2c-0.3,0.3-0.6,0.4-1,0.4s-0.8-0.2-1-0.5c-0.3-0.3-0.4-0.7-0.4-1.2v-1.3
				c0-0.5,0.1-0.9,0.4-1.2c0.3-0.3,0.6-0.5,1-0.5s0.8,0.2,1,0.5c0.3,0.3,0.4,0.7,0.4,1.2V91.7z M168.1,90.3c0-0.4-0.1-0.7-0.3-1
				c-0.2-0.2-0.4-0.4-0.8-0.4s-0.6,0.1-0.8,0.4c-0.2,0.2-0.3,0.6-0.3,1v1.5c0,0.4,0.1,0.7,0.3,1c0.2,0.2,0.4,0.4,0.8,0.4
				c0.3,0,0.6-0.1,0.8-0.4c0.2-0.2,0.3-0.6,0.3-1V90.3z"/>
			<path fill="#C0C0C0" d="M172.1,91.7c0,0.5-0.1,0.9-0.4,1.2c-0.3,0.3-0.6,0.4-1,0.4s-0.8-0.2-1-0.5c-0.3-0.3-0.4-0.7-0.4-1.2v-1.3
				c0-0.5,0.1-0.9,0.4-1.2c0.3-0.3,0.6-0.5,1-0.5s0.8,0.2,1,0.5c0.3,0.3,0.4,0.7,0.4,1.2V91.7z M171.7,90.3c0-0.4-0.1-0.7-0.3-1
				c-0.2-0.2-0.4-0.4-0.8-0.4s-0.6,0.1-0.8,0.4c-0.2,0.2-0.3,0.6-0.3,1v1.5c0,0.4,0.1,0.7,0.3,1c0.2,0.2,0.4,0.4,0.8,0.4
				c0.3,0,0.6-0.1,0.8-0.4c0.2-0.2,0.3-0.6,0.3-1V90.3z"/>
		</g>
	</g>
	<g>
		<g>
			<line fill="none" stroke="#C0C0C0" stroke-miterlimit="10" x1="137.8" y1="102.6" x2="137.8" y2="119.5"/>
			<g>
				<polygon fill="#C0C0C0" points="135.3,118.8 137.8,123.1 140.3,118.8 				"/>
			</g>
		</g>
	</g>
	<g>
		<g>
			<path fill="#C0C0C0" d="M86.2,198.5h-6.2l-1.4,4h-1.2l5.2-14.2h1.1l5.2,14.2h-1.2L86.2,198.5z M80.3,197.5h5.5l-2.7-7.5H83
				L80.3,197.5z"/>
			<path fill="#C0C0C0" d="M98.5,195.6h-6.4v5.9h7.4v1H91v-14.2h8.5v1h-7.3v5.3h6.4V195.6z"/>
			<path fill="#C0C0C0" d="M110,199c0-0.7-0.3-1.3-0.9-1.8c-0.6-0.5-1.6-0.9-2.9-1.3c-1.5-0.4-2.7-0.9-3.5-1.6
				c-0.8-0.6-1.2-1.5-1.2-2.5c0-1.1,0.4-2,1.3-2.7s2-1,3.4-1c1.4,0,2.6,0.4,3.5,1.2c0.9,0.8,1.3,1.8,1.3,3l0,0.1h-1.1
				c0-0.9-0.3-1.7-1-2.3s-1.6-0.9-2.6-0.9c-1.1,0-2,0.3-2.6,0.8c-0.6,0.5-0.9,1.2-0.9,1.9c0,0.7,0.3,1.3,0.9,1.8
				c0.6,0.5,1.6,0.9,3,1.3c1.5,0.4,2.6,1,3.4,1.6s1.2,1.5,1.2,2.5c0,1.1-0.5,2-1.4,2.7c-0.9,0.7-2.1,1-3.5,1c-1.4,0-2.6-0.4-3.7-1.1
				c-1-0.7-1.5-1.8-1.5-3.1l0-0.1h1.1c0,1.1,0.4,1.9,1.2,2.5s1.8,0.8,2.8,0.8c1.1,0,2-0.2,2.7-0.7C109.7,200.5,110,199.8,110,199z"
				/>
			<path fill="#C0C0C0" d="M122.4,202.5h-8.6v-0.9l4.7-5.5c0.8-1,1.4-1.8,1.7-2.4c0.3-0.6,0.5-1.2,0.5-1.9c0-0.9-0.2-1.5-0.7-2
				c-0.5-0.5-1.2-0.7-2.1-0.7c-1,0-1.8,0.3-2.3,0.9c-0.5,0.6-0.8,1.4-0.8,2.3h-1.1l0-0.1c0-1.2,0.3-2.1,1.1-2.9
				c0.8-0.8,1.8-1.2,3.2-1.2c1.2,0,2.2,0.3,2.9,1c0.7,0.7,1.1,1.6,1.1,2.8c0,0.8-0.2,1.5-0.7,2.3s-1.1,1.7-2,2.8l-3.8,4.5l0,0h7.2
				V202.5z"/>
			<path fill="#C0C0C0" d="M125.1,196.1l0.8-7.8h6.9v1.1h-5.9l-0.5,5.1c0.4-0.3,0.8-0.6,1.2-0.8c0.4-0.2,1-0.3,1.7-0.3
				c1.2,0,2.2,0.4,2.9,1.2c0.7,0.8,1.1,1.9,1.1,3.3c0,1.4-0.4,2.6-1.1,3.4c-0.7,0.9-1.8,1.3-3.2,1.3c-1.2,0-2.1-0.3-2.9-1
				c-0.8-0.7-1.2-1.6-1.1-2.9l0-0.1h1.1c0,1,0.3,1.7,0.8,2.2c0.5,0.5,1.3,0.8,2.2,0.8c1.1,0,1.9-0.3,2.4-1c0.5-0.6,0.8-1.6,0.8-2.8
				c0-1.1-0.3-1.9-0.8-2.5c-0.5-0.6-1.3-0.9-2.2-0.9c-0.9,0-1.6,0.1-2.1,0.4c-0.5,0.3-0.8,0.7-1,1.3L125.1,196.1z"/>
			<path fill="#C0C0C0" d="M140.5,188.1c0.5,0,1.1,0.1,1.6,0.2c0.5,0.1,1,0.3,1.4,0.5l-0.3,1c-0.4-0.2-0.8-0.4-1.2-0.5
				c-0.4-0.1-0.9-0.2-1.4-0.2c-1,0-1.8,0.4-2.5,1.2c-0.6,0.8-1,1.8-1,3.1v2c0.4-0.5,0.9-1,1.5-1.3s1.3-0.5,2-0.5
				c1.3,0,2.2,0.4,2.9,1.2c0.7,0.8,1.1,1.9,1.1,3.3c0,1.4-0.4,2.5-1.2,3.4c-0.8,0.9-1.8,1.3-3.1,1.3c-1.3,0-2.3-0.5-3.2-1.5
				s-1.2-2.3-1.2-3.9v-3.8c0-1.6,0.4-2.9,1.3-3.9S139.2,188.1,140.5,188.1z M140.3,194.4c-0.8,0-1.4,0.2-2,0.6s-1,0.9-1.2,1.6v0.7
				c0,1.3,0.3,2.4,0.9,3.1c0.6,0.8,1.4,1.2,2.3,1.2c1,0,1.7-0.3,2.3-1c0.6-0.7,0.8-1.6,0.8-2.6c0-1.1-0.3-2-0.8-2.7
				S141.3,194.4,140.3,194.4z"/>
			<path fill="#C0C0C0" d="M152.5,196.9h-5.8v-1h5.8V196.9z"/>
			<path fill="#C0C0C0" d="M165.8,200.6c-0.3,0.5-0.9,1-1.7,1.4c-0.8,0.4-1.9,0.7-3.2,0.7c-1.6,0-3-0.6-4-1.7
				c-1-1.1-1.6-2.6-1.6-4.4V194c0-1.8,0.5-3.2,1.5-4.3c1-1.1,2.3-1.7,3.9-1.7c1.5,0,2.8,0.4,3.7,1.2c0.9,0.8,1.3,1.8,1.3,3.1l0,0.1
				h-1.1c0-1-0.3-1.8-1-2.4s-1.6-1-2.9-1c-1.3,0-2.3,0.5-3.1,1.4c-0.8,0.9-1.2,2.1-1.2,3.6v2.6c0,1.5,0.4,2.7,1.2,3.7
				c0.8,0.9,1.9,1.4,3.2,1.4c1,0,1.8-0.2,2.4-0.4c0.6-0.3,1.1-0.6,1.3-1v-3.6h-3.8v-1h5V200.6z"/>
			<path fill="#C0C0C0" d="M179.2,198L179.2,198c0,1.5-0.4,2.6-1.3,3.4s-2.2,1.2-3.7,1.2c-1.6,0-2.9-0.6-3.8-1.7s-1.5-2.6-1.5-4.4
				v-2.3c0-1.8,0.5-3.3,1.5-4.4s2.2-1.7,3.8-1.7c1.5,0,2.8,0.4,3.7,1.2s1.4,1.9,1.4,3.4l0,0.1h-1.1c0-1.1-0.3-2-1-2.7
				c-0.7-0.6-1.7-1-2.9-1c-1.2,0-2.2,0.5-3,1.4c-0.8,1-1.1,2.2-1.1,3.7v2.3c0,1.5,0.4,2.8,1.1,3.7c0.8,1,1.7,1.4,3,1.4
				c1.2,0,2.2-0.3,2.9-0.9c0.7-0.6,1-1.5,1-2.7H179.2z"/>
			<path fill="#C0C0C0" d="M189.1,200.8L189.1,200.8l5.3-12.5h1.4v14.2h-1.2v-11.9l-0.1,0l-5.1,11.9h-0.8l-5.2-12.2l-0.1,0v12.2
				h-1.2v-14.2h1.6L189.1,200.8z"/>
		</g>
		<path fill="none" stroke="#C0C0C0" stroke-miterlimit="10" d="M193.1,212.3H82.5c-9.1,0-16.5-7.4-16.5-16.5v0
			c0-9.1,7.4-16.5,16.5-16.5h110.7c9.1,0,16.5,7.4,16.5,16.5v0C209.6,204.9,202.2,212.3,193.1,212.3z"/>
	</g>
	<g>
		<g>
			<line fill="none" stroke="#C0C0C0" stroke-miterlimit="10" x1="68.9" y1="156.1" x2="98.5" y2="174.6"/>
			<g>
				<polygon fill="#C0C0C0" points="96.5,176.3 101.5,176.5 99.2,172.1 				"/>
			</g>
		</g>
	</g>
	<g>
		<g>
			<line fill="none" stroke="#C0C0C0" stroke-miterlimit="10" x1="137.8" y1="156.1" x2="137.8" y2="172.9"/>
			<g>
				<polygon fill="#C0C0C0" points="135.3,172.2 137.8,176.5 140.3,172.2 				"/>
			</g>
		</g>
	</g>
	<g>
		<g>
			<line fill="none" stroke="#C0C0C0" stroke-miterlimit="10" x1="207.7" y1="156.1" x2="176.3" y2="174.6"/>
			<g>
				<polygon fill="#C0C0C0" points="175.6,172.1 173.2,176.5 178.2,176.4 				"/>
			</g>
		</g>
	</g>
	<g>
		<g>
			<path fill="#C0C0C0" d="M39.9,254.8L39.9,254.8c0,1.5-0.4,2.6-1.3,3.4s-2.2,1.2-3.7,1.2c-1.6,0-2.9-0.6-3.8-1.7s-1.5-2.6-1.5-4.4
				V251c0-1.8,0.5-3.3,1.5-4.4s2.2-1.7,3.8-1.7c1.5,0,2.8,0.4,3.7,1.2s1.4,1.9,1.4,3.4l0,0.1h-1.1c0-1.1-0.3-2-1-2.7
				c-0.7-0.6-1.7-1-2.9-1c-1.2,0-2.2,0.5-3,1.4c-0.8,1-1.1,2.2-1.1,3.7v2.3c0,1.5,0.4,2.8,1.1,3.7c0.8,1,1.7,1.4,3,1.4
				c1.2,0,2.2-0.3,2.9-0.9c0.7-0.6,1-1.5,1-2.7H39.9z"/>
			<path fill="#C0C0C0" d="M44.4,259.2h-1.2V245h1.2V259.2z"/>
			<path fill="#C0C0C0" d="M49.5,253.3v5.9h-1.2V245h4.9c1.5,0,2.6,0.4,3.5,1.1s1.2,1.8,1.2,3c0,1.3-0.4,2.3-1.2,3s-2,1.1-3.5,1.1
				H49.5z M49.5,252.3h3.7c1.2,0,2-0.3,2.6-0.9c0.6-0.6,0.9-1.3,0.9-2.2c0-0.9-0.3-1.7-0.9-2.3c-0.6-0.6-1.5-0.9-2.6-0.9h-3.7V252.3
				z"/>
			<path fill="#C0C0C0" d="M71.1,259.2h-1.2v-6.5h-8.1v6.5h-1.2V245h1.2v6.7h8.1V245h1.2V259.2z"/>
			<path fill="#C0C0C0" d="M82.3,252.4h-6.4v5.9h7.4v1h-8.5V245h8.5v1h-7.3v5.3h6.4V252.4z"/>
			<path fill="#C0C0C0" d="M86.9,252.8v6.4h-1.2V245h4.7c1.5,0,2.7,0.3,3.5,1s1.2,1.6,1.2,2.9c0,0.8-0.2,1.4-0.6,2
				c-0.4,0.6-1,1-1.8,1.3c0.9,0.2,1.5,0.6,1.9,1.2c0.4,0.6,0.6,1.3,0.6,2.1v1.3c0,0.4,0.1,0.8,0.2,1.2c0.1,0.4,0.3,0.6,0.5,0.9v0.2
				h-1.2c-0.2-0.2-0.4-0.6-0.5-1s-0.1-0.9-0.1-1.3v-1.3c0-0.9-0.3-1.6-0.8-2.1c-0.6-0.5-1.3-0.8-2.4-0.8H86.9z M86.9,251.8h3.4
				c1.3,0,2.2-0.3,2.8-0.8c0.6-0.5,0.9-1.2,0.9-2.1c0-0.9-0.3-1.7-0.9-2.2c-0.6-0.5-1.5-0.8-2.7-0.8h-3.6V251.8z"/>
			<path fill="#C0C0C0" d="M107.7,246h-4.8v13.2h-1.2V246h-5v-1h11V246z"/>
			<path fill="#C0C0C0" d="M117.5,252.4h-6.4v5.9h7.4v1h-8.5V245h8.5v1h-7.3v5.3h6.4V252.4z"/>
			<path fill="#C0C0C0" d="M125.3,251.1l4-6.1h1.4l-4.7,7l4.9,7.2h-1.4l-4.2-6.3l-4.2,6.3h-1.4l4.9-7.2l-4.7-7h1.4L125.3,251.1z"/>
			<path fill="#C0C0C0" d="M142.9,246H138v13.2h-1.2V246h-5v-1h11V246z"/>
		</g>
		<rect x="17.4" y="236.1" fill="none" stroke="#C0C0C0" stroke-miterlimit="10" width="137.6" height="33"/>
	</g>
	<g>
		<g>
			<path fill="#C0C0C0" d="M203.4,246h-4.8v13.2h-1.2V246h-5v-1h11V246z"/>
			<path fill="#C0C0C0" d="M212.4,255.3h-6.2l-1.4,4h-1.2l5.2-14.2h1.1l5.2,14.2h-1.2L212.4,255.3z M206.5,254.2h5.5l-2.7-7.5h-0.1
				L206.5,254.2z"/>
			<path fill="#C0C0C0" d="M227.2,257.3c-0.3,0.5-0.9,1-1.7,1.4c-0.8,0.4-1.9,0.7-3.2,0.7c-1.6,0-3-0.6-4-1.7
				c-1-1.1-1.6-2.6-1.6-4.4v-2.6c0-1.8,0.5-3.2,1.5-4.3c1-1.1,2.3-1.7,3.9-1.7c1.5,0,2.8,0.4,3.7,1.2c0.9,0.8,1.3,1.8,1.3,3.1l0,0.1
				H226c0-1-0.3-1.8-1-2.4s-1.6-1-2.9-1c-1.3,0-2.3,0.5-3.1,1.4c-0.8,0.9-1.2,2.1-1.2,3.6v2.6c0,1.5,0.4,2.7,1.2,3.7
				c0.8,0.9,1.9,1.4,3.2,1.4c1,0,1.8-0.2,2.4-0.4c0.6-0.3,1.1-0.6,1.3-1v-3.6h-3.8v-1h5V257.3z"/>
		</g>
		<rect x="181" y="236.1" fill="none" stroke="#C0C0C0" stroke-miterlimit="10" width="62.7" height="33"/>
	</g>
	<g>
		<g>
			<line fill="none" stroke="#C0C0C0" stroke-miterlimit="10" x1="116.6" y1="212.3" x2="102.5" y2="230.9"/>
			<g>
				<polygon fill="#C0C0C0" points="101,228.8 100.3,233.7 104.9,231.8 				"/>
			</g>
		</g>
	</g>
	<g>
		<g>
			<line fill="none" stroke="#C0C0C0" stroke-miterlimit="10" x1="176.3" y1="212.3" x2="195.4" y2="231.2"/>
			<g>
				<polygon fill="#C0C0C0" points="193.1,232.5 198,233.7 196.6,228.9 				"/>
			</g>
		</g>
	</g>
	<g>
		<g>
			<path fill="#C0C0C0" d="M252.9,196.6v5.9h-1.2v-14.2h4.9c1.5,0,2.6,0.4,3.5,1.1s1.2,1.8,1.2,3c0,1.3-0.4,2.3-1.2,3
				s-2,1.1-3.5,1.1H252.9z M252.9,195.6h3.7c1.2,0,2-0.3,2.6-0.9c0.6-0.6,0.9-1.3,0.9-2.2c0-0.9-0.3-1.7-0.9-2.3
				c-0.6-0.6-1.5-0.9-2.6-0.9h-3.7V195.6z"/>
			<path fill="#C0C0C0" d="M265.2,201.5h7.3v1H264v-14.2h1.2V201.5z"/>
			<path fill="#C0C0C0" d="M282.7,198.5h-6.2l-1.4,4h-1.2l5.2-14.2h1.1l5.2,14.2h-1.2L282.7,198.5z M276.8,197.5h5.5l-2.7-7.5h-0.1
				L276.8,197.5z"/>
			<path fill="#C0C0C0" d="M289,202.5h-1.2v-14.2h1.2V202.5z"/>
			<path fill="#C0C0C0" d="M303.4,202.5h-1.2l-8.1-12.2l-0.1,0v12.2h-1.2v-14.2h1.2l8.1,12.1l0.1,0v-12.1h1.2V202.5z"/>
			<path fill="#C0C0C0" d="M316.4,189.3h-4.8v13.2h-1.2v-13.2h-5v-1h11V189.3z"/>
			<path fill="#C0C0C0" d="M326.2,195.6h-6.4v5.9h7.4v1h-8.5v-14.2h8.5v1h-7.3v5.3h6.4V195.6z"/>
			<path fill="#C0C0C0" d="M334,194.3l4-6.1h1.4l-4.7,7l4.9,7.2h-1.4l-4.2-6.3l-4.2,6.3h-1.4l4.9-7.2l-4.7-7h1.4L334,194.3z"/>
			<path fill="#C0C0C0" d="M351.6,189.3h-4.8v13.2h-1.2v-13.2h-5v-1h11V189.3z"/>
		</g>
		<g>
			<g>
				<polyline fill="none" stroke="#C0C0C0" stroke-miterlimit="10" points="364.6,206.3 364.6,212.3 358.6,212.3 				"/>
				
					<line fill="none" stroke="#C0C0C0" stroke-miterlimit="10" stroke-dasharray="12.8495,12.8495" x1="345.7" y1="212.3" x2="249.4" y2="212.3"/>
				<polyline fill="none" stroke="#C0C0C0" stroke-miterlimit="10" points="242.9,212.3 236.9,212.3 236.9,206.3 				"/>
				
					<line fill="none" stroke="#C0C0C0" stroke-miterlimit="10" stroke-dasharray="6.9932,6.9932" x1="236.9" y1="199.3" x2="236.9" y2="188.8"/>
				<polyline fill="none" stroke="#C0C0C0" stroke-miterlimit="10" points="236.9,185.3 236.9,179.3 242.9,179.3 				"/>
				
					<line fill="none" stroke="#C0C0C0" stroke-miterlimit="10" stroke-dasharray="12.8495,12.8495" x1="255.8" y1="179.3" x2="352.2" y2="179.3"/>
				<polyline fill="none" stroke="#C0C0C0" stroke-miterlimit="10" points="358.6,179.3 364.6,179.3 364.6,185.3 				"/>
				
					<line fill="none" stroke="#C0C0C0" stroke-miterlimit="10" stroke-dasharray="6.9932,6.9932" x1="364.6" y1="192.3" x2="364.6" y2="202.8"/>
			</g>
		</g>
	</g>
	<g>
		<g>
			<line fill="none" stroke="#C0C0C0" stroke-miterlimit="10" x1="236.9" y1="195.8" x2="215.9" y2="195.8"/>
			<g>
				<polygon fill="#C0C0C0" points="216.6,193.3 212.3,195.8 216.6,198.3 				"/>
			</g>
		</g>
	</g>
</g>
<g>
	<path fill="#C0C0C0" d="M436.8,79.9H451v4.3c0,1.7-0.6,3.2-1.7,4.3c-1.2,1.1-2.6,1.7-4.5,1.7H443c-1.8,0-3.3-0.6-4.5-1.7
		c-1.2-1.1-1.7-2.6-1.7-4.3V79.9z M450,81.1h-12.2v3.2c0,1.4,0.5,2.6,1.5,3.5c1,0.9,2.2,1.4,3.7,1.4h1.9c1.5,0,2.7-0.5,3.7-1.4
		s1.5-2.1,1.5-3.5V81.1z"/>
	<path fill="#C0C0C0" d="M443.7,100.9v-6.4h-5.9v7.4h-1v-8.5H451v8.5h-1v-7.3h-5.3v6.4H443.7z"/>
	<path fill="#C0C0C0" d="M441.3,114.2L441.3,114.2c-1.5,0-2.6-0.4-3.4-1.3s-1.2-2.2-1.2-3.7c0-1.6,0.6-2.9,1.7-3.8s2.6-1.5,4.4-1.5
		h2.3c1.8,0,3.3,0.5,4.4,1.5s1.7,2.2,1.7,3.8c0,1.5-0.4,2.8-1.2,3.7s-1.9,1.4-3.4,1.4l-0.1,0v-1.1c1.1,0,2-0.4,2.7-1
		c0.6-0.7,1-1.7,1-2.9c0-1.2-0.5-2.2-1.4-3s-2.2-1.1-3.7-1.1h-2.3c-1.5,0-2.8,0.4-3.7,1.1c-1,0.8-1.4,1.7-1.4,3
		c0,1.2,0.3,2.2,0.9,2.9c0.6,0.7,1.5,1,2.7,1V114.2z"/>
	<path fill="#C0C0C0" d="M443.2,118.3h-6.4v-1.2H451v4.7c0,1.5-0.3,2.7-1,3.5s-1.6,1.2-2.9,1.2c-0.8,0-1.4-0.2-2-0.6
		c-0.6-0.4-1-1-1.3-1.8c-0.2,0.9-0.6,1.5-1.2,1.9s-1.3,0.6-2.1,0.6h-1.3c-0.4,0-0.8,0.1-1.2,0.2s-0.6,0.3-0.9,0.5h-0.2v-1.2
		c0.2-0.2,0.6-0.4,1-0.5s0.9-0.1,1.3-0.1h1.3c0.9,0,1.6-0.3,2.1-0.8c0.5-0.6,0.8-1.3,0.8-2.4V118.3z M444.2,118.3v3.4
		c0,1.3,0.3,2.2,0.8,2.8c0.5,0.6,1.2,0.9,2.1,0.9c0.9,0,1.7-0.3,2.2-0.9c0.5-0.6,0.8-1.5,0.8-2.7v-3.6H444.2z"/>
	<path fill="#C0C0C0" d="M443.1,134l7.9,4.4v1.4l-9-5.2h-5.2v-1.2h5.2l9-5.1v1.4L443.1,134z"/>
	<path fill="#C0C0C0" d="M442.7,143.2h-5.9V142H451v4.9c0,1.5-0.4,2.6-1.1,3.5s-1.8,1.2-3,1.2c-1.3,0-2.3-0.4-3-1.2s-1.1-2-1.1-3.5
		V143.2z M443.7,143.2v3.7c0,1.2,0.3,2,0.9,2.6c0.6,0.6,1.3,0.9,2.2,0.9c0.9,0,1.7-0.3,2.3-0.9c0.6-0.6,0.9-1.5,0.9-2.6v-3.7H443.7z
		"/>
	<path fill="#C0C0C0" d="M450,164v-4.8h-13.2V158H450v-5h1v11H450z"/>
	<path fill="#C0C0C0" d="M436.8,167.8v-1.2H451v1.2H436.8z"/>
	<path fill="#C0C0C0" d="M442.8,182.1c-1.8,0-3.3-0.5-4.5-1.5c-1.1-1-1.7-2.4-1.7-4c0-1.7,0.6-3,1.7-4s2.6-1.5,4.5-1.5h2.3
		c1.8,0,3.3,0.5,4.5,1.5s1.7,2.3,1.7,4c0,1.7-0.6,3-1.7,4.1c-1.1,1-2.6,1.5-4.5,1.5H442.8z M445.1,180.9c1.5,0,2.8-0.4,3.7-1.2
		c0.9-0.8,1.4-1.9,1.4-3.2c0-1.4-0.5-2.4-1.4-3.2c-0.9-0.8-2.2-1.1-3.7-1.1h-2.3c-1.5,0-2.8,0.4-3.7,1.1c-0.9,0.8-1.4,1.8-1.4,3.2
		c0,1.4,0.5,2.5,1.4,3.2c0.9,0.8,2.2,1.2,3.7,1.2H445.1z"/>
	<path fill="#C0C0C0" d="M436.8,195.6v-1.2l12.2-8.1l0-0.1h-12.2v-1.2H451v1.2l-12.1,8.1l0,0.1H451v1.2H436.8z"/>
</g>
<g>
	<g>
		<line fill="none" stroke="#C0C0C0" stroke-miterlimit="10" x1="424" y1="268.8" x2="424" y2="13.9"/>
		<g>
			<polygon fill="#C0C0C0" points="429,15.4 424,6.7 419,15.4 			"/>
		</g>
	</g>
</g>
<g>
	<g>
		<rect x="502.9" y="119.7" fill="none" stroke="#C0C0C0" stroke-miterlimit="10" width="86.5" height="33"/>
		<g>
			<path fill="#C0C0C0" d="M518.6,140.1c0-0.5-0.2-0.9-0.6-1.3c-0.4-0.4-1.1-0.7-2.2-0.9c-1.2-0.3-2.2-0.6-2.8-1.1s-0.9-1.1-0.9-1.9
				c0-0.8,0.3-1.5,1-2s1.6-0.8,2.7-0.8c1.2,0,2.1,0.3,2.8,0.9c0.7,0.6,1,1.3,1,2.2l0,0.1h-1.1c0-0.6-0.2-1.1-0.7-1.5
				c-0.5-0.4-1.2-0.6-2-0.6c-0.8,0-1.5,0.2-1.9,0.6c-0.4,0.4-0.6,0.8-0.6,1.3c0,0.5,0.2,0.9,0.6,1.2c0.4,0.3,1.1,0.6,2.2,0.8
				c1.2,0.3,2.2,0.7,2.8,1.1c0.6,0.5,1,1.1,1,2c0,0.9-0.4,1.6-1.1,2.1c-0.7,0.5-1.7,0.8-2.8,0.8c-1.3,0-2.3-0.3-3-0.9
				c-0.7-0.6-1.1-1.3-1-2.2l0-0.1h1.1c0,0.8,0.4,1.3,0.9,1.7c0.6,0.3,1.3,0.5,2,0.5c0.8,0,1.5-0.2,2-0.6
				C518.4,141.1,518.6,140.6,518.6,140.1z"/>
			<path fill="#C0C0C0" d="M524.2,142.8h-1.2v-14.2h1.2V142.8z"/>
			<path fill="#C0C0C0" d="M532.2,140.3l0.3,1h0.1l0.3-1l4.3-11.7h1.3l-5.3,14.2h-1.1l-5.3-14.2h1.3L532.2,140.3z"/>
			<path fill="#C0C0C0" d="M563.9,142.4c-0.5,0.2-1.5,0.6-2.8,0.6c-2.9,0-4.8-2-4.8-4.9c0-3,2-5.1,5.2-5.1c1,0,2,0.3,2.4,0.5
				l-0.4,1.4c-0.4-0.2-1.1-0.5-2-0.5c-2.2,0-3.4,1.6-3.4,3.7c0,2.2,1.4,3.6,3.4,3.6c1,0,1.7-0.3,2.2-0.5L563.9,142.4z"/>
			<path fill="#C0C0C0" d="M567.8,129.3v13.5H566v-13.5H567.8z"/>
			<path fill="#C0C0C0" d="M573.8,142.8l-4.4-13.5h1.9l2.1,6.6c0.6,1.8,1.1,3.5,1.4,5h0c0.4-1.6,0.9-3.3,1.5-5l2.3-6.7h1.9
				l-4.8,13.5H573.8z"/>
		</g>
		<g>
			<path fill="#C0C0BF" d="M542.2,136.1c0,3,2.4,5.4,5.4,5.4c3,0,5.4-2.4,5.4-5.4c0-3-2.4-5.4-5.4-5.4
				C544.6,130.7,542.2,133.1,542.2,136.1z M547.5,140.9c-2.7,0-4.8-2.2-4.8-4.8s2.2-4.8,4.8-4.8c2.7,0,4.8,2.2,4.8,4.8
				C552.4,138.7,550.2,140.9,547.5,140.9z M547.8,135.8v-3.5h-0.5v3.5h-3.5v0.5h3.5v3.5h0.5v-3.5h3.5v-0.5H547.8z"/>
		</g>
	</g>
	<g>
		<g>
			<path fill="#C0C0C0" d="M653.5,256.1c0-0.5-0.2-0.9-0.6-1.3c-0.4-0.4-1.1-0.7-2.2-0.9c-1.2-0.3-2.2-0.6-2.8-1.1s-0.9-1.1-0.9-1.9
				c0-0.8,0.3-1.5,1-2s1.6-0.8,2.7-0.8c1.2,0,2.1,0.3,2.8,0.9c0.7,0.6,1,1.3,1,2.2l0,0.1h-1.1c0-0.6-0.2-1.1-0.7-1.5
				c-0.5-0.4-1.2-0.6-2-0.6c-0.8,0-1.5,0.2-1.9,0.6c-0.4,0.4-0.6,0.8-0.6,1.3c0,0.5,0.2,0.9,0.6,1.2c0.4,0.3,1.1,0.6,2.2,0.8
				c1.2,0.3,2.2,0.7,2.8,1.1c0.6,0.5,1,1.1,1,2c0,0.9-0.4,1.6-1.1,2.1c-0.7,0.5-1.7,0.8-2.8,0.8c-1.3,0-2.3-0.3-3-0.9
				c-0.7-0.6-1.1-1.3-1-2.2l0-0.1h1.1c0,0.8,0.4,1.3,0.9,1.7c0.6,0.3,1.3,0.5,2,0.5c0.8,0,1.5-0.2,2-0.6
				C653.2,257.1,653.5,256.7,653.5,256.1z"/>
			<path fill="#C0C0C0" d="M665.6,255.4c0-0.7-0.3-1.3-0.9-1.8c-0.6-0.5-1.6-0.9-2.9-1.3c-1.5-0.4-2.7-0.9-3.5-1.6
				c-0.8-0.6-1.2-1.5-1.2-2.5c0-1.1,0.4-2,1.3-2.7s2-1,3.4-1c1.4,0,2.6,0.4,3.5,1.2c0.9,0.8,1.3,1.8,1.3,3l0,0.1h-1.1
				c0-0.9-0.3-1.7-1-2.3c-0.7-0.6-1.6-0.9-2.6-0.9c-1.1,0-2,0.3-2.6,0.8s-0.9,1.2-0.9,1.9c0,0.7,0.3,1.3,0.9,1.8
				c0.6,0.5,1.6,0.9,3,1.3c1.5,0.4,2.6,1,3.4,1.6s1.2,1.5,1.2,2.5c0,1.1-0.5,2-1.4,2.7c-0.9,0.7-2.1,1-3.5,1c-1.4,0-2.6-0.4-3.7-1.1
				c-1-0.7-1.5-1.8-1.5-3.1l0-0.1h1.1c0,1.1,0.4,1.9,1.2,2.5s1.8,0.8,2.8,0.8c1.1,0,2-0.2,2.7-0.7
				C665.3,256.8,665.6,256.2,665.6,255.4z"/>
			<path fill="#C0C0C0" d="M677.1,254.9h-6.2l-1.4,4h-1.2l5.2-14.2h1.1l5.2,14.2h-1.2L677.1,254.9z M671.3,253.8h5.5l-2.7-7.5H674
				L671.3,253.8z"/>
			<path fill="#C0C0C0" d="M683.1,257.9h7.3v1h-8.5v-14.2h1.2V257.9z"/>
			<path fill="#C0C0C0" d="M699.9,245.6h-4.8v13.2h-1.2v-13.2h-5v-1h11V245.6z"/>
			<path fill="#C0C0C0" d="M725.2,258.1c0.7,0,1.4-0.2,2-0.7s0.9-1.1,0.9-1.8h1l0,0.1c0,1-0.4,1.8-1.2,2.5s-1.7,1-2.8,1
				c-1.4,0-2.5-0.5-3.3-1.5c-0.8-1-1.2-2.3-1.2-3.8v-0.4c0-1.5,0.4-2.8,1.2-3.8c0.8-1,1.9-1.5,3.3-1.5c1.1,0,2.1,0.3,2.8,1
				c0.8,0.7,1.1,1.6,1.1,2.7l0,0.1h-1c0-0.8-0.3-1.5-0.8-2c-0.6-0.5-1.2-0.8-2-0.8c-1.1,0-1.9,0.4-2.5,1.2s-0.8,1.8-0.8,3.1v0.4
				c0,1.2,0.3,2.3,0.8,3.1C723.3,257.7,724.1,258.1,725.2,258.1z"/>
			<path fill="#C0C0C0" d="M739.9,255.4c0-0.7-0.3-1.3-0.9-1.8c-0.6-0.5-1.6-0.9-2.9-1.3c-1.5-0.4-2.7-0.9-3.5-1.6
				c-0.8-0.6-1.2-1.5-1.2-2.5c0-1.1,0.4-2,1.3-2.7s2-1,3.4-1c1.4,0,2.6,0.4,3.5,1.2c0.9,0.8,1.3,1.8,1.3,3l0,0.1h-1.1
				c0-0.9-0.3-1.7-1-2.3s-1.6-0.9-2.6-0.9c-1.1,0-2,0.3-2.6,0.8c-0.6,0.5-0.9,1.2-0.9,1.9c0,0.7,0.3,1.3,0.9,1.8
				c0.6,0.5,1.6,0.9,3,1.3c1.5,0.4,2.6,1,3.4,1.6s1.2,1.5,1.2,2.5c0,1.1-0.5,2-1.4,2.7c-0.9,0.7-2.1,1-3.5,1c-1.4,0-2.6-0.4-3.7-1.1
				c-1-0.7-1.5-1.8-1.5-3.1l0-0.1h1.1c0,1.1,0.4,1.9,1.2,2.5s1.8,0.8,2.8,0.8c1.1,0,2-0.2,2.7-0.7
				C739.6,256.8,739.9,256.2,739.9,255.4z"/>
			<path fill="#C0C0C0" d="M751.4,254.9h-6.2l-1.4,4h-1.2l5.2-14.2h1.1l5.2,14.2h-1.2L751.4,254.9z M745.6,253.8h5.5l-2.7-7.5h-0.1
				L745.6,253.8z"/>
			<path fill="#C0C0C0" d="M757.4,257.9h7.3v1h-8.5v-14.2h1.2V257.9z"/>
			<path fill="#C0C0C0" d="M774.2,245.6h-4.8v13.2h-1.2v-13.2h-5v-1h11V245.6z"/>
		</g>
		<g>
			<path fill="#C0C0BF" d="M704.4,252.3c0,3,2.4,5.4,5.4,5.4c3,0,5.4-2.4,5.4-5.4c0-3-2.4-5.4-5.4-5.4
				C706.8,246.9,704.4,249.3,704.4,252.3z M709.8,257.1c-2.7,0-4.8-2.2-4.8-4.8s2.2-4.8,4.8-4.8c2.7,0,4.8,2.2,4.8,4.8
				C714.6,254.9,712.5,257.1,709.8,257.1z M710,252v-3.5h-0.5v3.5H706v0.5h3.5v3.5h0.5v-3.5h3.5V252H710z"/>
		</g>
		<rect x="637.1" y="235.8" fill="none" stroke="#C0C0C0" stroke-miterlimit="10" width="147" height="33"/>
	</g>
	<g>
		<g>
			<path fill="#C0C0C0" d="M693.8,140.2c0-0.5-0.2-0.9-0.6-1.3c-0.4-0.4-1.1-0.7-2.2-0.9c-1.2-0.3-2.2-0.6-2.8-1.1s-0.9-1.1-0.9-1.9
				c0-0.8,0.3-1.5,1-2s1.6-0.8,2.7-0.8c1.2,0,2.1,0.3,2.8,0.9c0.7,0.6,1,1.3,1,2.2l0,0.1h-1.1c0-0.6-0.2-1.1-0.7-1.5
				c-0.5-0.4-1.2-0.6-2-0.6c-0.8,0-1.5,0.2-1.9,0.6c-0.4,0.4-0.6,0.8-0.6,1.3c0,0.5,0.2,0.9,0.6,1.2c0.4,0.3,1.1,0.6,2.2,0.8
				c1.2,0.3,2.2,0.7,2.8,1.1c0.6,0.5,1,1.1,1,2c0,0.9-0.4,1.6-1.1,2.1c-0.7,0.5-1.7,0.8-2.8,0.8c-1.3,0-2.3-0.3-3-0.9
				c-0.7-0.6-1.1-1.3-1-2.2l0-0.1h1.1c0,0.8,0.4,1.3,0.9,1.7c0.6,0.3,1.3,0.5,2,0.5c0.8,0,1.5-0.2,2-0.6S693.8,140.7,693.8,140.2z"
				/>
			<path fill="#C0C0C0" d="M705.3,138.9h-6.2l-1.4,4h-1.2l5.2-14.2h1.1l5.2,14.2h-1.2L705.3,138.9z M699.5,137.9h5.5l-2.7-7.5h-0.1
				L699.5,137.9z"/>
			<path fill="#C0C0C0" d="M710.2,142.9v-14.2h4.3c1.7,0,3.2,0.6,4.3,1.7c1.1,1.2,1.7,2.6,1.7,4.5v1.8c0,1.8-0.6,3.3-1.7,4.5
				c-1.1,1.2-2.6,1.7-4.3,1.7H710.2z M711.3,129.7v12.2h3.2c1.4,0,2.6-0.5,3.5-1.5c0.9-1,1.4-2.2,1.4-3.7v-1.9
				c0-1.5-0.5-2.7-1.4-3.7s-2.1-1.5-3.5-1.5H711.3z"/>
			<path fill="#C0C0C0" d="M730.8,138.9h-6.2l-1.4,4H722l5.2-14.2h1.1l5.2,14.2h-1.2L730.8,138.9z M725,137.9h5.5l-2.7-7.5h-0.1
				L725,137.9z"/>
			<path fill="#C0C0C0" d="M744.1,129.7h-4.8v13.2h-1.2v-13.2h-5v-1h11V129.7z"/>
			<path fill="#C0C0C0" d="M753,138.9h-6.2l-1.4,4h-1.2l5.2-14.2h1.1l5.2,14.2h-1.2L753,138.9z M747.2,137.9h5.5l-2.7-7.5h-0.1
				L747.2,137.9z"/>
			<path fill="#C0C0C0" d="M780.9,142.1c0.7,0,1.4-0.2,2-0.7s0.9-1.1,0.9-1.8h1l0,0.1c0,1-0.4,1.8-1.2,2.5s-1.7,1-2.8,1
				c-1.4,0-2.5-0.5-3.3-1.5c-0.8-1-1.2-2.3-1.2-3.8v-0.4c0-1.5,0.4-2.8,1.2-3.8c0.8-1,1.9-1.5,3.3-1.5c1.1,0,2.1,0.3,2.8,1
				c0.8,0.7,1.1,1.6,1.1,2.7l0,0.1h-1c0-0.8-0.3-1.5-0.8-2c-0.6-0.5-1.2-0.8-2-0.8c-1.1,0-1.9,0.4-2.5,1.2s-0.8,1.8-0.8,3.1v0.4
				c0,1.2,0.3,2.3,0.8,3.1C778.9,141.7,779.8,142.1,780.9,142.1z"/>
			<path fill="#C0C0C0" d="M795,138.9h-6.2l-1.4,4h-1.2l5.2-14.2h1.1l5.2,14.2h-1.2L795,138.9z M789.1,137.9h5.5l-2.7-7.5h-0.1
				L789.1,137.9z"/>
			<path fill="#C0C0C0" d="M799.8,142.9v-14.2h4.3c1.7,0,3.2,0.6,4.3,1.7c1.1,1.2,1.7,2.6,1.7,4.5v1.8c0,1.8-0.6,3.3-1.7,4.5
				c-1.1,1.2-2.6,1.7-4.3,1.7H799.8z M801,129.7v12.2h3.2c1.4,0,2.6-0.5,3.5-1.5c0.9-1,1.4-2.2,1.4-3.7v-1.9c0-1.5-0.5-2.7-1.4-3.7
				s-2.1-1.5-3.5-1.5H801z"/>
			<path fill="#C0C0C0" d="M820.5,138.9h-6.2l-1.4,4h-1.2l5.2-14.2h1.1l5.2,14.2h-1.2L820.5,138.9z M814.6,137.9h5.5l-2.7-7.5h-0.1
				L814.6,137.9z"/>
			<path fill="#C0C0C0" d="M833.7,129.7h-4.8v13.2h-1.2v-13.2h-5v-1h11V129.7z"/>
			<path fill="#C0C0C0" d="M842.7,138.9h-6.2l-1.4,4h-1.2l5.2-14.2h1.1l5.2,14.2h-1.2L842.7,138.9z M836.8,137.9h5.5l-2.7-7.5h-0.1
				L836.8,137.9z"/>
		</g>
		<g>
			<path fill="#C0C0BF" d="M761.3,136.2c0,3,2.4,5.4,5.4,5.4c3,0,5.4-2.4,5.4-5.4c0-3-2.4-5.4-5.4-5.4
				C763.7,130.8,761.3,133.2,761.3,136.2z M766.7,141.1c-2.7,0-4.8-2.2-4.8-4.8s2.2-4.8,4.8-4.8c2.7,0,4.8,2.2,4.8,4.8
				C771.5,138.8,769.4,141.1,766.7,141.1z M766.9,135.9v-3.5h-0.5v3.5h-3.5v0.5h3.5v3.5h0.5v-3.5h3.5v-0.5H766.9z"/>
		</g>
		<rect x="674.7" y="119.7" fill="none" stroke="#C0C0C0" stroke-miterlimit="10" width="184.5" height="33"/>
	</g>
	<g>
		<g>
			<path fill="#C0C0C0" d="M565.7,252.9v5.9h-1.2v-14.2h4.9c1.5,0,2.6,0.4,3.5,1.1s1.2,1.8,1.2,3c0,1.3-0.4,2.3-1.2,3
				s-2,1.1-3.5,1.1H565.7z M565.7,252h3.7c1.2,0,2-0.3,2.6-0.9c0.6-0.6,0.9-1.3,0.9-2.2c0-0.9-0.3-1.7-0.9-2.3
				c-0.6-0.6-1.5-0.9-2.6-0.9h-3.7V252z"/>
			<path fill="#C0C0C0" d="M583,254.9h-6.2l-1.4,4h-1.2l5.2-14.2h1.1l5.2,14.2h-1.2L583,254.9z M577.1,253.8h5.5l-2.7-7.5h-0.1
				L577.1,253.8z"/>
			<path fill="#C0C0C0" d="M595.8,255.4c0-0.7-0.3-1.3-0.9-1.8c-0.6-0.5-1.6-0.9-2.9-1.3c-1.5-0.4-2.7-0.9-3.5-1.6
				c-0.8-0.6-1.2-1.5-1.2-2.5c0-1.1,0.4-2,1.3-2.7s2-1,3.4-1c1.4,0,2.6,0.4,3.5,1.2c0.9,0.8,1.3,1.8,1.3,3l0,0.1h-1.1
				c0-0.9-0.3-1.7-1-2.3c-0.7-0.6-1.6-0.9-2.6-0.9c-1.1,0-2,0.3-2.6,0.8s-0.9,1.2-0.9,1.9c0,0.7,0.3,1.3,0.9,1.8
				c0.6,0.5,1.6,0.9,3,1.3c1.5,0.4,2.6,1,3.4,1.6s1.2,1.5,1.2,2.5c0,1.1-0.5,2-1.4,2.7c-0.9,0.7-2.1,1-3.5,1c-1.4,0-2.6-0.4-3.7-1.1
				c-1-0.7-1.5-1.8-1.5-3.1l0-0.1h1.1c0,1.1,0.4,1.9,1.2,2.5s1.8,0.8,2.8,0.8c1.1,0,2-0.2,2.7-0.7
				C595.4,256.8,595.8,256.2,595.8,255.4z"/>
			<path fill="#C0C0C0" d="M607.9,255.4c0-0.7-0.3-1.3-0.9-1.8c-0.6-0.5-1.6-0.9-2.9-1.3c-1.5-0.4-2.7-0.9-3.5-1.6
				c-0.8-0.6-1.2-1.5-1.2-2.5c0-1.1,0.4-2,1.3-2.7s2-1,3.4-1c1.4,0,2.6,0.4,3.5,1.2c0.9,0.8,1.3,1.8,1.3,3l0,0.1h-1.1
				c0-0.9-0.3-1.7-1-2.3s-1.6-0.9-2.6-0.9c-1.1,0-2,0.3-2.6,0.8s-0.9,1.2-0.9,1.9c0,0.7,0.3,1.3,0.9,1.8c0.6,0.5,1.6,0.9,3,1.3
				c1.5,0.4,2.6,1,3.4,1.6s1.2,1.5,1.2,2.5c0,1.1-0.5,2-1.4,2.7c-0.9,0.7-2.1,1-3.5,1s-2.6-0.4-3.7-1.1c-1-0.7-1.5-1.8-1.5-3.1
				l0-0.1h1.1c0,1.1,0.4,1.9,1.2,2.5s1.8,0.8,2.8,0.8c1.1,0,2-0.2,2.7-0.7C607.5,256.8,607.9,256.2,607.9,255.4z"/>
		</g>
		<g>
			<g>
				<polyline fill="none" stroke="#C0C0C0" stroke-miterlimit="10" points="623.5,262.8 623.5,268.8 617.5,268.8 				"/>
				
					<line fill="none" stroke="#C0C0C0" stroke-miterlimit="10" stroke-dasharray="12.0397,12.0397" x1="605.5" y1="268.8" x2="563.3" y2="268.8"/>
				<polyline fill="none" stroke="#C0C0C0" stroke-miterlimit="10" points="557.3,268.8 551.3,268.8 551.3,262.8 				"/>
				
					<line fill="none" stroke="#C0C0C0" stroke-miterlimit="10" stroke-dasharray="6.9932,6.9932" x1="551.3" y1="255.8" x2="551.3" y2="245.3"/>
				<polyline fill="none" stroke="#C0C0C0" stroke-miterlimit="10" points="551.3,241.8 551.3,235.8 557.3,235.8 				"/>
				
					<line fill="none" stroke="#C0C0C0" stroke-miterlimit="10" stroke-dasharray="12.0397,12.0397" x1="569.4" y1="235.8" x2="611.5" y2="235.8"/>
				<polyline fill="none" stroke="#C0C0C0" stroke-miterlimit="10" points="617.5,235.8 623.5,235.8 623.5,241.8 				"/>
				
					<line fill="none" stroke="#C0C0C0" stroke-miterlimit="10" stroke-dasharray="6.9932,6.9932" x1="623.5" y1="248.8" x2="623.5" y2="259.3"/>
			</g>
		</g>
	</g>
	<g>
		<g>
			<path fill="#C0C0C0" d="M618.1,136h-1.5v6.7h-1.2v-14.2h1.2v6.5h1.5l5.6-6.5h1.3l0,0l-5.9,6.8l6.5,7.3l0,0h-1.4L618.1,136z"/>
			<path fill="#C0C0C0" d="M635.3,135.9h-6.4v5.9h7.4v1h-8.5v-14.2h8.5v1h-7.3v5.3h6.4V135.9z"/>
			<path fill="#C0C0C0" d="M643,136.5l4.4-7.9h1.4l-5.2,9v5.2h-1.2v-5.2l-5.1-9h1.4L643,136.5z"/>
		</g>
		<g>
			<g>
				<polyline fill="none" stroke="#C0C0C0" stroke-miterlimit="10" points="663.2,146.7 663.2,152.7 657.2,152.7 				"/>
				
					<line fill="none" stroke="#C0C0C0" stroke-miterlimit="10" stroke-dasharray="9.7479,9.7479" x1="647.4" y1="152.7" x2="613.3" y2="152.7"/>
				<polyline fill="none" stroke="#C0C0C0" stroke-miterlimit="10" points="608.4,152.7 602.4,152.7 602.4,146.7 				"/>
				
					<line fill="none" stroke="#C0C0C0" stroke-miterlimit="10" stroke-dasharray="6.9932,6.9932" x1="602.4" y1="139.7" x2="602.4" y2="129.2"/>
				<polyline fill="none" stroke="#C0C0C0" stroke-miterlimit="10" points="602.4,125.7 602.4,119.7 608.4,119.7 				"/>
				
					<line fill="none" stroke="#C0C0C0" stroke-miterlimit="10" stroke-dasharray="9.7479,9.7479" x1="618.2" y1="119.7" x2="652.3" y2="119.7"/>
				<polyline fill="none" stroke="#C0C0C0" stroke-miterlimit="10" points="657.2,119.7 663.2,119.7 663.2,125.7 				"/>
				
					<line fill="none" stroke="#C0C0C0" stroke-miterlimit="10" stroke-dasharray="6.9932,6.9932" x1="663.2" y1="132.7" x2="663.2" y2="143.2"/>
			</g>
		</g>
	</g>
	<g>
		<g>
			<line fill="none" stroke="#C0C0C0" stroke-miterlimit="10" x1="595.4" y1="235.8" x2="628.5" y2="215.5"/>
			<g>
				<polygon fill="#C0C0C0" points="629.1,218 631.5,213.6 626.5,213.8 				"/>
			</g>
		</g>
	</g>
	<g>
		<g>
			<line fill="none" stroke="#C0C0C0" stroke-miterlimit="10" x1="671.3" y1="235.8" x2="638.2" y2="215.5"/>
			<g>
				<polygon fill="#C0C0C0" points="640.2,213.8 635.2,213.6 637.6,218 				"/>
			</g>
		</g>
	</g>
	<g>
		<g>
			<path fill="#C0C0C0" d="M598.3,190.5v5.9h-1.2v-14.2h4.9c1.5,0,2.6,0.4,3.5,1.1s1.2,1.8,1.2,3c0,1.3-0.4,2.3-1.2,3
				s-2,1.1-3.5,1.1H598.3z M598.3,189.5h3.7c1.2,0,2-0.3,2.6-0.9c0.6-0.6,0.9-1.3,0.9-2.2c0-0.9-0.3-1.7-0.9-2.3
				c-0.6-0.6-1.5-0.9-2.6-0.9h-3.7V189.5z"/>
			<path fill="#C0C0C0" d="M609.5,196.4v-14.2h4.1c1.5,0,2.6,0.3,3.5,0.9s1.2,1.6,1.2,2.8c0,0.7-0.2,1.3-0.6,1.9s-0.9,0.9-1.6,1.1
				c0.9,0.1,1.6,0.5,2.2,1.2c0.6,0.7,0.9,1.5,0.9,2.4c0,1.3-0.4,2.2-1.2,2.9c-0.8,0.7-1.9,1-3.3,1H609.5z M610.7,188.5h3.4
				c1,0,1.7-0.3,2.3-0.7c0.5-0.5,0.8-1.1,0.8-2c0-0.9-0.3-1.6-0.9-2s-1.5-0.7-2.6-0.7h-3V188.5z M610.7,189.5v5.9h4
				c1,0,1.9-0.3,2.5-0.8c0.6-0.5,0.9-1.2,0.9-2.2c0-0.9-0.3-1.5-0.9-2.1s-1.4-0.8-2.4-0.8h-0.2H610.7z"/>
			<path fill="#C0C0C0" d="M624.5,189.6H623v6.7h-1.2v-14.2h1.2v6.5h1.5l5.6-6.5h1.3l0,0l-5.9,6.8l6.5,7.3l0,0h-1.4L624.5,189.6z"/>
			<path fill="#C0C0C0" d="M634.1,196.4v-14.2h4.3c1.7,0,3.2,0.6,4.3,1.7c1.1,1.2,1.7,2.6,1.7,4.5v1.8c0,1.8-0.6,3.3-1.7,4.5
				c-1.1,1.2-2.6,1.7-4.3,1.7H634.1z M635.3,183.2v12.2h3.2c1.4,0,2.6-0.5,3.5-1.5s1.4-2.2,1.4-3.7v-1.9c0-1.5-0.5-2.7-1.4-3.7
				s-2.1-1.5-3.5-1.5H635.3z"/>
			<path fill="#C0C0C0" d="M655.3,189.7h-6.5v6.7h-1.2v-14.2h8.7v1h-7.5v5.6h6.5V189.7z"/>
			<path fill="#C0C0C0" d="M666.9,196.4h-8.6v-0.9l4.7-5.5c0.8-1,1.4-1.8,1.7-2.4c0.3-0.6,0.5-1.2,0.5-1.9c0-0.9-0.2-1.5-0.7-2
				c-0.5-0.5-1.2-0.7-2.1-0.7c-1,0-1.8,0.3-2.3,0.9c-0.5,0.6-0.8,1.4-0.8,2.3h-1.1l0-0.1c0-1.2,0.3-2.1,1.1-2.9
				c0.8-0.8,1.8-1.2,3.2-1.2c1.2,0,2.2,0.3,2.9,1c0.7,0.7,1.1,1.6,1.1,2.8c0,0.8-0.2,1.5-0.7,2.3s-1.1,1.7-2,2.8l-3.8,4.5l0,0h7.2
				V196.4z"/>
		</g>
		<path fill="none" stroke="#C0C0C0" stroke-miterlimit="10" d="M662.6,211.3H603c-10.5,0-19.1-8.5-19.1-19.1v0
			c0-10.5,8.5-19.1,19.1-19.1h59.6c10.5,0,19.1,8.5,19.1,19.1v0C681.6,202.8,673.1,211.3,662.6,211.3z"/>
		<g>
			<path fill="#C0C0C0" d="M600.5,202h-0.4v-2.1h-2.6v2.1h-0.4v-4.6h0.4v2.2h2.6v-2.2h0.4V202z"/>
			<path fill="#C0C0C0" d="M603.8,201.5L603.8,201.5l1.7-4h0.5v4.6h-0.4v-3.8l0,0L604,202h-0.3l-1.7-3.9l0,0v3.9h-0.4v-4.6h0.5
				L603.8,201.5z"/>
			<path fill="#C0C0C0" d="M609.6,200.7h-2l-0.5,1.3h-0.4l1.7-4.6h0.4l1.7,4.6h-0.4L609.6,200.7z M607.8,200.4h1.8l-0.9-2.4h0
				L607.8,200.4z"/>
			<path fill="#C0C0C0" d="M614.3,200.6L614.3,200.6c0,0.5-0.1,0.8-0.4,1.1c-0.3,0.3-0.7,0.4-1.2,0.4c-0.5,0-0.9-0.2-1.2-0.6
				c-0.3-0.4-0.5-0.8-0.5-1.4v-0.7c0-0.6,0.2-1.1,0.5-1.4s0.7-0.6,1.2-0.6c0.5,0,0.9,0.1,1.2,0.4c0.3,0.3,0.4,0.6,0.4,1.1l0,0H614
				c0-0.4-0.1-0.7-0.3-0.9c-0.2-0.2-0.5-0.3-0.9-0.3c-0.4,0-0.7,0.2-1,0.5c-0.2,0.3-0.4,0.7-0.4,1.2v0.8c0,0.5,0.1,0.9,0.4,1.2
				c0.2,0.3,0.6,0.5,1,0.5c0.4,0,0.7-0.1,0.9-0.3c0.2-0.2,0.3-0.5,0.3-0.9H614.3z"/>
			<path fill="#C0C0C0" d="M617,200.2h-1.9v-0.3h1.9V200.2z"/>
			<path fill="#C0C0C0" d="M620.6,200.9c0-0.2-0.1-0.4-0.3-0.6s-0.5-0.3-1-0.4c-0.5-0.1-0.9-0.3-1.1-0.5s-0.4-0.5-0.4-0.8
				c0-0.4,0.1-0.6,0.4-0.9c0.3-0.2,0.7-0.3,1.1-0.3c0.5,0,0.8,0.1,1.1,0.4c0.3,0.3,0.4,0.6,0.4,1l0,0h-0.4c0-0.3-0.1-0.6-0.3-0.8
				c-0.2-0.2-0.5-0.3-0.8-0.3c-0.4,0-0.6,0.1-0.8,0.3c-0.2,0.2-0.3,0.4-0.3,0.6c0,0.2,0.1,0.4,0.3,0.6c0.2,0.2,0.5,0.3,1,0.4
				c0.5,0.1,0.9,0.3,1.1,0.5c0.3,0.2,0.4,0.5,0.4,0.8c0,0.4-0.1,0.6-0.4,0.9c-0.3,0.2-0.7,0.3-1.1,0.3c-0.5,0-0.8-0.1-1.2-0.3
				s-0.5-0.6-0.5-1l0,0h0.3c0,0.4,0.1,0.6,0.4,0.8s0.6,0.3,0.9,0.3c0.4,0,0.6-0.1,0.9-0.2C620.5,201.4,620.6,201.2,620.6,200.9z"/>
			<path fill="#C0C0C0" d="M625.2,202h-0.4v-2.1h-2.6v2.1h-0.4v-4.6h0.4v2.2h2.6v-2.2h0.4V202z"/>
			<path fill="#C0C0C0" d="M628.9,200.7h-2l-0.5,1.3H626l1.7-4.6h0.4l1.7,4.6h-0.4L628.9,200.7z M627,200.4h1.8l-0.9-2.4h0
				L627,200.4z"/>
			<path fill="#C0C0C0" d="M633.1,202h-2.8v-0.3l1.5-1.8c0.3-0.3,0.5-0.6,0.6-0.8c0.1-0.2,0.2-0.4,0.2-0.6c0-0.3-0.1-0.5-0.2-0.7
				c-0.1-0.2-0.4-0.2-0.7-0.2c-0.3,0-0.6,0.1-0.8,0.3c-0.2,0.2-0.3,0.4-0.3,0.7h-0.4l0,0c0-0.4,0.1-0.7,0.4-0.9
				c0.3-0.3,0.6-0.4,1-0.4c0.4,0,0.7,0.1,0.9,0.3c0.2,0.2,0.3,0.5,0.3,0.9c0,0.2-0.1,0.5-0.2,0.7c-0.1,0.2-0.4,0.5-0.7,0.9l-1.2,1.4
				l0,0h2.3V202z"/>
			<path fill="#C0C0C0" d="M634,200l0.3-2.5h2.2v0.3h-1.9l-0.2,1.6c0.1-0.1,0.2-0.2,0.4-0.2s0.3-0.1,0.6-0.1c0.4,0,0.7,0.1,0.9,0.4
				c0.2,0.3,0.4,0.6,0.4,1.1c0,0.5-0.1,0.8-0.3,1.1c-0.2,0.3-0.6,0.4-1,0.4c-0.4,0-0.7-0.1-0.9-0.3c-0.3-0.2-0.4-0.5-0.4-0.9l0,0
				h0.3c0,0.3,0.1,0.5,0.3,0.7c0.2,0.2,0.4,0.2,0.7,0.2c0.3,0,0.6-0.1,0.8-0.3c0.2-0.2,0.3-0.5,0.3-0.9c0-0.3-0.1-0.6-0.3-0.8
				c-0.2-0.2-0.4-0.3-0.7-0.3c-0.3,0-0.5,0-0.7,0.1c-0.2,0.1-0.3,0.2-0.3,0.4L634,200z"/>
			<path fill="#C0C0C0" d="M638.9,197.4c0.2,0,0.3,0,0.5,0.1c0.2,0,0.3,0.1,0.4,0.2l-0.1,0.3c-0.1-0.1-0.3-0.1-0.4-0.1
				c-0.1,0-0.3,0-0.5,0c-0.3,0-0.6,0.1-0.8,0.4c-0.2,0.3-0.3,0.6-0.3,1v0.6c0.1-0.2,0.3-0.3,0.5-0.4s0.4-0.2,0.7-0.2
				c0.4,0,0.7,0.1,0.9,0.4c0.2,0.3,0.3,0.6,0.3,1.1c0,0.4-0.1,0.8-0.4,1.1c-0.3,0.3-0.6,0.4-1,0.4c-0.4,0-0.8-0.2-1-0.5
				c-0.3-0.3-0.4-0.7-0.4-1.3v-1.2c0-0.5,0.1-0.9,0.4-1.2C638.2,197.5,638.5,197.4,638.9,197.4z M638.9,199.4
				c-0.2,0-0.5,0.1-0.7,0.2c-0.2,0.1-0.3,0.3-0.4,0.5v0.2c0,0.4,0.1,0.8,0.3,1c0.2,0.3,0.4,0.4,0.8,0.4c0.3,0,0.6-0.1,0.7-0.3
				c0.2-0.2,0.3-0.5,0.3-0.8c0-0.4-0.1-0.7-0.3-0.9S639.2,199.4,638.9,199.4z"/>
			<path fill="#C0C0C0" d="M647.6,200.4c0,0.5-0.1,0.8-0.4,1.2c-0.2,0.3-0.6,0.5-1,0.5c-0.2,0-0.3-0.1-0.4-0.2
				c-0.1-0.1-0.2-0.3-0.2-0.4c-0.1,0.2-0.2,0.4-0.4,0.5s-0.4,0.2-0.6,0.2c-0.3,0-0.5-0.1-0.6-0.4c-0.1-0.3-0.2-0.6-0.2-1
				c0-0.5,0.2-1,0.4-1.3c0.2-0.3,0.5-0.5,0.9-0.5c0.2,0,0.4,0,0.5,0.1s0.3,0.1,0.4,0.3l0,0h0l-0.2,1.8c0,0.3,0,0.5,0.1,0.6
				s0.2,0.2,0.3,0.2c0.3,0,0.5-0.1,0.7-0.4c0.2-0.3,0.3-0.6,0.3-1c0-0.8-0.1-1.5-0.5-1.9s-0.9-0.7-1.7-0.7c-0.7,0-1.2,0.2-1.7,0.7
				c-0.4,0.5-0.7,1.1-0.7,1.9c0,0.8,0.1,1.4,0.5,1.9c0.4,0.5,0.9,0.7,1.6,0.7c0.2,0,0.4,0,0.6-0.1s0.3-0.1,0.5-0.2l0.1,0.2
				c-0.1,0.1-0.3,0.2-0.5,0.2c-0.2,0.1-0.4,0.1-0.6,0.1c-0.8,0-1.4-0.3-1.8-0.8c-0.4-0.5-0.6-1.2-0.6-2.1c0-0.9,0.3-1.6,0.8-2.1
				s1.1-0.8,1.9-0.8c0.8,0,1.4,0.3,1.8,0.8C647.5,198.8,647.7,199.5,647.6,200.4z M644.2,200.7c0,0.3,0,0.6,0.1,0.8
				c0.1,0.2,0.2,0.3,0.4,0.3c0.2,0,0.3,0,0.5-0.1c0.1-0.1,0.3-0.3,0.4-0.5c0,0,0,0,0,0c0,0,0,0,0,0l0.1-1.7c-0.1,0-0.1-0.1-0.2-0.1
				s-0.2,0-0.3,0c-0.3,0-0.5,0.1-0.7,0.4C644.4,199.9,644.3,200.2,644.2,200.7z"/>
			<path fill="#C0C0C0" d="M651.3,199.5c0.3,0,0.6-0.1,0.8-0.2s0.3-0.4,0.3-0.6c0-0.3-0.1-0.5-0.2-0.7c-0.2-0.2-0.4-0.3-0.7-0.3
				c-0.3,0-0.5,0.1-0.7,0.3c-0.2,0.2-0.3,0.4-0.3,0.7H650l0,0c0-0.4,0.1-0.7,0.4-0.9c0.3-0.2,0.6-0.4,1-0.4c0.4,0,0.7,0.1,1,0.3
				c0.2,0.2,0.4,0.5,0.4,0.9c0,0.2-0.1,0.4-0.2,0.6s-0.3,0.3-0.5,0.4c0.3,0.1,0.5,0.2,0.6,0.4c0.1,0.2,0.2,0.4,0.2,0.7
				c0,0.4-0.1,0.7-0.4,1s-0.6,0.3-1,0.3c-0.4,0-0.7-0.1-1-0.3s-0.4-0.5-0.4-0.9l0,0h0.4c0,0.3,0.1,0.5,0.3,0.7
				c0.2,0.2,0.5,0.3,0.8,0.3c0.3,0,0.6-0.1,0.7-0.3c0.2-0.2,0.3-0.4,0.3-0.7c0-0.3-0.1-0.6-0.3-0.7s-0.5-0.2-0.8-0.2h-0.4v-0.3
				H651.3z"/>
			<path fill="#C0C0C0" d="M656.3,200.4c0,0.5-0.1,0.9-0.4,1.2s-0.6,0.5-1,0.5c-0.4,0-0.8-0.2-1-0.5c-0.3-0.3-0.4-0.7-0.4-1.2v-1.3
				c0-0.5,0.1-0.9,0.4-1.2s0.6-0.5,1-0.5s0.8,0.2,1,0.5s0.4,0.7,0.4,1.2V200.4z M656,199c0-0.4-0.1-0.7-0.3-1
				c-0.2-0.2-0.4-0.4-0.8-0.4s-0.6,0.1-0.8,0.4c-0.2,0.2-0.3,0.6-0.3,1v1.5c0,0.4,0.1,0.7,0.3,1c0.2,0.2,0.4,0.4,0.8,0.4
				c0.3,0,0.6-0.1,0.8-0.4c0.2-0.2,0.3-0.6,0.3-1V199z"/>
			<path fill="#C0C0C0" d="M659.9,200.4c0,0.5-0.1,0.9-0.4,1.2c-0.3,0.3-0.6,0.5-1,0.5s-0.8-0.2-1-0.5c-0.3-0.3-0.4-0.7-0.4-1.2
				v-1.3c0-0.5,0.1-0.9,0.4-1.2s0.6-0.5,1-0.5c0.4,0,0.8,0.2,1,0.5c0.3,0.3,0.4,0.7,0.4,1.2V200.4z M659.5,199c0-0.4-0.1-0.7-0.3-1
				c-0.2-0.2-0.4-0.4-0.8-0.4c-0.3,0-0.6,0.1-0.8,0.4c-0.2,0.2-0.3,0.6-0.3,1v1.5c0,0.4,0.1,0.7,0.3,1s0.4,0.4,0.8,0.4
				c0.3,0,0.6-0.1,0.8-0.4c0.2-0.2,0.3-0.6,0.3-1V199z"/>
			<path fill="#C0C0C0" d="M663.5,200.4c0,0.5-0.1,0.9-0.4,1.2c-0.3,0.3-0.6,0.5-1,0.5c-0.4,0-0.8-0.2-1-0.5
				c-0.3-0.3-0.4-0.7-0.4-1.2v-1.3c0-0.5,0.1-0.9,0.4-1.2c0.3-0.3,0.6-0.5,1-0.5s0.8,0.2,1,0.5s0.4,0.7,0.4,1.2V200.4z M663.1,199
				c0-0.4-0.1-0.7-0.3-1c-0.2-0.2-0.4-0.4-0.8-0.4s-0.6,0.1-0.8,0.4c-0.2,0.2-0.3,0.6-0.3,1v1.5c0,0.4,0.1,0.7,0.3,1
				s0.4,0.4,0.8,0.4c0.3,0,0.6-0.1,0.8-0.4c0.2-0.2,0.3-0.6,0.3-1V199z"/>
			<path fill="#C0C0C0" d="M667.1,200.4c0,0.5-0.1,0.9-0.4,1.2c-0.3,0.3-0.6,0.5-1,0.5s-0.8-0.2-1-0.5c-0.3-0.3-0.4-0.7-0.4-1.2
				v-1.3c0-0.5,0.1-0.9,0.4-1.2c0.3-0.3,0.6-0.5,1-0.5c0.4,0,0.8,0.2,1,0.5c0.3,0.3,0.4,0.7,0.4,1.2V200.4z M666.7,199
				c0-0.4-0.1-0.7-0.3-1c-0.2-0.2-0.4-0.4-0.8-0.4c-0.3,0-0.6,0.1-0.8,0.4c-0.2,0.2-0.3,0.6-0.3,1v1.5c0,0.4,0.1,0.7,0.3,1
				c0.2,0.2,0.4,0.4,0.8,0.4c0.3,0,0.6-0.1,0.8-0.4c0.2-0.2,0.3-0.6,0.3-1V199z"/>
		</g>
	</g>
	<g>
		<g>
			<line fill="none" stroke="#C0C0C0" stroke-miterlimit="10" x1="632.8" y1="173.2" x2="632.8" y2="156.3"/>
			<g>
				<polygon fill="#C0C0C0" points="635.3,157 632.8,152.7 630.3,157 				"/>
			</g>
		</g>
	</g>
	<g>
		<g>
			<path fill="#C0C0C0" d="M581.2,82.7h-6.2l-1.4,4h-1.2l5.2-14.2h1.1l5.2,14.2h-1.2L581.2,82.7z M575.3,81.7h5.5l-2.7-7.5H578
				L575.3,81.7z"/>
			<path fill="#C0C0C0" d="M593.5,79.8h-6.4v5.9h7.4v1H586V72.5h8.5v1h-7.3v5.3h6.4V79.8z"/>
			<path fill="#C0C0C0" d="M605,83.2c0-0.7-0.3-1.3-0.9-1.8c-0.6-0.5-1.6-0.9-2.9-1.3c-1.5-0.4-2.7-0.9-3.5-1.6
				c-0.8-0.6-1.2-1.5-1.2-2.5c0-1.1,0.4-2,1.3-2.7s2-1,3.4-1c1.4,0,2.6,0.4,3.5,1.2c0.9,0.8,1.3,1.8,1.3,3l0,0.1h-1.1
				c0-0.9-0.3-1.7-1-2.3s-1.6-0.9-2.6-0.9c-1.1,0-2,0.3-2.6,0.8c-0.6,0.5-0.9,1.2-0.9,1.9c0,0.7,0.3,1.3,0.9,1.8
				c0.6,0.5,1.6,0.9,3,1.3c1.5,0.4,2.6,1,3.4,1.6s1.2,1.5,1.2,2.5c0,1.1-0.5,2-1.4,2.7c-0.9,0.7-2.1,1-3.5,1c-1.4,0-2.6-0.4-3.7-1.1
				c-1-0.7-1.5-1.8-1.5-3.1l0-0.1h1.1c0,1.1,0.4,1.9,1.2,2.5s1.8,0.8,2.8,0.8c1.1,0,2-0.2,2.7-0.7C604.7,84.7,605,84,605,83.2z"/>
			<path fill="#C0C0C0" d="M617.4,86.7h-8.6v-0.9l4.7-5.5c0.8-1,1.4-1.8,1.7-2.4c0.3-0.6,0.5-1.2,0.5-1.9c0-0.9-0.2-1.5-0.7-2
				c-0.5-0.5-1.2-0.7-2.1-0.7c-1,0-1.8,0.3-2.3,0.9c-0.5,0.6-0.8,1.4-0.8,2.3h-1.1l0-0.1c0-1.2,0.3-2.1,1.1-2.9
				c0.8-0.8,1.8-1.2,3.2-1.2c1.2,0,2.2,0.3,2.9,1c0.7,0.7,1.1,1.6,1.1,2.8c0,0.8-0.2,1.5-0.7,2.3s-1.1,1.7-2,2.8l-3.8,4.5l0,0h7.2
				V86.7z"/>
			<path fill="#C0C0C0" d="M620.2,80.3l0.8-7.8h6.9v1.1h-5.9l-0.5,5.1c0.4-0.3,0.8-0.6,1.2-0.8c0.4-0.2,1-0.3,1.7-0.3
				c1.2,0,2.2,0.4,2.9,1.2c0.7,0.8,1.1,1.9,1.1,3.3c0,1.4-0.4,2.6-1.1,3.4c-0.7,0.9-1.8,1.3-3.2,1.3c-1.2,0-2.1-0.3-2.9-1
				c-0.8-0.7-1.2-1.6-1.1-2.9l0-0.1h1.1c0,1,0.3,1.7,0.8,2.2c0.5,0.5,1.3,0.8,2.2,0.8c1.1,0,1.9-0.3,2.4-1c0.5-0.6,0.8-1.6,0.8-2.8
				c0-1.1-0.3-1.9-0.8-2.5c-0.5-0.6-1.3-0.9-2.2-0.9c-0.9,0-1.6,0.1-2.1,0.4c-0.5,0.3-0.8,0.7-1,1.3L620.2,80.3z"/>
			<path fill="#C0C0C0" d="M635.5,72.3c0.5,0,1.1,0.1,1.6,0.2c0.5,0.1,1,0.3,1.4,0.5l-0.3,1c-0.4-0.2-0.8-0.4-1.2-0.5
				c-0.4-0.1-0.9-0.2-1.4-0.2c-1,0-1.8,0.4-2.5,1.2c-0.6,0.8-1,1.8-1,3.1v2c0.4-0.5,0.9-1,1.5-1.3s1.3-0.5,2-0.5
				c1.3,0,2.2,0.4,2.9,1.2c0.7,0.8,1.1,1.9,1.1,3.3c0,1.4-0.4,2.5-1.2,3.4c-0.8,0.9-1.8,1.3-3.1,1.3c-1.3,0-2.3-0.5-3.2-1.5
				s-1.2-2.3-1.2-3.9v-3.8c0-1.6,0.4-2.9,1.3-3.9S634.2,72.3,635.5,72.3z M635.3,78.7c-0.8,0-1.4,0.2-2,0.6s-1,0.9-1.2,1.6v0.7
				c0,1.3,0.3,2.4,0.9,3.1c0.6,0.8,1.4,1.2,2.3,1.2c1,0,1.7-0.3,2.3-1c0.6-0.7,0.8-1.6,0.8-2.6c0-1.1-0.3-2-0.8-2.7
				S636.3,78.7,635.3,78.7z"/>
			<path fill="#C0C0C0" d="M647.5,81.1h-5.8v-1h5.8V81.1z"/>
			<path fill="#C0C0C0" d="M660.8,84.8c-0.3,0.5-0.9,1-1.7,1.4c-0.8,0.4-1.9,0.7-3.2,0.7c-1.6,0-3-0.6-4-1.7c-1-1.1-1.6-2.6-1.6-4.4
				v-2.6c0-1.8,0.5-3.2,1.5-4.3c1-1.1,2.3-1.7,3.9-1.7c1.5,0,2.8,0.4,3.7,1.2c0.9,0.8,1.3,1.8,1.3,3.1l0,0.1h-1.1c0-1-0.3-1.8-1-2.4
				s-1.6-1-2.9-1c-1.3,0-2.3,0.5-3.1,1.4c-0.8,0.9-1.2,2.1-1.2,3.6v2.6c0,1.5,0.4,2.7,1.2,3.7c0.8,0.9,1.9,1.4,3.2,1.4
				c1,0,1.8-0.2,2.4-0.4c0.6-0.3,1.1-0.6,1.3-1v-3.6h-3.8v-1h5V84.8z"/>
			<path fill="#C0C0C0" d="M674.2,82.3L674.2,82.3c0,1.5-0.4,2.6-1.3,3.4s-2.2,1.2-3.7,1.2c-1.6,0-2.9-0.6-3.8-1.7s-1.5-2.6-1.5-4.4
				v-2.3c0-1.8,0.5-3.3,1.5-4.4s2.2-1.7,3.8-1.7c1.5,0,2.8,0.4,3.7,1.2s1.4,1.9,1.4,3.4l0,0.1h-1.1c0-1.1-0.3-2-1-2.7
				c-0.7-0.6-1.7-1-2.9-1c-1.2,0-2.2,0.5-3,1.4c-0.8,1-1.1,2.2-1.1,3.7v2.3c0,1.5,0.4,2.8,1.1,3.7c0.8,1,1.7,1.4,3,1.4
				c1.2,0,2.2-0.3,2.9-0.9c0.7-0.6,1-1.5,1-2.7H674.2z"/>
			<path fill="#C0C0C0" d="M684.1,85L684.1,85l5.3-12.5h1.4v14.2h-1.2V74.8l-0.1,0l-5.1,11.9h-0.8l-5.2-12.2l-0.1,0v12.2h-1.2V72.5
				h1.6L684.1,85z"/>
		</g>
		<path fill="none" stroke="#C0C0C0" stroke-miterlimit="10" d="M688.1,96.5H577.5c-9.1,0-16.5-7.4-16.5-16.5v0
			c0-9.1,7.4-16.5,16.5-16.5h110.7c9.1,0,16.5,7.4,16.5,16.5v0C704.6,89.1,697.2,96.5,688.1,96.5z"/>
	</g>
	<g>
		<g>
			<line fill="none" stroke="#C0C0C0" stroke-miterlimit="10" x1="563.9" y1="119.7" x2="593.5" y2="101.2"/>
			<g>
				<polygon fill="#C0C0C0" points="594.2,103.7 596.5,99.3 591.5,99.5 				"/>
			</g>
		</g>
	</g>
	<g>
		<g>
			<line fill="none" stroke="#C0C0C0" stroke-miterlimit="10" x1="632.8" y1="119.7" x2="632.8" y2="102.9"/>
			<g>
				<polygon fill="#C0C0C0" points="635.3,103.6 632.8,99.3 630.3,103.6 				"/>
			</g>
		</g>
	</g>
	<g>
		<g>
			<line fill="none" stroke="#C0C0C0" stroke-miterlimit="10" x1="702.7" y1="119.7" x2="671.3" y2="101.1"/>
			<g>
				<polygon fill="#C0C0C0" points="673.2,99.4 668.2,99.3 670.6,103.6 				"/>
			</g>
		</g>
	</g>
	<g>
		<g>
			<path fill="#C0C0C0" d="M754.5,82.3L754.5,82.3c0,1.5-0.4,2.6-1.3,3.4s-2.2,1.2-3.7,1.2c-1.6,0-2.9-0.6-3.8-1.7s-1.5-2.6-1.5-4.4
				v-2.3c0-1.8,0.5-3.3,1.5-4.4s2.2-1.7,3.8-1.7c1.5,0,2.8,0.4,3.7,1.2s1.4,1.9,1.4,3.4l0,0.1h-1.1c0-1.1-0.3-2-1-2.7
				c-0.7-0.6-1.7-1-2.9-1c-1.2,0-2.2,0.5-3,1.4c-0.8,1-1.1,2.2-1.1,3.7v2.3c0,1.5,0.4,2.8,1.1,3.7c0.8,1,1.7,1.4,3,1.4
				c1.2,0,2.2-0.3,2.9-0.9c0.7-0.6,1-1.5,1-2.7H754.5z"/>
			<path fill="#C0C0C0" d="M759,86.7h-1.2V72.5h1.2V86.7z"/>
			<path fill="#C0C0C0" d="M764.1,80.8v5.9h-1.2V72.5h4.9c1.5,0,2.6,0.4,3.5,1.1s1.2,1.8,1.2,3c0,1.3-0.4,2.3-1.2,3s-2,1.1-3.5,1.1
				H764.1z M764.1,79.8h3.7c1.2,0,2-0.3,2.6-0.9c0.6-0.6,0.9-1.3,0.9-2.2c0-0.9-0.3-1.7-0.9-2.3c-0.6-0.6-1.5-0.9-2.6-0.9h-3.7V79.8
				z"/>
			<path fill="#C0C0C0" d="M785.7,86.7h-1.2v-6.5h-8.1v6.5h-1.2V72.5h1.2v6.7h8.1v-6.7h1.2V86.7z"/>
			<path fill="#C0C0C0" d="M796.8,79.8h-6.4v5.9h7.4v1h-8.5V72.5h8.5v1h-7.3v5.3h6.4V79.8z"/>
			<path fill="#C0C0C0" d="M801.5,80.3v6.4h-1.2V72.5h4.7c1.5,0,2.7,0.3,3.5,1s1.2,1.6,1.2,2.9c0,0.8-0.2,1.4-0.6,2
				c-0.4,0.6-1,1-1.8,1.3c0.9,0.2,1.5,0.6,1.9,1.2c0.4,0.6,0.6,1.3,0.6,2.1v1.3c0,0.4,0.1,0.8,0.2,1.2c0.1,0.4,0.3,0.6,0.5,0.9v0.2
				h-1.2c-0.2-0.2-0.4-0.6-0.5-1s-0.1-0.9-0.1-1.3v-1.3c0-0.9-0.3-1.6-0.8-2.1c-0.6-0.5-1.3-0.8-2.4-0.8H801.5z M801.5,79.3h3.4
				c1.3,0,2.2-0.3,2.8-0.8c0.6-0.5,0.9-1.2,0.9-2.1c0-0.9-0.3-1.7-0.9-2.2c-0.6-0.5-1.5-0.8-2.7-0.8h-3.6V79.3z"/>
			<path fill="#C0C0C0" d="M822.2,73.5h-4.8v13.2h-1.2V73.5h-5v-1h11V73.5z"/>
			<path fill="#C0C0C0" d="M832.1,79.8h-6.4v5.9h7.4v1h-8.5V72.5h8.5v1h-7.3v5.3h6.4V79.8z"/>
			<path fill="#C0C0C0" d="M839.8,78.6l4-6.1h1.4l-4.7,7l4.9,7.2H844l-4.2-6.3l-4.2,6.3h-1.4l4.9-7.2l-4.7-7h1.4L839.8,78.6z"/>
			<path fill="#C0C0C0" d="M857.5,73.5h-4.8v13.2h-1.2V73.5h-5v-1h11V73.5z"/>
		</g>
		<rect x="731.9" y="63.5" fill="none" stroke="#C0C0C0" stroke-miterlimit="10" width="137.6" height="33"/>
	</g>
	<g>
		<g>
			<path fill="#C0C0C0" d="M493.1,73.5h-4.8v13.2h-1.2V73.5h-5v-1h11V73.5z"/>
			<path fill="#C0C0C0" d="M502,82.7h-6.2l-1.4,4h-1.2l5.2-14.2h1.1l5.2,14.2h-1.2L502,82.7z M496.2,81.7h5.5l-2.7-7.5h-0.1
				L496.2,81.7z"/>
			<path fill="#C0C0C0" d="M516.9,84.8c-0.3,0.5-0.9,1-1.7,1.4c-0.8,0.4-1.9,0.7-3.2,0.7c-1.6,0-3-0.6-4-1.7c-1-1.1-1.6-2.6-1.6-4.4
				v-2.6c0-1.8,0.5-3.2,1.5-4.3c1-1.1,2.3-1.7,3.9-1.7c1.5,0,2.8,0.4,3.7,1.2c0.9,0.8,1.3,1.8,1.3,3.1l0,0.1h-1.1c0-1-0.3-1.8-1-2.4
				s-1.6-1-2.9-1c-1.3,0-2.3,0.5-3.1,1.4c-0.8,0.9-1.2,2.1-1.2,3.6v2.6c0,1.5,0.4,2.7,1.2,3.7c0.8,0.9,1.9,1.4,3.2,1.4
				c1,0,1.8-0.2,2.4-0.4c0.6-0.3,1.1-0.6,1.3-1v-3.6h-3.8v-1h5V84.8z"/>
		</g>
		<rect x="470.7" y="63.5" fill="none" stroke="#C0C0C0" stroke-miterlimit="10" width="62.7" height="33"/>
	</g>
	<g>
		<g>
			<line fill="none" stroke="#C0C0C0" stroke-miterlimit="10" x1="632.8" y1="63.5" x2="632.8" y2="45.6"/>
			<g>
				<polygon fill="#C0C0C0" points="635.3,46.4 632.8,42 630.3,46.4 				"/>
			</g>
		</g>
	</g>
	<g>
		<g>
			<path fill="#C0C0C0" d="M583.9,24v5.9h-1.2V15.7h4.9c1.5,0,2.6,0.4,3.5,1.1s1.2,1.8,1.2,3c0,1.3-0.4,2.3-1.2,3s-2,1.1-3.5,1.1
				H583.9z M583.9,23h3.7c1.2,0,2-0.3,2.6-0.9c0.6-0.6,0.9-1.3,0.9-2.2c0-0.9-0.3-1.7-0.9-2.3c-0.6-0.6-1.5-0.9-2.6-0.9h-3.7V23z"/>
			<path fill="#C0C0C0" d="M596.2,28.9h7.3v1h-8.5V15.7h1.2V28.9z"/>
			<path fill="#C0C0C0" d="M613.7,26h-6.2l-1.4,4h-1.2l5.2-14.2h1.1l5.2,14.2h-1.2L613.7,26z M607.8,24.9h5.5l-2.7-7.5h-0.1
				L607.8,24.9z"/>
			<path fill="#C0C0C0" d="M620,29.9h-1.2V15.7h1.2V29.9z"/>
			<path fill="#C0C0C0" d="M634.4,29.9h-1.2l-8.1-12.2l-0.1,0v12.2h-1.2V15.7h1.2l8.1,12.1l0.1,0V15.7h1.2V29.9z"/>
			<path fill="#C0C0C0" d="M647.4,16.7h-4.8v13.2h-1.2V16.7h-5v-1h11V16.7z"/>
			<path fill="#C0C0C0" d="M657.2,23h-6.4v5.9h7.4v1h-8.5V15.7h8.5v1h-7.3v5.3h6.4V23z"/>
			<path fill="#C0C0C0" d="M665,21.8l4-6.1h1.4l-4.7,7l4.9,7.2h-1.4l-4.2-6.3l-4.2,6.3h-1.4l4.9-7.2l-4.7-7h1.4L665,21.8z"/>
			<path fill="#C0C0C0" d="M682.6,16.7h-4.8v13.2h-1.2V16.7h-5v-1h11V16.7z"/>
		</g>
		<g>
			<g>
				<polyline fill="none" stroke="#C0C0C0" stroke-miterlimit="10" points="695.6,33.7 695.6,39.7 689.6,39.7 				"/>
				
					<line fill="none" stroke="#C0C0C0" stroke-miterlimit="10" stroke-dasharray="12.8495,12.8495" x1="676.8" y1="39.7" x2="580.4" y2="39.7"/>
				<polyline fill="none" stroke="#C0C0C0" stroke-miterlimit="10" points="574,39.7 568,39.7 568,33.7 				"/>
				
					<line fill="none" stroke="#C0C0C0" stroke-miterlimit="10" stroke-dasharray="6.9932,6.9932" x1="568" y1="26.7" x2="568" y2="16.2"/>
				<polyline fill="none" stroke="#C0C0C0" stroke-miterlimit="10" points="568,12.7 568,6.7 574,6.7 				"/>
				
					<line fill="none" stroke="#C0C0C0" stroke-miterlimit="10" stroke-dasharray="12.8495,12.8495" x1="586.8" y1="6.7" x2="683.2" y2="6.7"/>
				<polyline fill="none" stroke="#C0C0C0" stroke-miterlimit="10" points="689.6,6.7 695.6,6.7 695.6,12.7 				"/>
				
					<line fill="none" stroke="#C0C0C0" stroke-miterlimit="10" stroke-dasharray="6.9932,6.9932" x1="695.6" y1="19.7" x2="695.6" y2="30.2"/>
			</g>
		</g>
	</g>
	<g>
		<g>
			<line fill="none" stroke="#C0C0C0" stroke-miterlimit="10" x1="731.9" y1="80" x2="710.9" y2="80"/>
			<g>
				<polygon fill="#C0C0C0" points="711.6,77.5 707.3,80 711.6,82.5 				"/>
			</g>
		</g>
	</g>
	<g>
		<g>
			<line fill="none" stroke="#C0C0C0" stroke-miterlimit="10" x1="533.3" y1="80" x2="554.4" y2="80"/>
			<g>
				<polygon fill="#C0C0C0" points="553.6,82.5 558,80 553.6,77.5 				"/>
			</g>
		</g>
	</g>
</g>
<g>
</g>
<g>
</g>
<g>
</g>
<g>
</g>
<g>
</g>
<g>
</g>
<g>
</g>
</svg>
