<?xml version="1.0" encoding="utf-8"?>
<!-- Generator: Adobe Illustrator 18.0.0, SVG Export Plug-In . SVG Version: 6.00 Build 0)  -->
<!DOCTYPE svg PUBLIC "-//W3C//DTD SVG 1.1//EN" "http://www.w3.org/Graphics/SVG/1.1/DTD/svg11.dtd">
<svg version="1.1" xmlns="http://www.w3.org/2000/svg" xmlns:xlink="http://www.w3.org/1999/xlink" x="0px" y="0px"
	 viewBox="0 0 429.8 331.5" enable-background="new 0 0 429.8 331.5" xml:space="preserve">
<g id="Layer_1" display="none">
	<g display="inline">
		<g>
			<g>
				<rect x="47.7" y="172.2" fill="none" stroke="#C0C0C0" stroke-miterlimit="10" width="86.5" height="33"/>
				<g>
					<path fill="#C0C0C0" d="M63.4,192.5c0-0.5-0.2-0.9-0.6-1.3c-0.4-0.4-1.1-0.7-2.2-0.9c-1.2-0.3-2.2-0.6-2.8-1.1
						s-0.9-1.1-0.9-1.9c0-0.8,0.3-1.5,1-2c0.7-0.6,1.6-0.8,2.7-0.8c1.2,0,2.1,0.3,2.8,0.9c0.7,0.6,1,1.3,1,2.2l0,0.1h-1.1
						c0-0.6-0.2-1.1-0.7-1.5c-0.5-0.4-1.2-0.6-2-0.6c-0.8,0-1.5,0.2-1.9,0.6c-0.4,0.4-0.6,0.8-0.6,1.3c0,0.5,0.2,0.9,0.6,1.2
						c0.4,0.3,1.1,0.6,2.2,0.8c1.2,0.3,2.2,0.7,2.8,1.1c0.6,0.5,1,1.1,1,2c0,0.9-0.4,1.6-1.1,2.1c-0.7,0.5-1.7,0.8-2.8,0.8
						c-1.3,0-2.3-0.3-3-0.9c-0.7-0.6-1.1-1.3-1-2.2l0-0.1h1.1c0,0.8,0.4,1.3,0.9,1.7s1.3,0.5,2,0.5c0.8,0,1.5-0.2,2-0.6
						S63.4,193,63.4,192.5z"/>
					<path fill="#C0C0C0" d="M69,195.2h-1.2V181H69V195.2z"/>
					<path fill="#C0C0C0" d="M77,192.7l0.3,1h0.1l0.3-1l4.3-11.7h1.3l-5.3,14.2h-1.1L71.4,181h1.3L77,192.7z"/>
					<path fill="#C0C0C0" d="M108.7,194.9c-0.5,0.2-1.5,0.6-2.8,0.6c-2.9,0-4.8-2-4.8-4.9c0-3,2-5.1,5.2-5.1c1,0,2,0.3,2.4,0.5
						l-0.4,1.4c-0.4-0.2-1.1-0.5-2-0.5c-2.2,0-3.4,1.6-3.4,3.7c0,2.2,1.4,3.6,3.4,3.6c1,0,1.7-0.3,2.2-0.5L108.7,194.9z"/>
					<path fill="#C0C0C0" d="M112.6,181.8v13.5h-1.7v-13.5H112.6z"/>
					<path fill="#C0C0C0" d="M118.6,195.2l-4.4-13.5h1.9l2.1,6.6c0.6,1.8,1.1,3.5,1.4,5h0c0.4-1.6,0.9-3.3,1.5-5l2.3-6.7h1.9
						l-4.8,13.5H118.6z"/>
				</g>
				<g>
					<path fill="#C0C0BF" d="M87,188.5c0,3,2.4,5.4,5.4,5.4c3,0,5.4-2.4,5.4-5.4c0-3-2.4-5.4-5.4-5.4C89.4,183.2,87,185.5,87,188.5z
						 M92.4,193.4c-2.7,0-4.8-2.2-4.8-4.8s2.2-4.8,4.8-4.8c2.7,0,4.8,2.2,4.8,4.8C97.2,191.2,95.1,193.4,92.4,193.4z M92.6,188.3
						v-3.5h-0.5v3.5h-3.5v0.5h3.5v3.5h0.5v-3.5h3.5v-0.5H92.6z"/>
				</g>
			</g>
			<g>
				<g>
					<path fill="#C0C0C0" d="M198.3,76.4c0-0.5-0.2-0.9-0.6-1.3c-0.4-0.4-1.1-0.7-2.2-0.9c-1.2-0.3-2.2-0.6-2.8-1.1
						s-0.9-1.1-0.9-1.9c0-0.8,0.3-1.5,1-2c0.7-0.6,1.6-0.8,2.7-0.8c1.2,0,2.1,0.3,2.8,0.9c0.7,0.6,1,1.3,1,2.2l0,0.1h-1.1
						c0-0.6-0.2-1.1-0.7-1.5c-0.5-0.4-1.2-0.6-2-0.6c-0.8,0-1.5,0.2-1.9,0.6c-0.4,0.4-0.6,0.8-0.6,1.3c0,0.5,0.2,0.9,0.6,1.2
						c0.4,0.3,1.1,0.6,2.2,0.8c1.2,0.3,2.2,0.7,2.8,1.1c0.6,0.5,1,1.1,1,2c0,0.9-0.4,1.6-1.1,2.1c-0.7,0.5-1.7,0.8-2.8,0.8
						c-1.3,0-2.3-0.3-3-0.9c-0.7-0.6-1.1-1.3-1-2.2l0-0.1h1.1c0,0.8,0.4,1.3,0.9,1.7s1.3,0.5,2,0.5c0.8,0,1.5-0.2,2-0.6
						S198.3,77,198.3,76.4z"/>
					<path fill="#C0C0C0" d="M210.4,75.7c0-0.7-0.3-1.3-0.9-1.8c-0.6-0.5-1.6-0.9-2.9-1.3c-1.5-0.4-2.7-0.9-3.5-1.6
						c-0.8-0.6-1.2-1.5-1.2-2.5c0-1.1,0.4-2,1.3-2.7s2-1,3.4-1c1.4,0,2.6,0.4,3.5,1.2c0.9,0.8,1.3,1.8,1.3,3l0,0.1h-1.1
						c0-0.9-0.3-1.7-1-2.3c-0.7-0.6-1.6-0.9-2.6-0.9c-1.1,0-2,0.3-2.6,0.8s-0.9,1.2-0.9,1.9c0,0.7,0.3,1.3,0.9,1.8
						c0.6,0.5,1.6,0.9,3,1.3c1.5,0.4,2.6,1,3.4,1.6s1.2,1.5,1.2,2.5c0,1.1-0.5,2-1.4,2.7c-0.9,0.7-2.1,1-3.5,1
						c-1.4,0-2.6-0.4-3.7-1.1c-1-0.7-1.5-1.8-1.5-3.1l0-0.1h1.1c0,1.1,0.4,1.9,1.2,2.5s1.8,0.8,2.8,0.8c1.1,0,2-0.2,2.7-0.7
						S210.4,76.5,210.4,75.7z"/>
					<path fill="#C0C0C0" d="M221.9,75.2h-6.2l-1.4,4H213l5.2-14.2h1.1l5.2,14.2h-1.2L221.9,75.2z M216.1,74.1h5.5l-2.7-7.5h-0.1
						L216.1,74.1z"/>
					<path fill="#C0C0C0" d="M227.9,78.2h7.3v1h-8.5V64.9h1.2V78.2z"/>
					<path fill="#C0C0C0" d="M244.7,65.9h-4.8v13.2h-1.2V65.9h-5v-1h11V65.9z"/>
					<path fill="#C0C0C0" d="M270.1,78.4c0.7,0,1.4-0.2,2-0.7s0.9-1.1,0.9-1.8h1l0,0.1c0,1-0.4,1.8-1.2,2.5s-1.7,1-2.8,1
						c-1.4,0-2.5-0.5-3.3-1.5c-0.8-1-1.2-2.3-1.2-3.8v-0.4c0-1.5,0.4-2.8,1.2-3.8c0.8-1,1.9-1.5,3.3-1.5c1.1,0,2.1,0.3,2.8,1
						c0.8,0.7,1.1,1.6,1.1,2.7l0,0.1h-1c0-0.8-0.3-1.5-0.8-2c-0.6-0.5-1.2-0.8-2-0.8c-1.1,0-1.9,0.4-2.5,1.2s-0.8,1.8-0.8,3.1v0.4
						c0,1.2,0.3,2.3,0.8,3.1C268.1,78,268.9,78.4,270.1,78.4z"/>
					<path fill="#C0C0C0" d="M284.8,75.7c0-0.7-0.3-1.3-0.9-1.8c-0.6-0.5-1.6-0.9-2.9-1.3c-1.5-0.4-2.7-0.9-3.5-1.6
						c-0.8-0.6-1.2-1.5-1.2-2.5c0-1.1,0.4-2,1.3-2.7s2-1,3.4-1c1.4,0,2.6,0.4,3.5,1.2c0.9,0.8,1.3,1.8,1.3,3l0,0.1h-1.1
						c0-0.9-0.3-1.7-1-2.3s-1.6-0.9-2.6-0.9c-1.1,0-2,0.3-2.6,0.8c-0.6,0.5-0.9,1.2-0.9,1.9c0,0.7,0.3,1.3,0.9,1.8
						c0.6,0.5,1.6,0.9,3,1.3c1.5,0.4,2.6,1,3.4,1.6s1.2,1.5,1.2,2.5c0,1.1-0.5,2-1.4,2.7c-0.9,0.7-2.1,1-3.5,1
						c-1.4,0-2.6-0.4-3.7-1.1c-1-0.7-1.5-1.8-1.5-3.1l0-0.1h1.1c0,1.1,0.4,1.9,1.2,2.5s1.8,0.8,2.8,0.8c1.1,0,2-0.2,2.7-0.7
						C284.4,77.1,284.8,76.5,284.8,75.7z"/>
					<path fill="#C0C0C0" d="M296.2,75.2H290l-1.4,4h-1.2l5.2-14.2h1.1l5.2,14.2h-1.2L296.2,75.2z M290.4,74.1h5.5l-2.7-7.5h-0.1
						L290.4,74.1z"/>
					<path fill="#C0C0C0" d="M302.2,78.2h7.3v1h-8.5V64.9h1.2V78.2z"/>
					<path fill="#C0C0C0" d="M319.1,65.9h-4.8v13.2h-1.2V65.9h-5v-1h11V65.9z"/>
				</g>
				<g>
					<path fill="#C0C0BF" d="M249.2,72.6c0,3,2.4,5.4,5.4,5.4c3,0,5.4-2.4,5.4-5.4c0-3-2.4-5.4-5.4-5.4
						C251.6,67.2,249.2,69.6,249.2,72.6z M254.6,77.4c-2.7,0-4.8-2.2-4.8-4.8s2.2-4.8,4.8-4.8c2.7,0,4.8,2.2,4.8,4.8
						C259.4,75.2,257.3,77.4,254.6,77.4z M254.8,72.3v-3.5h-0.5v3.5h-3.5v0.5h3.5v3.5h0.5v-3.5h3.5v-0.5H254.8z"/>
				</g>
				<rect x="181.9" y="56.1" fill="none" stroke="#C0C0C0" stroke-miterlimit="10" width="147" height="33"/>
			</g>
			<g>
				<g>
					<path fill="#C0C0C0" d="M238.6,192.7c0-0.5-0.2-0.9-0.6-1.3c-0.4-0.4-1.1-0.7-2.2-0.9c-1.2-0.3-2.2-0.6-2.8-1.1
						s-0.9-1.1-0.9-1.9c0-0.8,0.3-1.5,1-2s1.6-0.8,2.7-0.8c1.2,0,2.1,0.3,2.8,0.9c0.7,0.6,1,1.3,1,2.2l0,0.1h-1.1
						c0-0.6-0.2-1.1-0.7-1.5c-0.5-0.4-1.2-0.6-2-0.6c-0.8,0-1.5,0.2-1.9,0.6c-0.4,0.4-0.6,0.8-0.6,1.3c0,0.5,0.2,0.9,0.6,1.2
						c0.4,0.3,1.1,0.6,2.2,0.8c1.2,0.3,2.2,0.7,2.8,1.1c0.6,0.5,1,1.1,1,2c0,0.9-0.4,1.6-1.1,2.1c-0.7,0.5-1.7,0.8-2.8,0.8
						c-1.3,0-2.3-0.3-3-0.9c-0.7-0.6-1.1-1.3-1-2.2l0-0.1h1.1c0,0.8,0.4,1.3,0.9,1.7c0.6,0.3,1.3,0.5,2,0.5c0.8,0,1.5-0.2,2-0.6
						S238.6,193.2,238.6,192.7z"/>
					<path fill="#C0C0C0" d="M250.2,191.4h-6.2l-1.4,4h-1.2l5.2-14.2h1.1l5.2,14.2h-1.2L250.2,191.4z M244.3,190.4h5.5l-2.7-7.5H247
						L244.3,190.4z"/>
					<path fill="#C0C0C0" d="M255,195.4v-14.2h4.3c1.7,0,3.2,0.6,4.3,1.7c1.1,1.2,1.7,2.6,1.7,4.5v1.8c0,1.8-0.6,3.3-1.7,4.5
						c-1.1,1.2-2.6,1.7-4.3,1.7H255z M256.1,182.1v12.2h3.2c1.4,0,2.6-0.5,3.5-1.5c0.9-1,1.4-2.2,1.4-3.7v-1.9
						c0-1.5-0.5-2.7-1.4-3.7s-2.1-1.5-3.5-1.5H256.1z"/>
					<path fill="#C0C0C0" d="M275.7,191.4h-6.2l-1.4,4h-1.2l5.2-14.2h1.1l5.2,14.2h-1.2L275.7,191.4z M269.8,190.4h5.5l-2.7-7.5
						h-0.1L269.8,190.4z"/>
					<path fill="#C0C0C0" d="M288.9,182.1H284v13.2h-1.2v-13.2h-5v-1h11V182.1z"/>
					<path fill="#C0C0C0" d="M297.8,191.4h-6.2l-1.4,4h-1.2l5.2-14.2h1.1l5.2,14.2h-1.2L297.8,191.4z M292,190.4h5.5l-2.7-7.5h-0.1
						L292,190.4z"/>
					<path fill="#C0C0C0" d="M325.7,194.6c0.7,0,1.4-0.2,2-0.7s0.9-1.1,0.9-1.8h1l0,0.1c0,1-0.4,1.8-1.2,2.5s-1.7,1-2.8,1
						c-1.4,0-2.5-0.5-3.3-1.5c-0.8-1-1.2-2.3-1.2-3.8v-0.4c0-1.5,0.4-2.8,1.2-3.8c0.8-1,1.9-1.5,3.3-1.5c1.1,0,2.1,0.3,2.8,1
						c0.8,0.7,1.1,1.6,1.1,2.7l0,0.1h-1c0-0.8-0.3-1.5-0.8-2c-0.6-0.5-1.2-0.8-2-0.8c-1.1,0-1.9,0.4-2.5,1.2s-0.8,1.8-0.8,3.1v0.4
						c0,1.2,0.3,2.3,0.8,3.1C323.7,194.2,324.6,194.6,325.7,194.6z"/>
					<path fill="#C0C0C0" d="M339.8,191.4h-6.2l-1.4,4h-1.2l5.2-14.2h1.1l5.2,14.2h-1.2L339.8,191.4z M333.9,190.4h5.5l-2.7-7.5
						h-0.1L333.9,190.4z"/>
					<path fill="#C0C0C0" d="M344.6,195.4v-14.2h4.3c1.7,0,3.2,0.6,4.3,1.7c1.1,1.2,1.7,2.6,1.7,4.5v1.8c0,1.8-0.6,3.3-1.7,4.5
						c-1.1,1.2-2.6,1.7-4.3,1.7H344.6z M345.8,182.1v12.2h3.2c1.4,0,2.6-0.5,3.5-1.5c0.9-1,1.4-2.2,1.4-3.7v-1.9
						c0-1.5-0.5-2.7-1.4-3.7s-2.1-1.5-3.5-1.5H345.8z"/>
					<path fill="#C0C0C0" d="M365.3,191.4h-6.2l-1.4,4h-1.2l5.2-14.2h1.1l5.2,14.2h-1.2L365.3,191.4z M359.4,190.4h5.5l-2.7-7.5
						h-0.1L359.4,190.4z"/>
					<path fill="#C0C0C0" d="M378.5,182.1h-4.8v13.2h-1.2v-13.2h-5v-1h11V182.1z"/>
					<path fill="#C0C0C0" d="M387.5,191.4h-6.2l-1.4,4h-1.2l5.2-14.2h1.1l5.2,14.2h-1.2L387.5,191.4z M381.6,190.4h5.5l-2.7-7.5
						h-0.1L381.6,190.4z"/>
				</g>
				<g>
					<path fill="#C0C0BF" d="M306.1,188.7c0,3,2.4,5.4,5.4,5.4c3,0,5.4-2.4,5.4-5.4c0-3-2.4-5.4-5.4-5.4
						C308.5,183.3,306.1,185.7,306.1,188.7z M311.5,193.5c-2.7,0-4.8-2.2-4.8-4.8s2.2-4.8,4.8-4.8c2.7,0,4.8,2.2,4.8,4.8
						C316.3,191.3,314.2,193.5,311.5,193.5z M311.7,188.4v-3.5h-0.5v3.5h-3.5v0.5h3.5v3.5h0.5v-3.5h3.5v-0.5H311.7z"/>
				</g>
				<rect x="219.5" y="172.2" fill="none" stroke="#C0C0C0" stroke-miterlimit="10" width="184.5" height="33"/>
			</g>
			<g>
				<g>
					<path fill="#C0C0C0" d="M110.5,73.2v5.9h-1.2V64.9h4.9c1.5,0,2.6,0.4,3.5,1.1s1.2,1.8,1.2,3c0,1.3-0.4,2.3-1.2,3
						s-2,1.1-3.5,1.1H110.5z M110.5,72.3h3.7c1.2,0,2-0.3,2.6-0.9c0.6-0.6,0.9-1.3,0.9-2.2c0-0.9-0.3-1.7-0.9-2.3
						c-0.6-0.6-1.5-0.9-2.6-0.9h-3.7V72.3z"/>
					<path fill="#C0C0C0" d="M127.8,75.2h-6.2l-1.4,4h-1.2l5.2-14.2h1.1l5.2,14.2h-1.2L127.8,75.2z M121.9,74.1h5.5l-2.7-7.5h-0.1
						L121.9,74.1z"/>
					<path fill="#C0C0C0" d="M140.6,75.7c0-0.7-0.3-1.3-0.9-1.8c-0.6-0.5-1.6-0.9-2.9-1.3c-1.5-0.4-2.7-0.9-3.5-1.6
						c-0.8-0.6-1.2-1.5-1.2-2.5c0-1.1,0.4-2,1.3-2.7s2-1,3.4-1c1.4,0,2.6,0.4,3.5,1.2c0.9,0.8,1.3,1.8,1.3,3l0,0.1h-1.1
						c0-0.9-0.3-1.7-1-2.3c-0.7-0.6-1.6-0.9-2.6-0.9c-1.1,0-2,0.3-2.6,0.8s-0.9,1.2-0.9,1.9c0,0.7,0.3,1.3,0.9,1.8
						c0.6,0.5,1.6,0.9,3,1.3c1.5,0.4,2.6,1,3.4,1.6s1.2,1.5,1.2,2.5c0,1.1-0.5,2-1.4,2.7c-0.9,0.7-2.1,1-3.5,1
						c-1.4,0-2.6-0.4-3.7-1.1c-1-0.7-1.5-1.8-1.5-3.1l0-0.1h1.1c0,1.1,0.4,1.9,1.2,2.5s1.8,0.8,2.8,0.8c1.1,0,2-0.2,2.7-0.7
						S140.6,76.5,140.6,75.7z"/>
					<path fill="#C0C0C0" d="M152.7,75.7c0-0.7-0.3-1.3-0.9-1.8c-0.6-0.5-1.6-0.9-2.9-1.3c-1.5-0.4-2.7-0.9-3.5-1.6
						c-0.8-0.6-1.2-1.5-1.2-2.5c0-1.1,0.4-2,1.3-2.7s2-1,3.4-1c1.4,0,2.6,0.4,3.5,1.2c0.9,0.8,1.3,1.8,1.3,3l0,0.1h-1.1
						c0-0.9-0.3-1.7-1-2.3c-0.7-0.6-1.6-0.9-2.6-0.9c-1.1,0-2,0.3-2.6,0.8s-0.9,1.2-0.9,1.9c0,0.7,0.3,1.3,0.9,1.8
						c0.6,0.5,1.6,0.9,3,1.3c1.5,0.4,2.6,1,3.4,1.6s1.2,1.5,1.2,2.5c0,1.1-0.5,2-1.4,2.7c-0.9,0.7-2.1,1-3.5,1
						c-1.4,0-2.6-0.4-3.7-1.1c-1-0.7-1.5-1.8-1.5-3.1l0-0.1h1.1c0,1.1,0.4,1.9,1.2,2.5s1.8,0.8,2.8,0.8c1.1,0,2-0.2,2.7-0.7
						S152.7,76.5,152.7,75.7z"/>
				</g>
				<g>
					<g>
						<polyline fill="none" stroke="#C0C0C0" stroke-miterlimit="10" points="168.3,83.1 168.3,89.1 162.3,89.1 						"/>
						
							<line fill="none" stroke="#C0C0C0" stroke-miterlimit="10" stroke-dasharray="12.0397,12.0397" x1="150.3" y1="89.1" x2="108.1" y2="89.1"/>
						<polyline fill="none" stroke="#C0C0C0" stroke-miterlimit="10" points="102.1,89.1 96.1,89.1 96.1,83.1 						"/>
						
							<line fill="none" stroke="#C0C0C0" stroke-miterlimit="10" stroke-dasharray="6.9932,6.9932" x1="96.1" y1="76.1" x2="96.1" y2="65.6"/>
						<polyline fill="none" stroke="#C0C0C0" stroke-miterlimit="10" points="96.1,62.1 96.1,56.1 102.1,56.1 						"/>
						
							<line fill="none" stroke="#C0C0C0" stroke-miterlimit="10" stroke-dasharray="12.0397,12.0397" x1="114.2" y1="56.1" x2="156.3" y2="56.1"/>
						<polyline fill="none" stroke="#C0C0C0" stroke-miterlimit="10" points="162.3,56.1 168.3,56.1 168.3,62.1 						"/>
						
							<line fill="none" stroke="#C0C0C0" stroke-miterlimit="10" stroke-dasharray="6.9932,6.9932" x1="168.3" y1="69.1" x2="168.3" y2="79.6"/>
					</g>
				</g>
			</g>
			<g>
				<g>
					<path fill="#C0C0C0" d="M162.9,188.5h-1.5v6.7h-1.2V181h1.2v6.5h1.5l5.6-6.5h1.3l0,0l-5.9,6.8l6.5,7.3l0,0H169L162.9,188.5z"/>
					<path fill="#C0C0C0" d="M180.1,188.3h-6.4v5.9h7.4v1h-8.5V181h8.5v1h-7.3v5.3h6.4V188.3z"/>
					<path fill="#C0C0C0" d="M187.8,188.9l4.4-7.9h1.4l-5.2,9v5.2h-1.2V190l-5.1-9h1.4L187.8,188.9z"/>
				</g>
				<g>
					<g>
						<polyline fill="none" stroke="#C0C0C0" stroke-miterlimit="10" points="208,199.1 208,205.1 202,205.1 						"/>
						
							<line fill="none" stroke="#C0C0C0" stroke-miterlimit="10" stroke-dasharray="9.7479,9.7479" x1="192.2" y1="205.1" x2="158.1" y2="205.1"/>
						<polyline fill="none" stroke="#C0C0C0" stroke-miterlimit="10" points="153.2,205.1 147.2,205.1 147.2,199.1 						"/>
						
							<line fill="none" stroke="#C0C0C0" stroke-miterlimit="10" stroke-dasharray="6.9932,6.9932" x1="147.2" y1="192.2" x2="147.2" y2="181.7"/>
						<polyline fill="none" stroke="#C0C0C0" stroke-miterlimit="10" points="147.2,178.2 147.2,172.2 153.2,172.2 						"/>
						
							<line fill="none" stroke="#C0C0C0" stroke-miterlimit="10" stroke-dasharray="9.7479,9.7479" x1="163" y1="172.2" x2="197.1" y2="172.2"/>
						<polyline fill="none" stroke="#C0C0C0" stroke-miterlimit="10" points="202,172.2 208,172.2 208,178.2 						"/>
						
							<line fill="none" stroke="#C0C0C0" stroke-miterlimit="10" stroke-dasharray="6.9932,6.9932" x1="208" y1="185.2" x2="208" y2="195.7"/>
					</g>
				</g>
			</g>
			<g>
				<g>
					<line fill="none" stroke="#C0C0C0" stroke-miterlimit="10" x1="140.2" y1="89.1" x2="173.3" y2="109.4"/>
					<g>
						<polygon fill="#C0C0C0" points="171.3,111.1 176.3,111.3 174,106.9 						"/>
					</g>
				</g>
			</g>
			<g>
				<g>
					<line fill="none" stroke="#C0C0C0" stroke-miterlimit="10" x1="216.1" y1="89.1" x2="183" y2="109.4"/>
					<g>
						<polygon fill="#C0C0C0" points="182.4,106.9 180,111.3 185,111.1 						"/>
					</g>
				</g>
			</g>
			<g>
				<g>
					<path fill="#C0C0C0" d="M143.1,130.8v5.9H142v-14.2h4.9c1.5,0,2.6,0.4,3.5,1.1s1.2,1.8,1.2,3c0,1.3-0.4,2.3-1.2,3
						s-2,1.1-3.5,1.1H143.1z M143.1,129.8h3.7c1.2,0,2-0.3,2.6-0.9c0.6-0.6,0.9-1.3,0.9-2.2c0-0.9-0.3-1.7-0.9-2.3
						c-0.6-0.6-1.5-0.9-2.6-0.9h-3.7V129.8z"/>
					<path fill="#C0C0C0" d="M154.3,136.7v-14.2h4.1c1.5,0,2.6,0.3,3.5,0.9s1.2,1.6,1.2,2.8c0,0.7-0.2,1.3-0.6,1.9
						c-0.4,0.5-0.9,0.9-1.6,1.1c0.9,0.1,1.6,0.5,2.2,1.2c0.6,0.7,0.9,1.5,0.9,2.4c0,1.3-0.4,2.2-1.2,2.9c-0.8,0.7-1.9,1-3.3,1H154.3
						z M155.5,128.9h3.4c1,0,1.7-0.3,2.3-0.7s0.8-1.1,0.8-2c0-0.9-0.3-1.6-0.9-2s-1.5-0.7-2.6-0.7h-3V128.9z M155.5,129.9v5.9h4
						c1,0,1.9-0.3,2.5-0.8c0.6-0.5,0.9-1.2,0.9-2.2c0-0.9-0.3-1.5-0.9-2.1s-1.4-0.8-2.4-0.8h-0.2H155.5z"/>
					<path fill="#C0C0C0" d="M169.3,130h-1.5v6.7h-1.2v-14.2h1.2v6.5h1.5l5.6-6.5h1.3l0,0l-5.9,6.8l6.5,7.3l0,0h-1.4L169.3,130z"/>
					<path fill="#C0C0C0" d="M178.9,136.7v-14.2h4.3c1.7,0,3.2,0.6,4.3,1.7c1.1,1.2,1.7,2.6,1.7,4.5v1.8c0,1.8-0.6,3.3-1.7,4.5
						c-1.1,1.2-2.6,1.7-4.3,1.7H178.9z M180.1,123.5v12.2h3.2c1.4,0,2.6-0.5,3.5-1.5c0.9-1,1.4-2.2,1.4-3.7v-1.9
						c0-1.5-0.5-2.7-1.4-3.7s-2.1-1.5-3.5-1.5H180.1z"/>
					<path fill="#C0C0C0" d="M200.1,130.1h-6.5v6.7h-1.2v-14.2h8.7v1h-7.5v5.6h6.5V130.1z"/>
					<path fill="#C0C0C0" d="M211.7,136.7h-8.6v-0.9l4.7-5.5c0.8-1,1.4-1.8,1.7-2.4s0.5-1.2,0.5-1.9c0-0.9-0.2-1.5-0.7-2
						c-0.5-0.5-1.2-0.7-2.1-0.7c-1,0-1.8,0.3-2.3,0.9c-0.5,0.6-0.8,1.4-0.8,2.3h-1.1l0-0.1c0-1.2,0.3-2.1,1.1-2.9s1.8-1.2,3.2-1.2
						c1.2,0,2.2,0.3,2.9,1c0.7,0.7,1.1,1.6,1.1,2.8c0,0.8-0.2,1.5-0.7,2.3s-1.1,1.7-2,2.8l-3.8,4.5l0,0h7.2V136.7z"/>
				</g>
				<path fill="none" stroke="#C0C0C0" stroke-miterlimit="10" d="M207.4,151.7h-59.6c-10.5,0-19.1-8.5-19.1-19.1v0
					c0-10.5,8.5-19.1,19.1-19.1h59.6c10.5,0,19.1,8.5,19.1,19.1v0C226.4,143.1,217.9,151.7,207.4,151.7z"/>
				<g>
					<path fill="#C0C0C0" d="M145.3,142.4h-0.4v-2.1h-2.6v2.1h-0.4v-4.6h0.4v2.2h2.6v-2.2h0.4V142.4z"/>
					<path fill="#C0C0C0" d="M148.6,141.8L148.6,141.8l1.7-4h0.5v4.6h-0.4v-3.8l0,0l-1.6,3.9h-0.3l-1.7-3.9l0,0v3.9h-0.4v-4.6h0.5
						L148.6,141.8z"/>
					<path fill="#C0C0C0" d="M154.4,141.1h-2l-0.5,1.3h-0.4l1.7-4.6h0.4l1.7,4.6h-0.4L154.4,141.1z M152.6,140.8h1.8l-0.9-2.4h0
						L152.6,140.8z"/>
					<path fill="#C0C0C0" d="M159.1,141L159.1,141c0,0.5-0.1,0.8-0.4,1.1c-0.3,0.3-0.7,0.4-1.2,0.4c-0.5,0-0.9-0.2-1.2-0.6
						s-0.5-0.8-0.5-1.4v-0.7c0-0.6,0.2-1.1,0.5-1.4s0.7-0.6,1.2-0.6c0.5,0,0.9,0.1,1.2,0.4c0.3,0.3,0.4,0.6,0.4,1.1l0,0h-0.4
						c0-0.4-0.1-0.7-0.3-0.9c-0.2-0.2-0.5-0.3-0.9-0.3c-0.4,0-0.7,0.2-1,0.5s-0.4,0.7-0.4,1.2v0.8c0,0.5,0.1,0.9,0.4,1.2
						s0.6,0.5,1,0.5c0.4,0,0.7-0.1,0.9-0.3c0.2-0.2,0.3-0.5,0.3-0.9H159.1z"/>
					<path fill="#C0C0C0" d="M161.8,140.6h-1.9v-0.3h1.9V140.6z"/>
					<path fill="#C0C0C0" d="M165.4,141.3c0-0.2-0.1-0.4-0.3-0.6c-0.2-0.2-0.5-0.3-1-0.4c-0.5-0.1-0.9-0.3-1.1-0.5s-0.4-0.5-0.4-0.8
						c0-0.3,0.1-0.6,0.4-0.9s0.6-0.3,1.1-0.3c0.5,0,0.8,0.1,1.1,0.4s0.4,0.6,0.4,1l0,0h-0.4c0-0.3-0.1-0.6-0.3-0.8s-0.5-0.3-0.8-0.3
						c-0.4,0-0.6,0.1-0.8,0.3c-0.2,0.2-0.3,0.4-0.3,0.6c0,0.2,0.1,0.4,0.3,0.6c0.2,0.1,0.5,0.3,1,0.4c0.5,0.1,0.9,0.3,1.1,0.5
						c0.3,0.2,0.4,0.5,0.4,0.8c0,0.4-0.1,0.6-0.4,0.9s-0.7,0.3-1.1,0.3c-0.5,0-0.8-0.1-1.2-0.3c-0.3-0.2-0.5-0.6-0.5-1l0,0h0.3
						c0,0.4,0.1,0.6,0.4,0.8c0.3,0.2,0.6,0.3,0.9,0.3c0.4,0,0.6-0.1,0.9-0.2C165.3,141.7,165.4,141.5,165.4,141.3z"/>
					<path fill="#C0C0C0" d="M170.1,142.4h-0.4v-2.1h-2.6v2.1h-0.4v-4.6h0.4v2.2h2.6v-2.2h0.4V142.4z"/>
					<path fill="#C0C0C0" d="M173.7,141.1h-2l-0.5,1.3h-0.4l1.7-4.6h0.4l1.7,4.6h-0.4L173.7,141.1z M171.8,140.8h1.8l-0.9-2.4h0
						L171.8,140.8z"/>
					<path fill="#C0C0C0" d="M177.9,142.4h-2.8v-0.3l1.5-1.8c0.3-0.3,0.5-0.6,0.6-0.8c0.1-0.2,0.2-0.4,0.2-0.6
						c0-0.3-0.1-0.5-0.2-0.7c-0.1-0.2-0.4-0.2-0.7-0.2c-0.3,0-0.6,0.1-0.8,0.3c-0.2,0.2-0.3,0.4-0.3,0.7h-0.4l0,0
						c0-0.4,0.1-0.7,0.4-0.9c0.3-0.3,0.6-0.4,1-0.4c0.4,0,0.7,0.1,0.9,0.3c0.2,0.2,0.3,0.5,0.3,0.9c0,0.2-0.1,0.5-0.2,0.7
						s-0.4,0.5-0.7,0.9l-1.2,1.4l0,0h2.3V142.4z"/>
					<path fill="#C0C0C0" d="M178.8,140.3l0.3-2.5h2.2v0.3h-1.9l-0.2,1.6c0.1-0.1,0.2-0.2,0.4-0.2c0.1-0.1,0.3-0.1,0.6-0.1
						c0.4,0,0.7,0.1,0.9,0.4c0.2,0.3,0.4,0.6,0.4,1.1c0,0.5-0.1,0.8-0.3,1.1c-0.2,0.3-0.6,0.4-1,0.4c-0.4,0-0.7-0.1-0.9-0.3
						c-0.3-0.2-0.4-0.5-0.4-0.9l0,0h0.3c0,0.3,0.1,0.5,0.3,0.7c0.2,0.2,0.4,0.2,0.7,0.2c0.3,0,0.6-0.1,0.8-0.3
						c0.2-0.2,0.3-0.5,0.3-0.9c0-0.3-0.1-0.6-0.3-0.8c-0.2-0.2-0.4-0.3-0.7-0.3c-0.3,0-0.5,0-0.7,0.1c-0.2,0.1-0.3,0.2-0.3,0.4
						L178.8,140.3z"/>
					<path fill="#C0C0C0" d="M183.8,137.7c0.2,0,0.3,0,0.5,0.1c0.2,0,0.3,0.1,0.4,0.2l-0.1,0.3c-0.1-0.1-0.3-0.1-0.4-0.1
						c-0.1,0-0.3,0-0.5,0c-0.3,0-0.6,0.1-0.8,0.4c-0.2,0.3-0.3,0.6-0.3,1v0.6c0.1-0.2,0.3-0.3,0.5-0.4c0.2-0.1,0.4-0.2,0.7-0.2
						c0.4,0,0.7,0.1,0.9,0.4c0.2,0.3,0.3,0.6,0.3,1.1c0,0.4-0.1,0.8-0.4,1.1c-0.3,0.3-0.6,0.4-1,0.4c-0.4,0-0.8-0.2-1-0.5
						s-0.4-0.7-0.4-1.3v-1.2c0-0.5,0.1-0.9,0.4-1.2S183.3,137.7,183.8,137.7z M183.7,139.8c-0.2,0-0.5,0.1-0.7,0.2s-0.3,0.3-0.4,0.5
						v0.2c0,0.4,0.1,0.8,0.3,1s0.4,0.4,0.8,0.4c0.3,0,0.6-0.1,0.7-0.3c0.2-0.2,0.3-0.5,0.3-0.8c0-0.4-0.1-0.7-0.3-0.9
						C184.3,139.9,184,139.8,183.7,139.8z"/>
					<path fill="#C0C0C0" d="M192.4,140.8c0,0.5-0.1,0.8-0.4,1.2c-0.2,0.3-0.6,0.5-1,0.5c-0.2,0-0.3-0.1-0.4-0.2
						c-0.1-0.1-0.2-0.3-0.2-0.4c-0.1,0.2-0.2,0.4-0.4,0.5s-0.4,0.2-0.6,0.2c-0.3,0-0.5-0.1-0.6-0.4s-0.2-0.6-0.2-1
						c0-0.5,0.2-1,0.4-1.3c0.2-0.3,0.5-0.5,0.9-0.5c0.2,0,0.4,0,0.5,0.1s0.3,0.1,0.4,0.3l0,0h0l-0.2,1.8c0,0.3,0,0.5,0.1,0.6
						c0.1,0.1,0.2,0.2,0.3,0.2c0.3,0,0.5-0.1,0.7-0.4c0.2-0.3,0.3-0.6,0.3-1c0-0.8-0.1-1.4-0.5-1.9s-0.9-0.7-1.7-0.7
						c-0.7,0-1.2,0.2-1.7,0.7s-0.7,1.1-0.7,1.9c0,0.8,0.1,1.4,0.5,1.9s0.9,0.7,1.6,0.7c0.2,0,0.4,0,0.6-0.1c0.2,0,0.3-0.1,0.5-0.2
						l0.1,0.2c-0.1,0.1-0.3,0.2-0.5,0.2c-0.2,0-0.4,0.1-0.6,0.1c-0.8,0-1.4-0.3-1.8-0.8c-0.4-0.5-0.6-1.2-0.6-2.1
						c0-0.9,0.3-1.6,0.8-2.1c0.5-0.5,1.1-0.8,1.9-0.8c0.8,0,1.4,0.3,1.8,0.8C192.3,139.2,192.5,139.9,192.4,140.8z M189,141.1
						c0,0.3,0,0.6,0.1,0.8c0.1,0.2,0.2,0.3,0.4,0.3c0.2,0,0.3,0,0.5-0.1c0.1-0.1,0.3-0.3,0.4-0.5c0,0,0,0,0,0c0,0,0,0,0,0l0.1-1.7
						c-0.1,0-0.1-0.1-0.2-0.1c-0.1,0-0.2,0-0.3,0c-0.3,0-0.5,0.1-0.7,0.4C189.2,140.2,189.1,140.6,189,141.1z"/>
					<path fill="#C0C0C0" d="M196.1,139.9c0.3,0,0.6-0.1,0.8-0.2c0.2-0.2,0.3-0.4,0.3-0.6c0-0.3-0.1-0.5-0.2-0.7
						c-0.2-0.2-0.4-0.3-0.7-0.3c-0.3,0-0.5,0.1-0.7,0.3c-0.2,0.2-0.3,0.4-0.3,0.7h-0.4l0,0c0-0.4,0.1-0.7,0.4-0.9
						c0.3-0.2,0.6-0.4,1-0.4c0.4,0,0.7,0.1,1,0.3c0.2,0.2,0.4,0.5,0.4,0.9c0,0.2-0.1,0.4-0.2,0.6c-0.1,0.2-0.3,0.3-0.5,0.4
						c0.3,0.1,0.5,0.2,0.6,0.4c0.1,0.2,0.2,0.4,0.2,0.7c0,0.4-0.1,0.7-0.4,1c-0.3,0.2-0.6,0.3-1,0.3c-0.4,0-0.7-0.1-1-0.3
						c-0.3-0.2-0.4-0.5-0.4-0.9l0,0h0.4c0,0.3,0.1,0.5,0.3,0.7c0.2,0.2,0.5,0.3,0.8,0.3c0.3,0,0.6-0.1,0.7-0.3
						c0.2-0.2,0.3-0.4,0.3-0.7c0-0.3-0.1-0.6-0.3-0.7s-0.5-0.2-0.8-0.2h-0.4v-0.3H196.1z"/>
					<path fill="#C0C0C0" d="M201.2,140.8c0,0.5-0.1,0.9-0.4,1.2c-0.3,0.3-0.6,0.4-1,0.4s-0.8-0.2-1-0.5s-0.4-0.7-0.4-1.2v-1.3
						c0-0.5,0.1-0.9,0.4-1.2c0.3-0.3,0.6-0.5,1-0.5s0.8,0.2,1,0.5c0.3,0.3,0.4,0.7,0.4,1.2V140.8z M200.8,139.4c0-0.4-0.1-0.7-0.3-1
						c-0.2-0.2-0.4-0.4-0.8-0.4s-0.6,0.1-0.8,0.4c-0.2,0.2-0.3,0.6-0.3,1v1.5c0,0.4,0.1,0.7,0.3,1c0.2,0.2,0.4,0.4,0.8,0.4
						c0.3,0,0.6-0.1,0.8-0.4c0.2-0.2,0.3-0.6,0.3-1V139.4z"/>
					<path fill="#C0C0C0" d="M204.7,140.8c0,0.5-0.1,0.9-0.4,1.2c-0.3,0.3-0.6,0.4-1,0.4s-0.8-0.2-1-0.5s-0.4-0.7-0.4-1.2v-1.3
						c0-0.5,0.1-0.9,0.4-1.2c0.3-0.3,0.6-0.5,1-0.5s0.8,0.2,1,0.5c0.3,0.3,0.4,0.7,0.4,1.2V140.8z M204.3,139.4c0-0.4-0.1-0.7-0.3-1
						c-0.2-0.2-0.4-0.4-0.8-0.4s-0.6,0.1-0.8,0.4c-0.2,0.2-0.3,0.6-0.3,1v1.5c0,0.4,0.1,0.7,0.3,1c0.2,0.2,0.4,0.4,0.8,0.4
						c0.3,0,0.6-0.1,0.8-0.4c0.2-0.2,0.3-0.6,0.3-1V139.4z"/>
					<path fill="#C0C0C0" d="M208.3,140.8c0,0.5-0.1,0.9-0.4,1.2c-0.3,0.3-0.6,0.4-1,0.4s-0.8-0.2-1-0.5s-0.4-0.7-0.4-1.2v-1.3
						c0-0.5,0.1-0.9,0.4-1.2c0.3-0.3,0.6-0.5,1-0.5s0.8,0.2,1,0.5c0.3,0.3,0.4,0.7,0.4,1.2V140.8z M207.9,139.4c0-0.4-0.1-0.7-0.3-1
						c-0.2-0.2-0.4-0.4-0.8-0.4s-0.6,0.1-0.8,0.4c-0.2,0.2-0.3,0.6-0.3,1v1.5c0,0.4,0.1,0.7,0.3,1c0.2,0.2,0.4,0.4,0.8,0.4
						c0.3,0,0.6-0.1,0.8-0.4c0.2-0.2,0.3-0.6,0.3-1V139.4z"/>
					<path fill="#C0C0C0" d="M211.9,140.8c0,0.5-0.1,0.9-0.4,1.2c-0.3,0.3-0.6,0.4-1,0.4s-0.8-0.2-1-0.5s-0.4-0.7-0.4-1.2v-1.3
						c0-0.5,0.1-0.9,0.4-1.2c0.3-0.3,0.6-0.5,1-0.5s0.8,0.2,1,0.5c0.3,0.3,0.4,0.7,0.4,1.2V140.8z M211.5,139.4c0-0.4-0.1-0.7-0.3-1
						c-0.2-0.2-0.4-0.4-0.8-0.4s-0.6,0.1-0.8,0.4c-0.2,0.2-0.3,0.6-0.3,1v1.5c0,0.4,0.1,0.7,0.3,1c0.2,0.2,0.4,0.4,0.8,0.4
						c0.3,0,0.6-0.1,0.8-0.4c0.2-0.2,0.3-0.6,0.3-1V139.4z"/>
				</g>
			</g>
			<g>
				<g>
					<line fill="none" stroke="#C0C0C0" stroke-miterlimit="10" x1="177.6" y1="151.7" x2="177.6" y2="168.6"/>
					<g>
						<polygon fill="#C0C0C0" points="175.1,167.8 177.6,172.2 180.1,167.8 						"/>
					</g>
				</g>
			</g>
			<g>
				<g>
					<path fill="#C0C0C0" d="M126,247.6h-6.2l-1.4,4h-1.2l5.2-14.2h1.1l5.2,14.2h-1.2L126,247.6z M120.1,246.6h5.5l-2.7-7.5h-0.1
						L120.1,246.6z"/>
					<path fill="#C0C0C0" d="M138.3,244.7H132v5.9h7.4v1h-8.5v-14.2h8.5v1H132v5.3h6.4V244.7z"/>
					<path fill="#C0C0C0" d="M149.8,248.1c0-0.7-0.3-1.3-0.9-1.8c-0.6-0.5-1.6-0.9-2.9-1.3c-1.5-0.4-2.7-0.9-3.5-1.6
						c-0.8-0.6-1.2-1.5-1.2-2.5c0-1.1,0.4-2,1.3-2.7s2-1,3.4-1c1.4,0,2.6,0.4,3.5,1.2c0.9,0.8,1.3,1.8,1.3,3l0,0.1h-1.1
						c0-0.9-0.3-1.7-1-2.3s-1.6-0.9-2.6-0.9c-1.1,0-2,0.3-2.6,0.8c-0.6,0.5-0.9,1.2-0.9,1.9c0,0.7,0.3,1.3,0.9,1.8
						c0.6,0.5,1.6,0.9,3,1.3c1.5,0.4,2.6,1,3.4,1.6s1.2,1.5,1.2,2.5c0,1.1-0.5,2-1.4,2.7c-0.9,0.7-2.1,1-3.5,1
						c-1.4,0-2.6-0.4-3.7-1.1c-1-0.7-1.5-1.8-1.5-3.1l0-0.1h1.1c0,1.1,0.4,1.9,1.2,2.5s1.8,0.8,2.8,0.8c1.1,0,2-0.2,2.7-0.7
						C149.5,249.5,149.8,248.9,149.8,248.1z"/>
					<path fill="#C0C0C0" d="M162.2,251.6h-8.6v-0.9l4.7-5.5c0.8-1,1.4-1.8,1.7-2.4c0.3-0.6,0.5-1.2,0.5-1.9c0-0.9-0.2-1.5-0.7-2
						c-0.5-0.5-1.2-0.7-2.1-0.7c-1,0-1.8,0.3-2.3,0.9c-0.5,0.6-0.8,1.4-0.8,2.3h-1.1l0-0.1c0-1.2,0.3-2.1,1.1-2.9
						c0.8-0.8,1.8-1.2,3.2-1.2c1.2,0,2.2,0.3,2.9,1c0.7,0.7,1.1,1.6,1.1,2.8c0,0.8-0.2,1.5-0.7,2.3s-1.1,1.7-2,2.8l-3.8,4.5l0,0h7.2
						V251.6z"/>
					<path fill="#C0C0C0" d="M165,245.2l0.8-7.8h6.9v1.1h-5.9l-0.5,5.1c0.4-0.3,0.8-0.6,1.2-0.8c0.4-0.2,1-0.3,1.7-0.3
						c1.2,0,2.2,0.4,2.9,1.2c0.7,0.8,1.1,1.9,1.1,3.3c0,1.4-0.4,2.6-1.1,3.4c-0.7,0.9-1.8,1.3-3.2,1.3c-1.2,0-2.1-0.3-2.9-1
						c-0.8-0.7-1.2-1.6-1.1-2.9l0-0.1h1.1c0,1,0.3,1.7,0.8,2.2c0.5,0.5,1.3,0.8,2.2,0.8c1.1,0,1.9-0.3,2.4-1
						c0.5-0.6,0.8-1.6,0.8-2.8c0-1.1-0.3-1.9-0.8-2.5c-0.5-0.6-1.3-0.9-2.2-0.9c-0.9,0-1.6,0.1-2.1,0.4c-0.5,0.3-0.8,0.7-1,1.3
						L165,245.2z"/>
					<path fill="#C0C0C0" d="M180.3,237.2c0.5,0,1.1,0.1,1.6,0.2c0.5,0.1,1,0.3,1.4,0.5l-0.3,1c-0.4-0.2-0.8-0.4-1.2-0.5
						c-0.4-0.1-0.9-0.2-1.4-0.2c-1,0-1.8,0.4-2.5,1.2c-0.6,0.8-1,1.8-1,3.1v2c0.4-0.5,0.9-1,1.5-1.3s1.3-0.5,2-0.5
						c1.3,0,2.2,0.4,2.9,1.2c0.7,0.8,1.1,1.9,1.1,3.3c0,1.4-0.4,2.5-1.2,3.4c-0.8,0.9-1.8,1.3-3.1,1.3c-1.3,0-2.3-0.5-3.2-1.5
						s-1.2-2.3-1.2-3.9v-3.8c0-1.6,0.4-2.9,1.3-3.9S179,237.2,180.3,237.2z M180.1,243.5c-0.8,0-1.4,0.2-2,0.6s-1,0.9-1.2,1.6v0.7
						c0,1.3,0.3,2.4,0.9,3.1c0.6,0.8,1.4,1.2,2.3,1.2c1,0,1.7-0.3,2.3-1c0.6-0.7,0.8-1.6,0.8-2.6c0-1.1-0.3-2-0.8-2.7
						S181.2,243.5,180.1,243.5z"/>
					<path fill="#C0C0C0" d="M192.3,246h-5.8v-1h5.8V246z"/>
					<path fill="#C0C0C0" d="M205.6,249.7c-0.3,0.5-0.9,1-1.7,1.4c-0.8,0.4-1.9,0.7-3.2,0.7c-1.6,0-3-0.6-4-1.7
						c-1-1.1-1.6-2.6-1.6-4.4v-2.6c0-1.8,0.5-3.2,1.5-4.3c1-1.1,2.3-1.7,3.9-1.7c1.5,0,2.8,0.4,3.7,1.2c0.9,0.8,1.3,1.8,1.3,3.1
						l0,0.1h-1.1c0-1-0.3-1.8-1-2.4s-1.6-1-2.9-1c-1.3,0-2.3,0.5-3.1,1.4c-0.8,0.9-1.2,2.1-1.2,3.6v2.6c0,1.5,0.4,2.7,1.2,3.7
						c0.8,0.9,1.9,1.4,3.2,1.4c1,0,1.8-0.2,2.4-0.4c0.6-0.3,1.1-0.6,1.3-1v-3.6h-3.8v-1h5V249.7z"/>
					<path fill="#C0C0C0" d="M219,247.1L219,247.1c0,1.5-0.4,2.6-1.3,3.4s-2.2,1.2-3.7,1.2c-1.6,0-2.9-0.6-3.8-1.7s-1.5-2.6-1.5-4.4
						v-2.3c0-1.8,0.5-3.3,1.5-4.4s2.2-1.7,3.8-1.7c1.5,0,2.8,0.4,3.7,1.2s1.4,1.9,1.4,3.4l0,0.1h-1.1c0-1.1-0.3-2-1-2.7
						c-0.7-0.6-1.7-1-2.9-1c-1.2,0-2.2,0.5-3,1.4c-0.8,1-1.1,2.2-1.1,3.7v2.3c0,1.5,0.4,2.8,1.1,3.7c0.8,1,1.7,1.4,3,1.4
						c1.2,0,2.2-0.3,2.9-0.9c0.7-0.6,1-1.5,1-2.7H219z"/>
					<path fill="#C0C0C0" d="M228.9,249.9L228.9,249.9l5.3-12.5h1.4v14.2h-1.2v-11.9l-0.1,0l-5.1,11.9h-0.8l-5.2-12.2l-0.1,0v12.2
						h-1.2v-14.2h1.6L228.9,249.9z"/>
				</g>
				<path fill="none" stroke="#C0C0C0" stroke-miterlimit="10" d="M232.9,261.4H122.3c-9.1,0-16.5-7.4-16.5-16.5v0
					c0-9.1,7.4-16.5,16.5-16.5h110.7c9.1,0,16.5,7.4,16.5,16.5v0C249.4,254,242,261.4,232.9,261.4z"/>
			</g>
			<g>
				<g>
					<line fill="none" stroke="#C0C0C0" stroke-miterlimit="10" x1="108.7" y1="205.1" x2="138.3" y2="223.7"/>
					<g>
						<polygon fill="#C0C0C0" points="136.3,225.4 141.3,225.6 139,221.2 						"/>
					</g>
				</g>
			</g>
			<g>
				<g>
					<line fill="none" stroke="#C0C0C0" stroke-miterlimit="10" x1="177.6" y1="205.1" x2="177.6" y2="222"/>
					<g>
						<polygon fill="#C0C0C0" points="175.1,221.3 177.6,225.6 180.1,221.3 						"/>
					</g>
				</g>
			</g>
			<g>
				<g>
					<line fill="none" stroke="#C0C0C0" stroke-miterlimit="10" x1="247.5" y1="205.1" x2="216.1" y2="223.7"/>
					<g>
						<polygon fill="#C0C0C0" points="215.5,221.2 213,225.6 218,225.5 						"/>
					</g>
				</g>
			</g>
			<g>
				<g>
					<path fill="#C0C0C0" d="M299.3,247.1L299.3,247.1c0,1.5-0.4,2.6-1.3,3.4s-2.2,1.2-3.7,1.2c-1.6,0-2.9-0.6-3.8-1.7
						s-1.5-2.6-1.5-4.4v-2.3c0-1.8,0.5-3.3,1.5-4.4s2.2-1.7,3.8-1.7c1.5,0,2.8,0.4,3.7,1.2s1.4,1.9,1.4,3.4l0,0.1h-1.1
						c0-1.1-0.3-2-1-2.7c-0.7-0.6-1.7-1-2.9-1c-1.2,0-2.2,0.5-3,1.4c-0.8,1-1.1,2.2-1.1,3.7v2.3c0,1.5,0.4,2.8,1.1,3.7
						c0.8,1,1.7,1.4,3,1.4c1.2,0,2.2-0.3,2.9-0.9c0.7-0.6,1-1.5,1-2.7H299.3z"/>
					<path fill="#C0C0C0" d="M303.8,251.6h-1.2v-14.2h1.2V251.6z"/>
					<path fill="#C0C0C0" d="M308.9,245.7v5.9h-1.2v-14.2h4.9c1.5,0,2.6,0.4,3.5,1.1s1.2,1.8,1.2,3c0,1.3-0.4,2.3-1.2,3
						s-2,1.1-3.5,1.1H308.9z M308.9,244.7h3.7c1.2,0,2-0.3,2.6-0.9c0.6-0.6,0.9-1.3,0.9-2.2c0-0.9-0.3-1.7-0.9-2.3
						c-0.6-0.6-1.5-0.9-2.6-0.9h-3.7V244.7z"/>
					<path fill="#C0C0C0" d="M330.5,251.6h-1.2V245h-8.1v6.5h-1.2v-14.2h1.2v6.7h8.1v-6.7h1.2V251.6z"/>
					<path fill="#C0C0C0" d="M341.7,244.7h-6.4v5.9h7.4v1h-8.5v-14.2h8.5v1h-7.3v5.3h6.4V244.7z"/>
					<path fill="#C0C0C0" d="M346.3,245.1v6.4h-1.2v-14.2h4.7c1.5,0,2.7,0.3,3.5,1s1.2,1.6,1.2,2.9c0,0.8-0.2,1.4-0.6,2
						c-0.4,0.6-1,1-1.8,1.3c0.9,0.2,1.5,0.6,1.9,1.2c0.4,0.6,0.6,1.3,0.6,2.1v1.3c0,0.4,0.1,0.8,0.2,1.2c0.1,0.4,0.3,0.6,0.5,0.9
						v0.2H354c-0.2-0.2-0.4-0.6-0.5-1s-0.1-0.9-0.1-1.3V248c0-0.9-0.3-1.6-0.8-2.1c-0.6-0.5-1.3-0.8-2.4-0.8H346.3z M346.3,244.2
						h3.4c1.3,0,2.2-0.3,2.8-0.8c0.6-0.5,0.9-1.2,0.9-2.1c0-0.9-0.3-1.7-0.9-2.2c-0.6-0.5-1.5-0.8-2.7-0.8h-3.6V244.2z"/>
					<path fill="#C0C0C0" d="M367,238.4h-4.8v13.2H361v-13.2h-5v-1h11V238.4z"/>
					<path fill="#C0C0C0" d="M376.9,244.7h-6.4v5.9h7.4v1h-8.5v-14.2h8.5v1h-7.3v5.3h6.4V244.7z"/>
					<path fill="#C0C0C0" d="M384.7,243.4l4-6.1h1.4l-4.7,7l4.9,7.2h-1.4l-4.2-6.3l-4.2,6.3h-1.4l4.9-7.2l-4.7-7h1.4L384.7,243.4z"
						/>
					<path fill="#C0C0C0" d="M402.3,238.4h-4.8v13.2h-1.2v-13.2h-5v-1h11V238.4z"/>
				</g>
				<rect x="276.8" y="228.4" fill="none" stroke="#C0C0C0" stroke-miterlimit="10" width="137.6" height="33"/>
			</g>
			<g>
				<g>
					<path fill="#C0C0C0" d="M37.9,238.4h-4.8v13.2h-1.2v-13.2h-5v-1h11V238.4z"/>
					<path fill="#C0C0C0" d="M46.8,247.6h-6.2l-1.4,4H38l5.2-14.2h1.1l5.2,14.2h-1.2L46.8,247.6z M41,246.6h5.5l-2.7-7.5h-0.1
						L41,246.6z"/>
					<path fill="#C0C0C0" d="M61.7,249.7c-0.3,0.5-0.9,1-1.7,1.4c-0.8,0.4-1.9,0.7-3.2,0.7c-1.6,0-3-0.6-4-1.7
						c-1-1.1-1.6-2.6-1.6-4.4v-2.6c0-1.8,0.5-3.2,1.5-4.3c1-1.1,2.3-1.7,3.9-1.7c1.5,0,2.8,0.4,3.7,1.2c0.9,0.8,1.3,1.8,1.3,3.1
						l0,0.1h-1.1c0-1-0.3-1.8-1-2.4s-1.6-1-2.9-1c-1.3,0-2.3,0.5-3.1,1.4c-0.8,0.9-1.2,2.1-1.2,3.6v2.6c0,1.5,0.4,2.7,1.2,3.7
						c0.8,0.9,1.9,1.4,3.2,1.4c1,0,1.8-0.2,2.4-0.4c0.6-0.3,1.1-0.6,1.3-1v-3.6h-3.8v-1h5V249.7z"/>
				</g>
				<rect x="15.5" y="228.4" fill="none" stroke="#C0C0C0" stroke-miterlimit="10" width="62.7" height="33"/>
			</g>
			<g>
				<g>
					<line fill="none" stroke="#C0C0C0" stroke-miterlimit="10" x1="177.6" y1="261.4" x2="177.6" y2="279.2"/>
					<g>
						<polygon fill="#C0C0C0" points="175.1,278.5 177.6,282.8 180.1,278.5 						"/>
					</g>
				</g>
			</g>
			<g>
				<g>
					<path fill="#C0C0C0" d="M128.7,302.4v5.9h-1.2v-14.2h4.9c1.5,0,2.6,0.4,3.5,1.1s1.2,1.8,1.2,3c0,1.3-0.4,2.3-1.2,3
						s-2,1.1-3.5,1.1H128.7z M128.7,301.4h3.7c1.2,0,2-0.3,2.6-0.9c0.6-0.6,0.9-1.3,0.9-2.2c0-0.9-0.3-1.7-0.9-2.3
						c-0.6-0.6-1.5-0.9-2.6-0.9h-3.7V301.4z"/>
					<path fill="#C0C0C0" d="M141,307.4h7.3v1h-8.5v-14.2h1.2V307.4z"/>
					<path fill="#C0C0C0" d="M158.5,304.4h-6.2l-1.4,4h-1.2l5.2-14.2h1.1l5.2,14.2h-1.2L158.5,304.4z M152.6,303.3h5.5l-2.7-7.5
						h-0.1L152.6,303.3z"/>
					<path fill="#C0C0C0" d="M164.8,308.3h-1.2v-14.2h1.2V308.3z"/>
					<path fill="#C0C0C0" d="M179.2,308.3H178l-8.1-12.2l-0.1,0v12.2h-1.2v-14.2h1.2l8.1,12.1l0.1,0v-12.1h1.2V308.3z"/>
					<path fill="#C0C0C0" d="M192.2,295.1h-4.8v13.2h-1.2v-13.2h-5v-1h11V295.1z"/>
					<path fill="#C0C0C0" d="M202,301.5h-6.4v5.9h7.4v1h-8.5v-14.2h8.5v1h-7.3v5.3h6.4V301.5z"/>
					<path fill="#C0C0C0" d="M209.8,300.2l4-6.1h1.4l-4.7,7l4.9,7.2H214l-4.2-6.3l-4.2,6.3h-1.4l4.9-7.2l-4.7-7h1.4L209.8,300.2z"/>
					<path fill="#C0C0C0" d="M227.4,295.1h-4.8v13.2h-1.2v-13.2h-5v-1h11V295.1z"/>
				</g>
				<g>
					<g>
						<polyline fill="none" stroke="#C0C0C0" stroke-miterlimit="10" points="240.4,312.1 240.4,318.1 234.4,318.1 						"/>
						
							<line fill="none" stroke="#C0C0C0" stroke-miterlimit="10" stroke-dasharray="12.8495,12.8495" x1="221.6" y1="318.1" x2="125.2" y2="318.1"/>
						<polyline fill="none" stroke="#C0C0C0" stroke-miterlimit="10" points="118.8,318.1 112.8,318.1 112.8,312.1 						"/>
						
							<line fill="none" stroke="#C0C0C0" stroke-miterlimit="10" stroke-dasharray="6.9932,6.9932" x1="112.8" y1="305.1" x2="112.8" y2="294.6"/>
						<polyline fill="none" stroke="#C0C0C0" stroke-miterlimit="10" points="112.8,291.2 112.8,285.2 118.8,285.2 						"/>
						
							<line fill="none" stroke="#C0C0C0" stroke-miterlimit="10" stroke-dasharray="12.8495,12.8495" x1="131.6" y1="285.2" x2="228" y2="285.2"/>
						<polyline fill="none" stroke="#C0C0C0" stroke-miterlimit="10" points="234.4,285.2 240.4,285.2 240.4,291.2 						"/>
						
							<line fill="none" stroke="#C0C0C0" stroke-miterlimit="10" stroke-dasharray="6.9932,6.9932" x1="240.4" y1="298.1" x2="240.4" y2="308.6"/>
					</g>
				</g>
			</g>
			<g>
				<g>
					<line fill="none" stroke="#C0C0C0" stroke-miterlimit="10" x1="276.8" y1="244.9" x2="255.7" y2="244.9"/>
					<g>
						<polygon fill="#C0C0C0" points="256.5,242.4 252.1,244.9 256.5,247.4 						"/>
					</g>
				</g>
			</g>
			<g>
				<g>
					<line fill="none" stroke="#C0C0C0" stroke-miterlimit="10" x1="78.2" y1="244.9" x2="99.2" y2="244.9"/>
					<g>
						<polygon fill="#C0C0C0" points="98.5,247.4 102.8,244.9 98.5,242.4 						"/>
					</g>
				</g>
			</g>
		</g>
		<g>
			<path fill="#C0C0C0" d="M136,18.5c1.6-0.2,3.5-0.4,5.5-0.4c3.7,0,6.4,0.9,8.2,2.5c1.8,1.6,2.8,4,2.8,7.3c0,3.3-1,6-2.9,7.9
				c-1.9,1.9-5,2.9-8.9,2.9c-1.9,0-3.4-0.1-4.7-0.2V18.5z M138.6,36.4c0.7,0.1,1.6,0.1,2.6,0.1c5.6,0,8.6-3.1,8.6-8.6
				c0-4.8-2.7-7.8-8.2-7.8c-1.3,0-2.4,0.1-3.1,0.3V36.4z"/>
			<path fill="#C0C0C0" d="M166.4,29h-7.9v7.3h8.8v2.2H156V18.2h10.9v2.2h-8.3v6.4h7.9V29z"/>
			<path fill="#C0C0C0" d="M184.9,37.8c-1,0.5-2.9,1-5.3,1c-5.7,0-10-3.6-10-10.2c0-6.3,4.3-10.6,10.6-10.6c2.5,0,4.1,0.5,4.8,0.9
				l-0.6,2.1c-1-0.5-2.4-0.8-4.1-0.8c-4.7,0-7.9,3-7.9,8.3c0,4.9,2.8,8.1,7.8,8.1c1.6,0,3.2-0.3,4.3-0.8L184.9,37.8z"/>
			<path fill="#C0C0C0" d="M188.1,18.5c1.3-0.3,3.2-0.4,5-0.4c2.8,0,4.6,0.5,5.8,1.6c1,0.9,1.6,2.3,1.6,3.8c0,2.7-1.7,4.4-3.8,5.2
				v0.1c1.6,0.5,2.5,2,3,4.1c0.7,2.8,1.1,4.8,1.6,5.5h-2.7c-0.3-0.6-0.8-2.3-1.3-4.8c-0.6-2.8-1.7-3.8-4-3.9h-2.5v8.8h-2.6V18.5z
				 M190.7,27.7h2.7c2.8,0,4.6-1.5,4.6-3.8c0-2.6-1.9-3.7-4.6-3.8c-1.3,0-2.2,0.1-2.6,0.2V27.7z"/>
			<path fill="#C0C0C0" d="M208.4,38.5v-8.6L202,18.2h3l2.8,5.6c0.8,1.5,1.4,2.8,2,4.2h0.1c0.6-1.3,1.3-2.6,2-4.2l2.9-5.6h3
				l-6.8,11.6v8.6H208.4z"/>
			<path fill="#C0C0C0" d="M219.9,18.5c1.3-0.2,2.9-0.4,5-0.4c2.6,0,4.5,0.6,5.7,1.7c1.1,1,1.8,2.4,1.8,4.2c0,1.8-0.5,3.3-1.6,4.3
				c-1.4,1.5-3.6,2.2-6.2,2.2c-0.8,0-1.5,0-2.1-0.2v8.1h-2.6V18.5z M222.5,28.2c0.6,0.2,1.3,0.2,2.2,0.2c3.1,0,5.1-1.5,5.1-4.3
				c0-2.7-1.9-4-4.8-4c-1.1,0-2,0.1-2.5,0.2V28.2z"/>
			<path fill="#C0C0C0" d="M239.7,20.5h-6.1v-2.2h15v2.2h-6.2v18h-2.6V20.5z"/>
			<path fill="#C0C0C0" d="M253.4,18.2v20.2h-2.6V18.2H253.4z"/>
			<path fill="#C0C0C0" d="M275.2,28.1c0,7-4.2,10.6-9.4,10.6c-5.3,0-9.1-4.1-9.1-10.3c0-6.4,4-10.6,9.4-10.6
				C271.7,17.9,275.2,22.1,275.2,28.1z M259.5,28.5c0,4.3,2.3,8.2,6.4,8.2c4.1,0,6.5-3.8,6.5-8.4c0-4-2.1-8.2-6.4-8.2
				C261.7,20,259.5,24,259.5,28.5z"/>
			<path fill="#C0C0C0" d="M278.6,38.5V18.2h2.8l6.5,10.2c1.5,2.4,2.7,4.5,3.6,6.6l0.1,0c-0.2-2.7-0.3-5.2-0.3-8.3v-8.5h2.5v20.2
				h-2.6l-6.4-10.3c-1.4-2.2-2.8-4.6-3.8-6.7l-0.1,0c0.2,2.5,0.2,5,0.2,8.3v8.6H278.6z"/>
		</g>
	</g>
</g>
<g id="Layer_2">
	<g>
		<g>
			<g>
				<rect x="36.5" y="172.4" fill="none" stroke="#C0C0C0" stroke-miterlimit="10" width="86.5" height="33"/>
				<g>
					<path fill="#C0C0C0" d="M52.3,192.8c0-0.5-0.2-0.9-0.6-1.3c-0.4-0.4-1.1-0.7-2.2-0.9c-1.2-0.3-2.2-0.6-2.8-1.1
						s-0.9-1.1-0.9-1.9c0-0.8,0.3-1.5,1-2c0.7-0.6,1.6-0.8,2.7-0.8c1.2,0,2.1,0.3,2.8,0.9c0.7,0.6,1,1.3,1,2.2l0,0.1h-1.1
						c0-0.6-0.2-1.1-0.7-1.5c-0.5-0.4-1.2-0.6-2-0.6c-0.8,0-1.5,0.2-1.9,0.6c-0.4,0.4-0.6,0.8-0.6,1.3c0,0.5,0.2,0.9,0.6,1.2
						c0.4,0.3,1.1,0.6,2.2,0.8c1.2,0.3,2.2,0.7,2.8,1.1c0.6,0.5,1,1.1,1,2c0,0.9-0.4,1.6-1.1,2.1c-0.7,0.5-1.7,0.8-2.8,0.8
						c-1.3,0-2.3-0.3-3-0.9c-0.7-0.6-1.1-1.3-1-2.2l0-0.1h1.1c0,0.8,0.4,1.3,0.9,1.7s1.3,0.5,2,0.5c0.8,0,1.5-0.2,2-0.6
						S52.3,193.3,52.3,192.8z"/>
					<path fill="#C0C0C0" d="M57.9,195.5h-1.2v-14.2h1.2V195.5z"/>
					<path fill="#C0C0C0" d="M65.8,193l0.3,1h0.1l0.3-1l4.3-11.7H72l-5.3,14.2h-1.1l-5.3-14.2h1.3L65.8,193z"/>
					<path fill="#C0C0C0" d="M97.6,195.1c-0.5,0.2-1.5,0.6-2.8,0.6c-2.9,0-4.8-2-4.8-4.9c0-3,2-5.1,5.2-5.1c1,0,2,0.3,2.4,0.5
						l-0.4,1.4c-0.4-0.2-1.1-0.5-2-0.5c-2.2,0-3.4,1.6-3.4,3.7c0,2.2,1.4,3.6,3.4,3.6c1,0,1.7-0.3,2.2-0.5L97.6,195.1z"/>
					<path fill="#C0C0C0" d="M101.4,182v13.5h-1.7V182H101.4z"/>
					<path fill="#C0C0C0" d="M107.4,195.5L103,182h1.9l2.1,6.6c0.6,1.8,1.1,3.5,1.4,5h0c0.4-1.6,0.9-3.3,1.5-5l2.3-6.7h1.9
						l-4.8,13.5H107.4z"/>
				</g>
				<g>
					<path fill="#C0C0BF" d="M75.9,188.8c0,3,2.4,5.4,5.4,5.4c3,0,5.4-2.4,5.4-5.4c0-3-2.4-5.4-5.4-5.4
						C78.3,183.4,75.9,185.8,75.9,188.8z M81.2,193.6c-2.7,0-4.8-2.2-4.8-4.8s2.2-4.8,4.8-4.8c2.7,0,4.8,2.2,4.8,4.8
						C86.1,191.4,83.9,193.6,81.2,193.6z M81.5,188.5v-3.5H81v3.5h-3.5v0.5H81v3.5h0.5v-3.5h3.5v-0.5H81.5z"/>
				</g>
			</g>
			<g>
				<g>
					<path fill="#C0C0C0" d="M187.2,76.7c0-0.5-0.2-0.9-0.6-1.3c-0.4-0.4-1.1-0.7-2.2-0.9c-1.2-0.3-2.2-0.6-2.8-1.1
						s-0.9-1.1-0.9-1.9c0-0.8,0.3-1.5,1-2c0.7-0.6,1.6-0.8,2.7-0.8c1.2,0,2.1,0.3,2.8,0.9c0.7,0.6,1,1.3,1,2.2l0,0.1h-1.1
						c0-0.6-0.2-1.1-0.7-1.5c-0.5-0.4-1.2-0.6-2-0.6c-0.8,0-1.5,0.2-1.9,0.6c-0.4,0.4-0.6,0.8-0.6,1.3c0,0.5,0.2,0.9,0.6,1.2
						c0.4,0.3,1.1,0.6,2.2,0.8c1.2,0.3,2.2,0.7,2.8,1.1c0.6,0.5,1,1.1,1,2c0,0.9-0.4,1.6-1.1,2.1c-0.7,0.5-1.7,0.8-2.8,0.8
						c-1.3,0-2.3-0.3-3-0.9c-0.7-0.6-1.1-1.3-1-2.2l0-0.1h1.1c0,0.8,0.4,1.3,0.9,1.7s1.3,0.5,2,0.5c0.8,0,1.5-0.2,2-0.6
						S187.2,77.2,187.2,76.7z"/>
					<path fill="#C0C0C0" d="M199.3,76c0-0.7-0.3-1.3-0.9-1.8c-0.6-0.5-1.6-0.9-2.9-1.3c-1.5-0.4-2.7-0.9-3.5-1.6
						c-0.8-0.6-1.2-1.5-1.2-2.5c0-1.1,0.4-2,1.3-2.7s2-1,3.4-1c1.4,0,2.6,0.4,3.5,1.2c0.9,0.8,1.3,1.8,1.3,3l0,0.1h-1.1
						c0-0.9-0.3-1.7-1-2.3c-0.7-0.6-1.6-0.9-2.6-0.9c-1.1,0-2,0.3-2.6,0.8S192,68,192,68.7c0,0.7,0.3,1.3,0.9,1.8
						c0.6,0.5,1.6,0.9,3,1.3c1.5,0.4,2.6,1,3.4,1.6s1.2,1.5,1.2,2.5c0,1.1-0.5,2-1.4,2.7c-0.9,0.7-2.1,1-3.5,1
						c-1.4,0-2.6-0.4-3.7-1.1c-1-0.7-1.5-1.8-1.5-3.1l0-0.1h1.1c0,1.1,0.4,1.9,1.2,2.5s1.8,0.8,2.8,0.8c1.1,0,2-0.2,2.7-0.7
						S199.3,76.8,199.3,76z"/>
					<path fill="#C0C0C0" d="M210.8,75.5h-6.2l-1.4,4h-1.2l5.2-14.2h1.1l5.2,14.2h-1.2L210.8,75.5z M204.9,74.4h5.5l-2.7-7.5h-0.1
						L204.9,74.4z"/>
					<path fill="#C0C0C0" d="M216.8,78.4h7.3v1h-8.5V65.2h1.2V78.4z"/>
					<path fill="#C0C0C0" d="M233.6,66.2h-4.8v13.2h-1.2V66.2h-5v-1h11V66.2z"/>
					<path fill="#C0C0C0" d="M258.9,78.6c0.7,0,1.4-0.2,2-0.7s0.9-1.1,0.9-1.8h1l0,0.1c0,1-0.4,1.8-1.2,2.5s-1.7,1-2.8,1
						c-1.4,0-2.5-0.5-3.3-1.5c-0.8-1-1.2-2.3-1.2-3.8v-0.4c0-1.5,0.4-2.8,1.2-3.8c0.8-1,1.9-1.5,3.3-1.5c1.1,0,2.1,0.3,2.8,1
						c0.8,0.7,1.1,1.6,1.1,2.7l0,0.1h-1c0-0.8-0.3-1.5-0.8-2c-0.6-0.5-1.2-0.8-2-0.8c-1.1,0-1.9,0.4-2.5,1.2
						c-0.5,0.8-0.8,1.8-0.8,3.1v0.4c0,1.2,0.3,2.3,0.8,3.1C257,78.2,257.8,78.6,258.9,78.6z"/>
					<path fill="#C0C0C0" d="M273.6,76c0-0.7-0.3-1.3-0.9-1.8c-0.6-0.5-1.6-0.9-2.9-1.3c-1.5-0.4-2.7-0.9-3.5-1.6
						c-0.8-0.6-1.2-1.5-1.2-2.5c0-1.1,0.4-2,1.3-2.7s2-1,3.4-1c1.4,0,2.6,0.4,3.5,1.2c0.9,0.8,1.3,1.8,1.3,3l0,0.1h-1.1
						c0-0.9-0.3-1.7-1-2.3s-1.6-0.9-2.6-0.9c-1.1,0-2,0.3-2.6,0.8c-0.6,0.5-0.9,1.2-0.9,1.9c0,0.7,0.3,1.3,0.9,1.8
						c0.6,0.5,1.6,0.9,3,1.3c1.5,0.4,2.6,1,3.4,1.6s1.2,1.5,1.2,2.5c0,1.1-0.5,2-1.4,2.7c-0.9,0.7-2.1,1-3.5,1
						c-1.4,0-2.6-0.4-3.7-1.1c-1-0.7-1.5-1.8-1.5-3.1l0-0.1h1.1c0,1.1,0.4,1.9,1.2,2.5s1.8,0.8,2.8,0.8c1.1,0,2-0.2,2.7-0.7
						C273.3,77.4,273.6,76.8,273.6,76z"/>
					<path fill="#C0C0C0" d="M285.1,75.5h-6.2l-1.4,4h-1.2l5.2-14.2h1.1l5.2,14.2h-1.2L285.1,75.5z M279.2,74.4h5.5l-2.7-7.5H282
						L279.2,74.4z"/>
					<path fill="#C0C0C0" d="M291.1,78.4h7.3v1h-8.5V65.2h1.2V78.4z"/>
					<path fill="#C0C0C0" d="M307.9,66.2h-4.8v13.2h-1.2V66.2h-5v-1h11V66.2z"/>
				</g>
				<g>
					<path fill="#C0C0BF" d="M238.1,72.9c0,3,2.4,5.4,5.4,5.4c3,0,5.4-2.4,5.4-5.4c0-3-2.4-5.4-5.4-5.4
						C240.5,67.5,238.1,69.9,238.1,72.9z M243.4,77.7c-2.7,0-4.8-2.2-4.8-4.8s2.2-4.8,4.8-4.8c2.7,0,4.8,2.2,4.8,4.8
						C248.3,75.5,246.1,77.7,243.4,77.7z M243.7,72.6v-3.5h-0.5v3.5h-3.5v0.5h3.5v3.5h0.5v-3.5h3.5v-0.5H243.7z"/>
				</g>
				<rect x="170.8" y="56.4" fill="none" stroke="#C0C0C0" stroke-miterlimit="10" width="147" height="33"/>
			</g>
			<g>
				<g>
					<path fill="#C0C0C0" d="M227.5,192.9c0-0.5-0.2-0.9-0.6-1.3c-0.4-0.4-1.1-0.7-2.2-0.9c-1.2-0.3-2.2-0.6-2.8-1.1
						s-0.9-1.1-0.9-1.9c0-0.8,0.3-1.5,1-2s1.6-0.8,2.7-0.8c1.2,0,2.1,0.3,2.8,0.9c0.7,0.6,1,1.3,1,2.2l0,0.1h-1.1
						c0-0.6-0.2-1.1-0.7-1.5c-0.5-0.4-1.2-0.6-2-0.6c-0.8,0-1.5,0.2-1.9,0.6c-0.4,0.4-0.6,0.8-0.6,1.3c0,0.5,0.2,0.9,0.6,1.2
						c0.4,0.3,1.1,0.6,2.2,0.8c1.2,0.3,2.2,0.7,2.8,1.1c0.6,0.5,1,1.1,1,2c0,0.9-0.4,1.6-1.1,2.1c-0.7,0.5-1.7,0.8-2.8,0.8
						c-1.3,0-2.3-0.3-3-0.9c-0.7-0.6-1.1-1.3-1-2.2l0-0.1h1.1c0,0.8,0.4,1.3,0.9,1.7c0.6,0.3,1.3,0.5,2,0.5c0.8,0,1.5-0.2,2-0.6
						S227.5,193.5,227.5,192.9z"/>
					<path fill="#C0C0C0" d="M239,191.7h-6.2l-1.4,4h-1.2l5.2-14.2h1.1l5.2,14.2h-1.2L239,191.7z M233.2,190.6h5.5l-2.7-7.5h-0.1
						L233.2,190.6z"/>
					<path fill="#C0C0C0" d="M243.8,195.6v-14.2h4.3c1.7,0,3.2,0.6,4.3,1.7c1.1,1.2,1.7,2.6,1.7,4.5v1.8c0,1.8-0.6,3.3-1.7,4.5
						c-1.1,1.2-2.6,1.7-4.3,1.7H243.8z M245,182.4v12.2h3.2c1.4,0,2.6-0.5,3.5-1.5c0.9-1,1.4-2.2,1.4-3.7v-1.9
						c0-1.5-0.5-2.7-1.4-3.7s-2.1-1.5-3.5-1.5H245z"/>
					<path fill="#C0C0C0" d="M264.5,191.7h-6.2l-1.4,4h-1.2l5.2-14.2h1.1l5.2,14.2h-1.2L264.5,191.7z M258.7,190.6h5.5l-2.7-7.5
						h-0.1L258.7,190.6z"/>
					<path fill="#C0C0C0" d="M277.7,182.4h-4.8v13.2h-1.2v-13.2h-5v-1h11V182.4z"/>
					<path fill="#C0C0C0" d="M286.7,191.7h-6.2l-1.4,4h-1.2l5.2-14.2h1.1l5.2,14.2h-1.2L286.7,191.7z M280.8,190.6h5.5l-2.7-7.5
						h-0.1L280.8,190.6z"/>
					<path fill="#C0C0C0" d="M314.5,194.9c0.7,0,1.4-0.2,2-0.7s0.9-1.1,0.9-1.8h1l0,0.1c0,1-0.4,1.8-1.2,2.5s-1.7,1-2.8,1
						c-1.4,0-2.5-0.5-3.3-1.5c-0.8-1-1.2-2.3-1.2-3.8v-0.4c0-1.5,0.4-2.8,1.2-3.8c0.8-1,1.9-1.5,3.3-1.5c1.1,0,2.1,0.3,2.8,1
						c0.8,0.7,1.1,1.6,1.1,2.7l0,0.1h-1c0-0.8-0.3-1.5-0.8-2c-0.6-0.5-1.2-0.8-2-0.8c-1.1,0-1.9,0.4-2.5,1.2s-0.8,1.8-0.8,3.1v0.4
						c0,1.2,0.3,2.3,0.8,3.1C312.6,194.4,313.4,194.9,314.5,194.9z"/>
					<path fill="#C0C0C0" d="M328.7,191.7h-6.2l-1.4,4h-1.2l5.2-14.2h1.1l5.2,14.2h-1.2L328.7,191.7z M322.8,190.6h5.5l-2.7-7.5
						h-0.1L322.8,190.6z"/>
					<path fill="#C0C0C0" d="M333.5,195.6v-14.2h4.3c1.7,0,3.2,0.6,4.3,1.7c1.1,1.2,1.7,2.6,1.7,4.5v1.8c0,1.8-0.6,3.3-1.7,4.5
						c-1.1,1.2-2.6,1.7-4.3,1.7H333.5z M334.7,182.4v12.2h3.2c1.4,0,2.6-0.5,3.5-1.5c0.9-1,1.4-2.2,1.4-3.7v-1.9
						c0-1.5-0.5-2.7-1.4-3.7s-2.1-1.5-3.5-1.5H334.7z"/>
					<path fill="#C0C0C0" d="M354.2,191.7h-6.2l-1.4,4h-1.2l5.2-14.2h1.1l5.2,14.2h-1.2L354.2,191.7z M348.3,190.6h5.5l-2.7-7.5H351
						L348.3,190.6z"/>
					<path fill="#C0C0C0" d="M367.4,182.4h-4.8v13.2h-1.2v-13.2h-5v-1h11V182.4z"/>
					<path fill="#C0C0C0" d="M376.4,191.7h-6.2l-1.4,4h-1.2l5.2-14.2h1.1l5.2,14.2h-1.2L376.4,191.7z M370.5,190.6h5.5l-2.7-7.5
						h-0.1L370.5,190.6z"/>
				</g>
				<g>
					<path fill="#C0C0BF" d="M295,188.9c0,3,2.4,5.4,5.4,5.4c3,0,5.4-2.4,5.4-5.4c0-3-2.4-5.4-5.4-5.4
						C297.4,183.6,295,185.9,295,188.9z M300.3,193.8c-2.7,0-4.8-2.2-4.8-4.8s2.2-4.8,4.8-4.8c2.7,0,4.8,2.2,4.8,4.8
						C305.2,191.6,303,193.8,300.3,193.8z M300.6,188.7v-3.5h-0.5v3.5h-3.5v0.5h3.5v3.5h0.5v-3.5h3.5v-0.5H300.6z"/>
				</g>
				<rect x="208.3" y="172.4" fill="none" stroke="#C0C0C0" stroke-miterlimit="10" width="184.5" height="33"/>
			</g>
			<g>
				<g>
					<path fill="#C0C0C0" d="M99.4,73.5v5.9h-1.2V65.2h4.9c1.5,0,2.6,0.4,3.5,1.1s1.2,1.8,1.2,3c0,1.3-0.4,2.3-1.2,3s-2,1.1-3.5,1.1
						H99.4z M99.4,72.5h3.7c1.2,0,2-0.3,2.6-0.9c0.6-0.6,0.9-1.3,0.9-2.2c0-0.9-0.3-1.7-0.9-2.3c-0.6-0.6-1.5-0.9-2.6-0.9h-3.7V72.5
						z"/>
					<path fill="#C0C0C0" d="M116.6,75.5h-6.2l-1.4,4h-1.2l5.2-14.2h1.1l5.2,14.2H118L116.6,75.5z M110.8,74.4h5.5l-2.7-7.5h-0.1
						L110.8,74.4z"/>
					<path fill="#C0C0C0" d="M129.5,76c0-0.7-0.3-1.3-0.9-1.8c-0.6-0.5-1.6-0.9-2.9-1.3c-1.5-0.4-2.7-0.9-3.5-1.6
						c-0.8-0.6-1.2-1.5-1.2-2.5c0-1.1,0.4-2,1.3-2.7s2-1,3.4-1c1.4,0,2.6,0.4,3.5,1.2c0.9,0.8,1.3,1.8,1.3,3l0,0.1h-1.1
						c0-0.9-0.3-1.7-1-2.3c-0.7-0.6-1.6-0.9-2.6-0.9c-1.1,0-2,0.3-2.6,0.8s-0.9,1.2-0.9,1.9c0,0.7,0.3,1.3,0.9,1.8
						c0.6,0.5,1.6,0.9,3,1.3c1.5,0.4,2.6,1,3.4,1.6s1.2,1.5,1.2,2.5c0,1.1-0.5,2-1.4,2.7c-0.9,0.7-2.1,1-3.5,1
						c-1.4,0-2.6-0.4-3.7-1.1c-1-0.7-1.5-1.8-1.5-3.1l0-0.1h1.1c0,1.1,0.4,1.9,1.2,2.5s1.8,0.8,2.8,0.8c1.1,0,2-0.2,2.7-0.7
						C129.1,77.4,129.5,76.8,129.5,76z"/>
					<path fill="#C0C0C0" d="M141.5,76c0-0.7-0.3-1.3-0.9-1.8c-0.6-0.5-1.6-0.9-2.9-1.3c-1.5-0.4-2.7-0.9-3.5-1.6
						c-0.8-0.6-1.2-1.5-1.2-2.5c0-1.1,0.4-2,1.3-2.7s2-1,3.4-1c1.4,0,2.6,0.4,3.5,1.2c0.9,0.8,1.3,1.8,1.3,3l0,0.1h-1.1
						c0-0.9-0.3-1.7-1-2.3c-0.7-0.6-1.6-0.9-2.6-0.9c-1.1,0-2,0.3-2.6,0.8s-0.9,1.2-0.9,1.9c0,0.7,0.3,1.3,0.9,1.8
						c0.6,0.5,1.6,0.9,3,1.3c1.5,0.4,2.6,1,3.4,1.6s1.2,1.5,1.2,2.5c0,1.1-0.5,2-1.4,2.7c-0.9,0.7-2.1,1-3.5,1
						c-1.4,0-2.6-0.4-3.7-1.1c-1-0.7-1.5-1.8-1.5-3.1l0-0.1h1.1c0,1.1,0.4,1.9,1.2,2.5s1.8,0.8,2.8,0.8c1.1,0,2-0.2,2.7-0.7
						S141.5,76.8,141.5,76z"/>
				</g>
				<g>
					<g>
						<polyline fill="none" stroke="#C0C0C0" stroke-miterlimit="10" points="157.2,83.3 157.2,89.3 151.2,89.3 						"/>
						
							<line fill="none" stroke="#C0C0C0" stroke-miterlimit="10" stroke-dasharray="12.0397,12.0397" x1="139.2" y1="89.3" x2="97" y2="89.3"/>
						<polyline fill="none" stroke="#C0C0C0" stroke-miterlimit="10" points="91,89.3 85,89.3 85,83.3 						"/>
						
							<line fill="none" stroke="#C0C0C0" stroke-miterlimit="10" stroke-dasharray="6.9932,6.9932" x1="85" y1="76.4" x2="85" y2="65.9"/>
						<polyline fill="none" stroke="#C0C0C0" stroke-miterlimit="10" points="85,62.4 85,56.4 91,56.4 						"/>
						
							<line fill="none" stroke="#C0C0C0" stroke-miterlimit="10" stroke-dasharray="12.0397,12.0397" x1="103" y1="56.4" x2="145.2" y2="56.4"/>
						<polyline fill="none" stroke="#C0C0C0" stroke-miterlimit="10" points="151.2,56.4 157.2,56.4 157.2,62.4 						"/>
						
							<line fill="none" stroke="#C0C0C0" stroke-miterlimit="10" stroke-dasharray="6.9932,6.9932" x1="157.2" y1="69.4" x2="157.2" y2="79.8"/>
					</g>
				</g>
			</g>
			<g>
				<g>
					<path fill="#C0C0C0" d="M151.8,188.8h-1.5v6.7h-1.2v-14.2h1.2v6.5h1.5l5.6-6.5h1.3l0,0l-5.9,6.8l6.5,7.3l0,0h-1.4L151.8,188.8z
						"/>
					<path fill="#C0C0C0" d="M168.9,188.6h-6.4v5.9h7.4v1h-8.5v-14.2h8.5v1h-7.3v5.3h6.4V188.6z"/>
					<path fill="#C0C0C0" d="M176.7,189.2l4.4-7.9h1.4l-5.2,9v5.2h-1.2v-5.2l-5.1-9h1.4L176.7,189.2z"/>
				</g>
				<g>
					<g>
						<polyline fill="none" stroke="#C0C0C0" stroke-miterlimit="10" points="196.8,199.4 196.8,205.4 190.8,205.4 						"/>
						
							<line fill="none" stroke="#C0C0C0" stroke-miterlimit="10" stroke-dasharray="9.7479,9.7479" x1="181.1" y1="205.4" x2="147" y2="205.4"/>
						<polyline fill="none" stroke="#C0C0C0" stroke-miterlimit="10" points="142.1,205.4 136.1,205.4 136.1,199.4 						"/>
						
							<line fill="none" stroke="#C0C0C0" stroke-miterlimit="10" stroke-dasharray="6.9932,6.9932" x1="136.1" y1="192.4" x2="136.1" y2="181.9"/>
						<polyline fill="none" stroke="#C0C0C0" stroke-miterlimit="10" points="136.1,178.4 136.1,172.4 142.1,172.4 						"/>
						
							<line fill="none" stroke="#C0C0C0" stroke-miterlimit="10" stroke-dasharray="9.7479,9.7479" x1="151.8" y1="172.4" x2="186" y2="172.4"/>
						<polyline fill="none" stroke="#C0C0C0" stroke-miterlimit="10" points="190.8,172.4 196.8,172.4 196.8,178.4 						"/>
						
							<line fill="none" stroke="#C0C0C0" stroke-miterlimit="10" stroke-dasharray="6.9932,6.9932" x1="196.8" y1="185.4" x2="196.8" y2="195.9"/>
					</g>
				</g>
			</g>
			<g>
				<g>
					<line fill="none" stroke="#C0C0C0" stroke-miterlimit="10" x1="129.1" y1="89.3" x2="162.1" y2="109.6"/>
					<g>
						<polygon fill="#C0C0C0" points="160.2,111.4 165.2,111.5 162.8,107.1 						"/>
					</g>
				</g>
			</g>
			<g>
				<g>
					<line fill="none" stroke="#C0C0C0" stroke-miterlimit="10" x1="205" y1="89.3" x2="171.9" y2="109.6"/>
					<g>
						<polygon fill="#C0C0C0" points="171.2,107.1 168.9,111.5 173.8,111.4 						"/>
					</g>
				</g>
			</g>
			<g>
				<g>
					<path fill="#C0C0C0" d="M132,131.1v5.9h-1.2v-14.2h4.9c1.5,0,2.6,0.4,3.5,1.1s1.2,1.8,1.2,3c0,1.3-0.4,2.3-1.2,3
						s-2,1.1-3.5,1.1H132z M132,130.1h3.7c1.2,0,2-0.3,2.6-0.9c0.6-0.6,0.9-1.3,0.9-2.2c0-0.9-0.3-1.7-0.9-2.3
						c-0.6-0.6-1.5-0.9-2.6-0.9H132V130.1z"/>
					<path fill="#C0C0C0" d="M143.2,137v-14.2h4.1c1.5,0,2.6,0.3,3.5,0.9s1.2,1.6,1.2,2.8c0,0.7-0.2,1.3-0.6,1.9
						c-0.4,0.5-0.9,0.9-1.6,1.1c0.9,0.1,1.6,0.5,2.2,1.2c0.6,0.7,0.9,1.5,0.9,2.4c0,1.3-0.4,2.2-1.2,2.9c-0.8,0.7-1.9,1-3.3,1H143.2
						z M144.3,129.2h3.4c1,0,1.7-0.3,2.3-0.7s0.8-1.1,0.8-2c0-0.9-0.3-1.6-0.9-2s-1.5-0.7-2.6-0.7h-3V129.2z M144.3,130.2v5.9h4
						c1,0,1.9-0.3,2.5-0.8c0.6-0.5,0.9-1.2,0.9-2.2c0-0.9-0.3-1.5-0.9-2.1s-1.4-0.8-2.4-0.8h-0.2H144.3z"/>
					<path fill="#C0C0C0" d="M158.2,130.3h-1.5v6.7h-1.2v-14.2h1.2v6.5h1.5l5.6-6.5h1.3l0,0l-5.9,6.8l6.5,7.3l0,0h-1.4L158.2,130.3z
						"/>
					<path fill="#C0C0C0" d="M167.8,137v-14.2h4.3c1.7,0,3.2,0.6,4.3,1.7c1.1,1.2,1.7,2.6,1.7,4.5v1.8c0,1.8-0.6,3.3-1.7,4.5
						c-1.1,1.2-2.6,1.7-4.3,1.7H167.8z M169,123.8V136h3.2c1.4,0,2.6-0.5,3.5-1.5c0.9-1,1.4-2.2,1.4-3.7V129c0-1.5-0.5-2.7-1.4-3.7
						s-2.1-1.5-3.5-1.5H169z"/>
					<path fill="#C0C0C0" d="M188.9,130.4h-6.5v6.7h-1.2v-14.2h8.7v1h-7.5v5.6h6.5V130.4z"/>
					<path fill="#C0C0C0" d="M200.6,137h-8.6v-0.9l4.7-5.5c0.8-1,1.4-1.8,1.7-2.4s0.5-1.2,0.5-1.9c0-0.9-0.2-1.5-0.7-2
						c-0.5-0.5-1.2-0.7-2.1-0.7c-1,0-1.8,0.3-2.3,0.9c-0.5,0.6-0.8,1.4-0.8,2.3h-1.1l0-0.1c0-1.2,0.3-2.1,1.1-2.9s1.8-1.2,3.2-1.2
						c1.2,0,2.2,0.3,2.9,1c0.7,0.7,1.1,1.6,1.1,2.8c0,0.8-0.2,1.5-0.7,2.3s-1.1,1.7-2,2.8l-3.8,4.5l0,0h7.2V137z"/>
				</g>
				<path fill="none" stroke="#C0C0C0" stroke-miterlimit="10" d="M196.3,152h-59.6c-10.5,0-19.1-8.5-19.1-19.1v0
					c0-10.5,8.5-19.1,19.1-19.1h59.6c10.5,0,19.1,8.5,19.1,19.1v0C215.3,143.4,206.8,152,196.3,152z"/>
				<g>
					<path fill="#C0C0C0" d="M134.1,142.7h-0.4v-2.1h-2.6v2.1h-0.4v-4.6h0.4v2.2h2.6v-2.2h0.4V142.7z"/>
					<path fill="#C0C0C0" d="M137.5,142.1L137.5,142.1l1.7-4h0.5v4.6h-0.4v-3.8l0,0l-1.6,3.9h-0.3l-1.7-3.9l0,0v3.9h-0.4v-4.6h0.5
						L137.5,142.1z"/>
					<path fill="#C0C0C0" d="M143.3,141.4h-2l-0.5,1.3h-0.4l1.7-4.6h0.4l1.7,4.6h-0.4L143.3,141.4z M141.4,141h1.8l-0.9-2.4h0
						L141.4,141z"/>
					<path fill="#C0C0C0" d="M148,141.2L148,141.2c0,0.5-0.1,0.8-0.4,1.1c-0.3,0.3-0.7,0.4-1.2,0.4c-0.5,0-0.9-0.2-1.2-0.6
						s-0.5-0.8-0.5-1.4V140c0-0.6,0.2-1.1,0.5-1.4s0.7-0.6,1.2-0.6c0.5,0,0.9,0.1,1.2,0.4c0.3,0.3,0.4,0.6,0.4,1.1l0,0h-0.4
						c0-0.4-0.1-0.7-0.3-0.9c-0.2-0.2-0.5-0.3-0.9-0.3c-0.4,0-0.7,0.2-1,0.5s-0.4,0.7-0.4,1.2v0.8c0,0.5,0.1,0.9,0.4,1.2
						s0.6,0.5,1,0.5c0.4,0,0.7-0.1,0.9-0.3c0.2-0.2,0.3-0.5,0.3-0.9H148z"/>
					<path fill="#C0C0C0" d="M150.6,140.9h-1.9v-0.3h1.9V140.9z"/>
					<path fill="#C0C0C0" d="M154.3,141.5c0-0.2-0.1-0.4-0.3-0.6c-0.2-0.2-0.5-0.3-1-0.4c-0.5-0.1-0.9-0.3-1.1-0.5s-0.4-0.5-0.4-0.8
						c0-0.3,0.1-0.6,0.4-0.9s0.6-0.3,1.1-0.3c0.5,0,0.8,0.1,1.1,0.4s0.4,0.6,0.4,1l0,0h-0.4c0-0.3-0.1-0.6-0.3-0.8s-0.5-0.3-0.8-0.3
						c-0.4,0-0.6,0.1-0.8,0.3c-0.2,0.2-0.3,0.4-0.3,0.6c0,0.2,0.1,0.4,0.3,0.6c0.2,0.1,0.5,0.3,1,0.4c0.5,0.1,0.9,0.3,1.1,0.5
						c0.3,0.2,0.4,0.5,0.4,0.8c0,0.4-0.1,0.6-0.4,0.9s-0.7,0.3-1.1,0.3c-0.5,0-0.8-0.1-1.2-0.3c-0.3-0.2-0.5-0.6-0.5-1l0,0h0.3
						c0,0.4,0.1,0.6,0.4,0.8c0.3,0.2,0.6,0.3,0.9,0.3c0.4,0,0.6-0.1,0.9-0.2C154.1,142,154.3,141.8,154.3,141.5z"/>
					<path fill="#C0C0C0" d="M158.9,142.7h-0.4v-2.1h-2.6v2.1h-0.4v-4.6h0.4v2.2h2.6v-2.2h0.4V142.7z"/>
					<path fill="#C0C0C0" d="M162.5,141.4h-2l-0.5,1.3h-0.4l1.7-4.6h0.4l1.7,4.6H163L162.5,141.4z M160.6,141h1.8l-0.9-2.4h0
						L160.6,141z"/>
					<path fill="#C0C0C0" d="M166.8,142.7H164v-0.3l1.5-1.8c0.3-0.3,0.5-0.6,0.6-0.8c0.1-0.2,0.2-0.4,0.2-0.6c0-0.3-0.1-0.5-0.2-0.7
						c-0.1-0.2-0.4-0.2-0.7-0.2c-0.3,0-0.6,0.1-0.8,0.3c-0.2,0.2-0.3,0.4-0.3,0.7h-0.4l0,0c0-0.4,0.1-0.7,0.4-0.9
						c0.3-0.3,0.6-0.4,1-0.4c0.4,0,0.7,0.1,0.9,0.3c0.2,0.2,0.3,0.5,0.3,0.9c0,0.2-0.1,0.5-0.2,0.7s-0.4,0.5-0.7,0.9l-1.2,1.4l0,0
						h2.3V142.7z"/>
					<path fill="#C0C0C0" d="M167.7,140.6l0.3-2.5h2.2v0.3h-1.9l-0.2,1.6c0.1-0.1,0.2-0.2,0.4-0.2c0.1-0.1,0.3-0.1,0.6-0.1
						c0.4,0,0.7,0.1,0.9,0.4c0.2,0.3,0.4,0.6,0.4,1.1c0,0.5-0.1,0.8-0.3,1.1c-0.2,0.3-0.6,0.4-1,0.4c-0.4,0-0.7-0.1-0.9-0.3
						c-0.3-0.2-0.4-0.5-0.4-0.9l0,0h0.3c0,0.3,0.1,0.5,0.3,0.7c0.2,0.2,0.4,0.2,0.7,0.2c0.3,0,0.6-0.1,0.8-0.3
						c0.2-0.2,0.3-0.5,0.3-0.9c0-0.3-0.1-0.6-0.3-0.8c-0.2-0.2-0.4-0.3-0.7-0.3c-0.3,0-0.5,0-0.7,0.1c-0.2,0.1-0.3,0.2-0.3,0.4
						L167.7,140.6z"/>
					<path fill="#C0C0C0" d="M172.6,138c0.2,0,0.3,0,0.5,0.1c0.2,0,0.3,0.1,0.4,0.2l-0.1,0.3c-0.1-0.1-0.3-0.1-0.4-0.1
						c-0.1,0-0.3,0-0.5,0c-0.3,0-0.6,0.1-0.8,0.4c-0.2,0.3-0.3,0.6-0.3,1v0.6c0.1-0.2,0.3-0.3,0.5-0.4c0.2-0.1,0.4-0.2,0.7-0.2
						c0.4,0,0.7,0.1,0.9,0.4c0.2,0.3,0.3,0.6,0.3,1.1c0,0.4-0.1,0.8-0.4,1.1c-0.3,0.3-0.6,0.4-1,0.4c-0.4,0-0.8-0.2-1-0.5
						s-0.4-0.7-0.4-1.3v-1.2c0-0.5,0.1-0.9,0.4-1.2S172.2,138,172.6,138z M172.6,140.1c-0.2,0-0.5,0.1-0.7,0.2s-0.3,0.3-0.4,0.5v0.2
						c0,0.4,0.1,0.8,0.3,1s0.4,0.4,0.8,0.4c0.3,0,0.6-0.1,0.7-0.3c0.2-0.2,0.3-0.5,0.3-0.8c0-0.4-0.1-0.7-0.3-0.9
						C173.1,140.2,172.9,140.1,172.6,140.1z"/>
					<path fill="#C0C0C0" d="M181.3,141c0,0.5-0.1,0.8-0.4,1.2c-0.2,0.3-0.6,0.5-1,0.5c-0.2,0-0.3-0.1-0.4-0.2
						c-0.1-0.1-0.2-0.3-0.2-0.4c-0.1,0.2-0.2,0.4-0.4,0.5s-0.4,0.2-0.6,0.2c-0.3,0-0.5-0.1-0.6-0.4s-0.2-0.6-0.2-1
						c0-0.5,0.2-1,0.4-1.3c0.2-0.3,0.5-0.5,0.9-0.5c0.2,0,0.4,0,0.5,0.1s0.3,0.1,0.4,0.3l0,0h0l-0.2,1.8c0,0.3,0,0.5,0.1,0.6
						c0.1,0.1,0.2,0.2,0.3,0.2c0.3,0,0.5-0.1,0.7-0.4c0.2-0.3,0.3-0.6,0.3-1c0-0.8-0.1-1.4-0.5-1.9s-0.9-0.7-1.7-0.7
						c-0.7,0-1.2,0.2-1.7,0.7s-0.7,1.1-0.7,1.9c0,0.8,0.1,1.4,0.5,1.9s0.9,0.7,1.6,0.7c0.2,0,0.4,0,0.6-0.1c0.2,0,0.3-0.1,0.5-0.2
						l0.1,0.2c-0.1,0.1-0.3,0.2-0.5,0.2c-0.2,0-0.4,0.1-0.6,0.1c-0.8,0-1.4-0.3-1.8-0.8c-0.4-0.5-0.6-1.2-0.6-2.1
						c0-0.9,0.3-1.6,0.8-2.1c0.5-0.5,1.1-0.8,1.9-0.8c0.8,0,1.4,0.3,1.8,0.8C181.1,139.5,181.3,140.2,181.3,141z M177.9,141.3
						c0,0.3,0,0.6,0.1,0.8c0.1,0.2,0.2,0.3,0.4,0.3c0.2,0,0.3,0,0.5-0.1c0.1-0.1,0.3-0.3,0.4-0.5c0,0,0,0,0,0c0,0,0,0,0,0l0.1-1.7
						c-0.1,0-0.1-0.1-0.2-0.1c-0.1,0-0.2,0-0.3,0c-0.3,0-0.5,0.1-0.7,0.4C178.1,140.5,177.9,140.9,177.9,141.3z"/>
					<path fill="#C0C0C0" d="M185,140.1c0.3,0,0.6-0.1,0.8-0.2c0.2-0.2,0.3-0.4,0.3-0.6c0-0.3-0.1-0.5-0.2-0.7
						c-0.2-0.2-0.4-0.3-0.7-0.3c-0.3,0-0.5,0.1-0.7,0.3c-0.2,0.2-0.3,0.4-0.3,0.7h-0.4l0,0c0-0.4,0.1-0.7,0.4-0.9
						c0.3-0.2,0.6-0.4,1-0.4c0.4,0,0.7,0.1,1,0.3c0.2,0.2,0.4,0.5,0.4,0.9c0,0.2-0.1,0.4-0.2,0.6c-0.1,0.2-0.3,0.3-0.5,0.4
						c0.3,0.1,0.5,0.2,0.6,0.4c0.1,0.2,0.2,0.4,0.2,0.7c0,0.4-0.1,0.7-0.4,1c-0.3,0.2-0.6,0.3-1,0.3c-0.4,0-0.7-0.1-1-0.3
						c-0.3-0.2-0.4-0.5-0.4-0.9l0,0h0.4c0,0.3,0.1,0.5,0.3,0.7c0.2,0.2,0.5,0.3,0.8,0.3c0.3,0,0.6-0.1,0.7-0.3
						c0.2-0.2,0.3-0.4,0.3-0.7c0-0.3-0.1-0.6-0.3-0.7s-0.5-0.2-0.8-0.2h-0.4v-0.3H185z"/>
					<path fill="#C0C0C0" d="M190,141c0,0.5-0.1,0.9-0.4,1.2c-0.3,0.3-0.6,0.4-1,0.4s-0.8-0.2-1-0.5s-0.4-0.7-0.4-1.2v-1.3
						c0-0.5,0.1-0.9,0.4-1.2c0.3-0.3,0.6-0.5,1-0.5s0.8,0.2,1,0.5c0.3,0.3,0.4,0.7,0.4,1.2V141z M189.6,139.6c0-0.4-0.1-0.7-0.3-1
						c-0.2-0.2-0.4-0.4-0.8-0.4s-0.6,0.1-0.8,0.4c-0.2,0.2-0.3,0.6-0.3,1v1.5c0,0.4,0.1,0.7,0.3,1c0.2,0.2,0.4,0.4,0.8,0.4
						c0.3,0,0.6-0.1,0.8-0.4c0.2-0.2,0.3-0.6,0.3-1V139.6z"/>
					<path fill="#C0C0C0" d="M193.6,141c0,0.5-0.1,0.9-0.4,1.2c-0.3,0.3-0.6,0.4-1,0.4s-0.8-0.2-1-0.5s-0.4-0.7-0.4-1.2v-1.3
						c0-0.5,0.1-0.9,0.4-1.2c0.3-0.3,0.6-0.5,1-0.5s0.8,0.2,1,0.5c0.3,0.3,0.4,0.7,0.4,1.2V141z M193.2,139.6c0-0.4-0.1-0.7-0.3-1
						c-0.2-0.2-0.4-0.4-0.8-0.4s-0.6,0.1-0.8,0.4c-0.2,0.2-0.3,0.6-0.3,1v1.5c0,0.4,0.1,0.7,0.3,1c0.2,0.2,0.4,0.4,0.8,0.4
						c0.3,0,0.6-0.1,0.8-0.4c0.2-0.2,0.3-0.6,0.3-1V139.6z"/>
					<path fill="#C0C0C0" d="M197.2,141c0,0.5-0.1,0.9-0.4,1.2c-0.3,0.3-0.6,0.4-1,0.4s-0.8-0.2-1-0.5s-0.4-0.7-0.4-1.2v-1.3
						c0-0.5,0.1-0.9,0.4-1.2c0.3-0.3,0.6-0.5,1-0.5s0.8,0.2,1,0.5c0.3,0.3,0.4,0.7,0.4,1.2V141z M196.8,139.6c0-0.4-0.1-0.7-0.3-1
						c-0.2-0.2-0.4-0.4-0.8-0.4s-0.6,0.1-0.8,0.4c-0.2,0.2-0.3,0.6-0.3,1v1.5c0,0.4,0.1,0.7,0.3,1c0.2,0.2,0.4,0.4,0.8,0.4
						c0.3,0,0.6-0.1,0.8-0.4c0.2-0.2,0.3-0.6,0.3-1V139.6z"/>
					<path fill="#C0C0C0" d="M200.7,141c0,0.5-0.1,0.9-0.4,1.2c-0.3,0.3-0.6,0.4-1,0.4s-0.8-0.2-1-0.5s-0.4-0.7-0.4-1.2v-1.3
						c0-0.5,0.1-0.9,0.4-1.2c0.3-0.3,0.6-0.5,1-0.5s0.8,0.2,1,0.5c0.3,0.3,0.4,0.7,0.4,1.2V141z M200.4,139.6c0-0.4-0.1-0.7-0.3-1
						c-0.2-0.2-0.4-0.4-0.8-0.4s-0.6,0.1-0.8,0.4c-0.2,0.2-0.3,0.6-0.3,1v1.5c0,0.4,0.1,0.7,0.3,1c0.2,0.2,0.4,0.4,0.8,0.4
						c0.3,0,0.6-0.1,0.8-0.4c0.2-0.2,0.3-0.6,0.3-1V139.6z"/>
				</g>
			</g>
			<g>
				<g>
					<line fill="none" stroke="#C0C0C0" stroke-miterlimit="10" x1="166.5" y1="152" x2="166.5" y2="168.9"/>
					<g>
						<polygon fill="#C0C0C0" points="164,168.1 166.5,172.4 169,168.1 						"/>
					</g>
				</g>
			</g>
			<g>
				<g>
					<path fill="#C0C0C0" d="M114.8,247.9h-6.2l-1.4,4H106l5.2-14.2h1.1l5.2,14.2h-1.2L114.8,247.9z M109,246.8h5.5l-2.7-7.5h-0.1
						L109,246.8z"/>
					<path fill="#C0C0C0" d="M127.2,245h-6.4v5.9h7.4v1h-8.5v-14.2h8.5v1h-7.3v5.3h6.4V245z"/>
					<path fill="#C0C0C0" d="M138.7,248.4c0-0.7-0.3-1.3-0.9-1.8c-0.6-0.5-1.6-0.9-2.9-1.3c-1.5-0.4-2.7-0.9-3.5-1.6
						c-0.8-0.6-1.2-1.5-1.2-2.5c0-1.1,0.4-2,1.3-2.7s2-1,3.4-1c1.4,0,2.6,0.4,3.5,1.2c0.9,0.8,1.3,1.8,1.3,3l0,0.1h-1.1
						c0-0.9-0.3-1.7-1-2.3s-1.6-0.9-2.6-0.9c-1.1,0-2,0.3-2.6,0.8c-0.6,0.5-0.9,1.2-0.9,1.9c0,0.7,0.3,1.3,0.9,1.8
						c0.6,0.5,1.6,0.9,3,1.3c1.5,0.4,2.6,1,3.4,1.6s1.2,1.5,1.2,2.5c0,1.1-0.5,2-1.4,2.7c-0.9,0.7-2.1,1-3.5,1
						c-1.4,0-2.6-0.4-3.7-1.1c-1-0.7-1.5-1.8-1.5-3.1l0-0.1h1.1c0,1.1,0.4,1.9,1.2,2.5s1.8,0.8,2.8,0.8c1.1,0,2-0.2,2.7-0.7
						C138.3,249.8,138.7,249.2,138.7,248.4z"/>
					<path fill="#C0C0C0" d="M151.1,251.8h-8.6v-0.9l4.7-5.5c0.8-1,1.4-1.8,1.7-2.4c0.3-0.6,0.5-1.2,0.5-1.9c0-0.9-0.2-1.5-0.7-2
						c-0.5-0.5-1.2-0.7-2.1-0.7c-1,0-1.8,0.3-2.3,0.9c-0.5,0.6-0.8,1.4-0.8,2.3h-1.1l0-0.1c0-1.2,0.3-2.1,1.1-2.9
						c0.8-0.8,1.8-1.2,3.2-1.2c1.2,0,2.2,0.3,2.9,1c0.7,0.7,1.1,1.6,1.1,2.8c0,0.8-0.2,1.5-0.7,2.3s-1.1,1.7-2,2.8l-3.8,4.5l0,0h7.2
						V251.8z"/>
					<path fill="#C0C0C0" d="M153.8,245.4l0.8-7.8h6.9v1.1h-5.9l-0.5,5.1c0.4-0.3,0.8-0.6,1.2-0.8c0.4-0.2,1-0.3,1.7-0.3
						c1.2,0,2.2,0.4,2.9,1.2c0.7,0.8,1.1,1.9,1.1,3.3c0,1.4-0.4,2.6-1.1,3.4c-0.7,0.9-1.8,1.3-3.2,1.3c-1.2,0-2.1-0.3-2.9-1
						c-0.8-0.7-1.2-1.6-1.1-2.9l0-0.1h1.1c0,1,0.3,1.7,0.8,2.2c0.5,0.5,1.3,0.8,2.2,0.8c1.1,0,1.9-0.3,2.4-1
						c0.5-0.6,0.8-1.6,0.8-2.8c0-1.1-0.3-1.9-0.8-2.5c-0.5-0.6-1.3-0.9-2.2-0.9c-0.9,0-1.6,0.1-2.1,0.4c-0.5,0.3-0.8,0.7-1,1.3
						L153.8,245.4z"/>
					<path fill="#C0C0C0" d="M169.2,237.4c0.5,0,1.1,0.1,1.6,0.2c0.5,0.1,1,0.3,1.4,0.5l-0.3,1c-0.4-0.2-0.8-0.4-1.2-0.5
						c-0.4-0.1-0.9-0.2-1.4-0.2c-1,0-1.8,0.4-2.5,1.2c-0.6,0.8-1,1.8-1,3.1v2c0.4-0.5,0.9-1,1.5-1.3s1.3-0.5,2-0.5
						c1.3,0,2.2,0.4,2.9,1.2c0.7,0.8,1.1,1.9,1.1,3.3c0,1.4-0.4,2.5-1.2,3.4c-0.8,0.9-1.8,1.3-3.1,1.3c-1.3,0-2.3-0.5-3.2-1.5
						s-1.2-2.3-1.2-3.9v-3.8c0-1.6,0.4-2.9,1.3-3.9S167.9,237.4,169.2,237.4z M169,243.8c-0.8,0-1.4,0.2-2,0.6s-1,0.9-1.2,1.6v0.7
						c0,1.3,0.3,2.4,0.9,3.1c0.6,0.8,1.4,1.2,2.3,1.2c1,0,1.7-0.3,2.3-1c0.6-0.7,0.8-1.6,0.8-2.6c0-1.1-0.3-2-0.8-2.7
						S170,243.8,169,243.8z"/>
					<path fill="#C0C0C0" d="M181.2,246.3h-5.8v-1h5.8V246.3z"/>
					<path fill="#C0C0C0" d="M194.5,249.9c-0.3,0.5-0.9,1-1.7,1.4c-0.8,0.4-1.9,0.7-3.2,0.7c-1.6,0-3-0.6-4-1.7
						c-1-1.1-1.6-2.6-1.6-4.4v-2.6c0-1.8,0.5-3.2,1.5-4.3c1-1.1,2.3-1.7,3.9-1.7c1.5,0,2.8,0.4,3.7,1.2c0.9,0.8,1.3,1.8,1.3,3.1
						l0,0.1h-1.1c0-1-0.3-1.8-1-2.4s-1.6-1-2.9-1c-1.3,0-2.3,0.5-3.1,1.4c-0.8,0.9-1.2,2.1-1.2,3.6v2.6c0,1.5,0.4,2.7,1.2,3.7
						c0.8,0.9,1.9,1.4,3.2,1.4c1,0,1.8-0.2,2.4-0.4c0.6-0.3,1.1-0.6,1.3-1v-3.6h-3.8v-1h5V249.9z"/>
					<path fill="#C0C0C0" d="M207.9,247.4L207.9,247.4c0,1.5-0.4,2.6-1.3,3.4s-2.2,1.2-3.7,1.2c-1.6,0-2.9-0.6-3.8-1.7
						s-1.5-2.6-1.5-4.4v-2.3c0-1.8,0.5-3.3,1.5-4.4s2.2-1.7,3.8-1.7c1.5,0,2.8,0.4,3.7,1.2s1.4,1.9,1.4,3.4l0,0.1h-1.1
						c0-1.1-0.3-2-1-2.7c-0.7-0.6-1.7-1-2.9-1c-1.2,0-2.2,0.5-3,1.4c-0.8,1-1.1,2.2-1.1,3.7v2.3c0,1.5,0.4,2.8,1.1,3.7
						c0.8,1,1.7,1.4,3,1.4c1.2,0,2.2-0.3,2.9-0.9c0.7-0.6,1-1.5,1-2.7H207.9z"/>
					<path fill="#C0C0C0" d="M217.8,250.1L217.8,250.1l5.3-12.5h1.4v14.2h-1.2v-11.9l-0.1,0l-5.1,11.9h-0.8l-5.2-12.2l-0.1,0v12.2
						h-1.2v-14.2h1.6L217.8,250.1z"/>
				</g>
				<path fill="none" stroke="#C0C0C0" stroke-miterlimit="10" d="M221.8,261.6H111.1c-9.1,0-16.5-7.4-16.5-16.5v0
					c0-9.1,7.4-16.5,16.5-16.5h110.7c9.1,0,16.5,7.4,16.5,16.5v0C238.3,254.2,230.9,261.6,221.8,261.6z"/>
			</g>
			<g>
				<g>
					<line fill="none" stroke="#C0C0C0" stroke-miterlimit="10" x1="97.6" y1="205.4" x2="127.2" y2="223.9"/>
					<g>
						<polygon fill="#C0C0C0" points="125.2,225.7 130.2,225.8 127.9,221.4 						"/>
					</g>
				</g>
			</g>
			<g>
				<g>
					<line fill="none" stroke="#C0C0C0" stroke-miterlimit="10" x1="166.5" y1="205.4" x2="166.5" y2="222.3"/>
					<g>
						<polygon fill="#C0C0C0" points="164,221.5 166.5,225.8 169,221.5 						"/>
					</g>
				</g>
			</g>
			<g>
				<g>
					<line fill="none" stroke="#C0C0C0" stroke-miterlimit="10" x1="236.4" y1="205.4" x2="205" y2="224"/>
					<g>
						<polygon fill="#C0C0C0" points="204.3,221.5 201.9,225.8 206.9,225.8 						"/>
					</g>
				</g>
			</g>
			<g>
				<g>
					<path fill="#C0C0C0" d="M68.6,304.2L68.6,304.2c0,1.5-0.4,2.6-1.3,3.4s-2.2,1.2-3.7,1.2c-1.6,0-2.9-0.6-3.8-1.7
						s-1.5-2.6-1.5-4.4v-2.3c0-1.8,0.5-3.3,1.5-4.4s2.2-1.7,3.8-1.7c1.5,0,2.8,0.4,3.7,1.2s1.4,1.9,1.4,3.4l0,0.1h-1.1
						c0-1.1-0.3-2-1-2.7c-0.7-0.6-1.7-1-2.9-1c-1.2,0-2.2,0.5-3,1.4c-0.8,1-1.1,2.2-1.1,3.7v2.3c0,1.5,0.4,2.8,1.1,3.7
						c0.8,1,1.7,1.4,3,1.4c1.2,0,2.2-0.3,2.9-0.9c0.7-0.6,1-1.5,1-2.7H68.6z"/>
					<path fill="#C0C0C0" d="M73.1,308.6h-1.2v-14.2h1.2V308.6z"/>
					<path fill="#C0C0C0" d="M78.2,302.7v5.9H77v-14.2h4.9c1.5,0,2.6,0.4,3.5,1.1s1.2,1.8,1.2,3c0,1.3-0.4,2.3-1.2,3s-2,1.1-3.5,1.1
						H78.2z M78.2,301.7h3.7c1.2,0,2-0.3,2.6-0.9c0.6-0.6,0.9-1.3,0.9-2.2c0-0.9-0.3-1.7-0.9-2.3c-0.6-0.6-1.5-0.9-2.6-0.9h-3.7
						V301.7z"/>
					<path fill="#C0C0C0" d="M99.8,308.6h-1.2v-6.5h-8.1v6.5h-1.2v-14.2h1.2v6.7h8.1v-6.7h1.2V308.6z"/>
					<path fill="#C0C0C0" d="M110.9,301.7h-6.4v5.9h7.4v1h-8.5v-14.2h8.5v1h-7.3v5.3h6.4V301.7z"/>
					<path fill="#C0C0C0" d="M115.5,302.2v6.4h-1.2v-14.2h4.7c1.5,0,2.7,0.3,3.5,1s1.2,1.6,1.2,2.9c0,0.8-0.2,1.4-0.6,2
						c-0.4,0.6-1,1-1.8,1.3c0.9,0.2,1.5,0.6,1.9,1.2c0.4,0.6,0.6,1.3,0.6,2.1v1.3c0,0.4,0.1,0.8,0.2,1.2c0.1,0.4,0.3,0.6,0.5,0.9
						v0.2h-1.2c-0.2-0.2-0.4-0.6-0.5-1s-0.1-0.9-0.1-1.3V305c0-0.9-0.3-1.6-0.8-2.1c-0.6-0.5-1.3-0.8-2.4-0.8H115.5z M115.5,301.2
						h3.4c1.3,0,2.2-0.3,2.8-0.8c0.6-0.5,0.9-1.2,0.9-2.1c0-0.9-0.3-1.7-0.9-2.2c-0.6-0.5-1.5-0.8-2.7-0.8h-3.6V301.2z"/>
					<path fill="#C0C0C0" d="M136.3,295.4h-4.8v13.2h-1.2v-13.2h-5v-1h11V295.4z"/>
					<path fill="#C0C0C0" d="M146.2,301.7h-6.4v5.9h7.4v1h-8.5v-14.2h8.5v1h-7.3v5.3h6.4V301.7z"/>
					<path fill="#C0C0C0" d="M153.9,300.5l4-6.1h1.4l-4.7,7l4.9,7.2h-1.4l-4.2-6.3l-4.2,6.3h-1.4l4.9-7.2l-4.7-7h1.4L153.9,300.5z"
						/>
					<path fill="#C0C0C0" d="M171.5,295.4h-4.8v13.2h-1.2v-13.2h-5v-1h11V295.4z"/>
				</g>
				<rect x="46" y="285.4" fill="none" stroke="#C0C0C0" stroke-miterlimit="10" width="137.6" height="33"/>
			</g>
			<g>
				<g>
					<path fill="#C0C0C0" d="M232.1,295.4h-4.8v13.2h-1.2v-13.2h-5v-1h11V295.4z"/>
					<path fill="#C0C0C0" d="M241,304.7h-6.2l-1.4,4h-1.2l5.2-14.2h1.1l5.2,14.2h-1.2L241,304.7z M235.2,303.6h5.5l-2.7-7.5h-0.1
						L235.2,303.6z"/>
					<path fill="#C0C0C0" d="M255.8,306.7c-0.3,0.5-0.9,1-1.7,1.4c-0.8,0.4-1.9,0.7-3.2,0.7c-1.6,0-3-0.6-4-1.7
						c-1-1.1-1.6-2.6-1.6-4.4v-2.6c0-1.8,0.5-3.2,1.5-4.3c1-1.1,2.3-1.7,3.9-1.7c1.5,0,2.8,0.4,3.7,1.2c0.9,0.8,1.3,1.8,1.3,3.1
						l0,0.1h-1.1c0-1-0.3-1.8-1-2.4s-1.6-1-2.9-1c-1.3,0-2.3,0.5-3.1,1.4c-0.8,0.9-1.2,2.1-1.2,3.6v2.6c0,1.5,0.4,2.7,1.2,3.7
						c0.8,0.9,1.9,1.4,3.2,1.4c1,0,1.8-0.2,2.4-0.4c0.6-0.3,1.1-0.6,1.3-1v-3.6h-3.8v-1h5V306.7z"/>
				</g>
				<rect x="209.7" y="285.4" fill="none" stroke="#C0C0C0" stroke-miterlimit="10" width="62.7" height="33"/>
			</g>
			<g>
				<g>
					<line fill="none" stroke="#C0C0C0" stroke-miterlimit="10" x1="145.3" y1="261.6" x2="131.2" y2="280.2"/>
					<g>
						<polygon fill="#C0C0C0" points="129.6,278.1 129,283.1 133.6,281.2 						"/>
					</g>
				</g>
			</g>
			<g>
				<g>
					<line fill="none" stroke="#C0C0C0" stroke-miterlimit="10" x1="205" y1="261.6" x2="224.1" y2="280.6"/>
					<g>
						<polygon fill="#C0C0C0" points="221.8,281.8 226.6,283.1 225.3,278.3 						"/>
					</g>
				</g>
			</g>
			<g>
				<g>
					<path fill="#C0C0C0" d="M281.6,245.9v5.9h-1.2v-14.2h4.9c1.5,0,2.6,0.4,3.5,1.1s1.2,1.8,1.2,3c0,1.3-0.4,2.3-1.2,3
						s-2,1.1-3.5,1.1H281.6z M281.6,244.9h3.7c1.2,0,2-0.3,2.6-0.9c0.6-0.6,0.9-1.3,0.9-2.2c0-0.9-0.3-1.7-0.9-2.3
						c-0.6-0.6-1.5-0.9-2.6-0.9h-3.7V244.9z"/>
					<path fill="#C0C0C0" d="M293.9,250.9h7.3v1h-8.5v-14.2h1.2V250.9z"/>
					<path fill="#C0C0C0" d="M311.3,247.9h-6.2l-1.4,4h-1.2l5.2-14.2h1.1l5.2,14.2h-1.2L311.3,247.9z M305.5,246.8h5.5l-2.7-7.5
						h-0.1L305.5,246.8z"/>
					<path fill="#C0C0C0" d="M317.6,251.8h-1.2v-14.2h1.2V251.8z"/>
					<path fill="#C0C0C0" d="M332,251.8h-1.2l-8.1-12.2l-0.1,0v12.2h-1.2v-14.2h1.2l8.1,12.1l0.1,0v-12.1h1.2V251.8z"/>
					<path fill="#C0C0C0" d="M345,238.6h-4.8v13.2H339v-13.2h-5v-1h11V238.6z"/>
					<path fill="#C0C0C0" d="M354.9,245h-6.4v5.9h7.4v1h-8.5v-14.2h8.5v1h-7.3v5.3h6.4V245z"/>
					<path fill="#C0C0C0" d="M362.7,243.7l4-6.1h1.4l-4.7,7l4.9,7.2h-1.4l-4.2-6.3l-4.2,6.3h-1.4l4.9-7.2l-4.7-7h1.4L362.7,243.7z"
						/>
					<path fill="#C0C0C0" d="M380.3,238.6h-4.8v13.2h-1.2v-13.2h-5v-1h11V238.6z"/>
				</g>
				<g>
					<g>
						<polyline fill="none" stroke="#C0C0C0" stroke-miterlimit="10" points="393.3,255.6 393.3,261.6 387.3,261.6 						"/>
						
							<line fill="none" stroke="#C0C0C0" stroke-miterlimit="10" stroke-dasharray="12.8495,12.8495" x1="374.4" y1="261.6" x2="278" y2="261.6"/>
						<polyline fill="none" stroke="#C0C0C0" stroke-miterlimit="10" points="271.6,261.6 265.6,261.6 265.6,255.6 						"/>
						
							<line fill="none" stroke="#C0C0C0" stroke-miterlimit="10" stroke-dasharray="6.9932,6.9932" x1="265.6" y1="248.6" x2="265.6" y2="238.1"/>
						<polyline fill="none" stroke="#C0C0C0" stroke-miterlimit="10" points="265.6,234.7 265.6,228.7 271.6,228.7 						"/>
						
							<line fill="none" stroke="#C0C0C0" stroke-miterlimit="10" stroke-dasharray="12.8495,12.8495" x1="284.5" y1="228.7" x2="380.8" y2="228.7"/>
						<polyline fill="none" stroke="#C0C0C0" stroke-miterlimit="10" points="387.3,228.7 393.3,228.7 393.3,234.7 						"/>
						
							<line fill="none" stroke="#C0C0C0" stroke-miterlimit="10" stroke-dasharray="6.9932,6.9932" x1="393.3" y1="241.6" x2="393.3" y2="252.1"/>
					</g>
				</g>
			</g>
			<g>
				<g>
					<line fill="none" stroke="#C0C0C0" stroke-miterlimit="10" x1="265.6" y1="245.1" x2="244.6" y2="245.1"/>
					<g>
						<polygon fill="#C0C0C0" points="245.3,242.6 241,245.1 245.3,247.6 						"/>
					</g>
				</g>
			</g>
		</g>
		<g>
			<path fill="#C0C0C0" d="M135.6,28.7h-7.9V36h8.8v2.2h-11.4V18H136v2.2h-8.3v6.4h7.9V28.7z"/>
			<path fill="#C0C0C0" d="M139.9,38.2V18h2.8l6.5,10.2c1.5,2.4,2.7,4.5,3.6,6.6l0.1,0c-0.2-2.7-0.3-5.2-0.3-8.3V18h2.5v20.2h-2.6
				L146,27.9c-1.4-2.2-2.8-4.6-3.8-6.7l-0.1,0c0.1,2.5,0.2,5,0.2,8.3v8.6H139.9z"/>
			<path fill="#C0C0C0" d="M173.7,37.5c-1,0.5-2.9,1-5.3,1c-5.7,0-10-3.6-10-10.2c0-6.3,4.3-10.6,10.6-10.6c2.5,0,4.1,0.5,4.8,0.9
				l-0.6,2.1c-1-0.5-2.4-0.8-4.1-0.8c-4.7,0-7.9,3-7.9,8.3c0,4.9,2.8,8.1,7.8,8.1c1.6,0,3.2-0.3,4.3-0.8L173.7,37.5z"/>
			<path fill="#C0C0C0" d="M177,18.2c1.3-0.3,3.2-0.4,5-0.4c2.8,0,4.6,0.5,5.8,1.6c1,0.9,1.6,2.3,1.6,3.8c0,2.7-1.7,4.4-3.8,5.2v0.1
				c1.6,0.5,2.5,2,3,4.1c0.7,2.8,1.1,4.8,1.6,5.5h-2.7c-0.3-0.6-0.8-2.3-1.3-4.8c-0.6-2.8-1.7-3.8-4-3.9h-2.5v8.8H177V18.2z
				 M179.6,27.4h2.7c2.8,0,4.6-1.5,4.6-3.8c0-2.6-1.9-3.7-4.6-3.8c-1.3,0-2.2,0.1-2.6,0.2V27.4z"/>
			<path fill="#C0C0C0" d="M197.3,38.2v-8.6L190.9,18h3l2.8,5.6c0.8,1.5,1.4,2.8,2,4.2h0.1c0.6-1.3,1.3-2.6,2-4.2l2.9-5.6h3
				l-6.8,11.6v8.6H197.3z"/>
			<path fill="#C0C0C0" d="M208.8,18.2c1.3-0.2,2.9-0.4,5-0.4c2.6,0,4.5,0.6,5.7,1.7c1.1,1,1.8,2.4,1.8,4.2c0,1.8-0.5,3.3-1.6,4.3
				c-1.4,1.5-3.6,2.2-6.2,2.2c-0.8,0-1.5,0-2.1-0.2v8.1h-2.6V18.2z M211.4,28c0.6,0.2,1.3,0.2,2.2,0.2c3.1,0,5.1-1.5,5.1-4.3
				c0-2.7-1.9-4-4.8-4c-1.1,0-2,0.1-2.5,0.2V28z"/>
			<path fill="#C0C0C0" d="M228.6,20.2h-6.1V18h15v2.2h-6.2v18h-2.6V20.2z"/>
			<path fill="#C0C0C0" d="M242.3,18v20.2h-2.6V18H242.3z"/>
			<path fill="#C0C0C0" d="M264.1,27.9c0,7-4.2,10.6-9.4,10.6c-5.3,0-9.1-4.1-9.1-10.3c0-6.4,4-10.6,9.4-10.6
				C260.5,17.6,264.1,21.9,264.1,27.9z M248.4,28.2c0,4.3,2.3,8.2,6.4,8.2c4.1,0,6.5-3.8,6.5-8.4c0-4-2.1-8.2-6.4-8.2
				C250.6,19.8,248.4,23.8,248.4,28.2z"/>
			<path fill="#C0C0C0" d="M267.5,38.2V18h2.8l6.5,10.2c1.5,2.4,2.7,4.5,3.6,6.6l0.1,0c-0.2-2.7-0.3-5.2-0.3-8.3V18h2.5v20.2H280
				l-6.4-10.3c-1.4-2.2-2.8-4.6-3.8-6.7l-0.1,0c0.2,2.5,0.2,5,0.2,8.3v8.6H267.5z"/>
		</g>
	</g>
	<g>
	</g>
	<g>
	</g>
	<g>
	</g>
	<g>
	</g>
	<g>
	</g>
	<g>
	</g>
	<g>
	</g>
</g>
</svg>
